<svg viewBox="130.9999999999999 78.46153846153845 786.0000000000001 640.7692307692307" fill="none" xmlns="http://www.w3.org/2000/svg" xmlns:xlink="http://www.w3.org/1999/xlink" overflow="visible" width="786.0000000000001px" height="640.7692307692307px"><g id="Master/Scene/3 Characters"><g id="Background" transform="scale(1 1)"><g id="Background/Wireframe 2"><g id="Mobile3"><rect id="Container" x="723" y="91" width="147" height="280" rx="8" fill="#c6d1d9"/><circle id="Touch" cx="796" cy="339" r="15" fill="#ffffff"/><g id="Camera"><circle id="Lens" cx="783" cy="108" r="2" fill="#ffffff"/><rect id="Sensor" x="790" y="106" width="21" height="4" rx="2" fill="#ffffff"/></g><g id="Rows"><g id="Row"><rect id="Container_2" x="737" y="119" width="119" height="50.7647" rx="4" fill="#ffffff"/><g id="Text Stuff" clip-path="url(#clip0_215_46185de0bf6a-a49b-4ef8-b110-4e25568c4992)"><rect id="Label" x="746" y="134.228" width="61" height="7.614" rx="3" fill="#c6d1d9"/><rect id="Label_2" x="746" y="146.918" width="40.9452" height="7.614" rx="3" fill="#c6d1d9"/></g><g id="Check"><circle id="Background" cx="843.282" cy="144.38" r="7" fill="#c6d1d9"/><circle id="Indicator" cx="843.282" cy="144.38" r="3" fill="#f2f2f2"/></g></g><g id="Row_2"><rect id="Background_2" x="737" y="178" width="119" height="37.7059" rx="4" fill="#ffffff"/><g id="Text" clip-path="url(#clip1_215_46185de0bf6a-a49b-4ef8-b110-4e25568c4992)"><rect id="Name" x="776" y="189.314" width="61" height="5.65701" rx="2.82851" fill="#c6d1d9"/><rect id="Name_2" x="776" y="198.742" width="40.9452" height="5.65701" rx="2.82851" fill="#c6d1d9"/></g><circle id="Avatar" cx="758" cy="196.857" r="12" fill="#c4cfd6"/></g><g id="Row_3"><rect id="Container_3" x="737" y="224" width="119" height="37.7059" rx="4" fill="#ffffff"/><g id="Text Stuff_2" clip-path="url(#clip2_215_46185de0bf6a-a49b-4ef8-b110-4e25568c4992)"><rect id="Label_3" x="746" y="235.314" width="61" height="5.65701" rx="2.82851" fill="#c6d1d9"/><rect id="Label_4" x="746" y="244.742" width="40.9452" height="5.65701" rx="2.82851" fill="#c6d1d9"/></g><g id="Check_2"><circle id="Background_3" cx="843.282" cy="242.857" r="7" fill="#c6d1d9"/><circle id="Indicator_2" cx="843.282" cy="242.857" r="3" fill="#f2f2f2"/></g></g><g id="Row_4"><rect id="Background_4" x="737" y="270" width="119" height="37.7059" rx="4" fill="#ffffff"/><g id="Text_2" clip-path="url(#clip3_215_46185de0bf6a-a49b-4ef8-b110-4e25568c4992)"><rect id="Name_3" x="776" y="281.314" width="61" height="5.65701" rx="2.82851" fill="#c6d1d9"/><rect id="Name_4" x="776" y="290.742" width="40.9452" height="5.65701" rx="2.82851" fill="#c6d1d9"/></g><circle id="Avatar_2" cx="758" cy="288.857" r="12" fill="#c4cfd6"/></g></g></g><g id="Mobile3_2"><rect id="Container_4" x="219" y="114" width="159" height="302" rx="8" fill="#f2f2f2"/><circle id="Touch_2" cx="298" cy="382" r="15" fill="#ffffff"/><g id="Camera_2"><circle id="Lens_2" cx="285" cy="132" r="2" fill="#ffffff"/><rect id="Sensor_2" x="292" y="130" width="21" height="4" rx="2" fill="#ffffff"/></g><g id="Rows_2"><g id="Row_5"><rect id="Background_5" x="233" y="142" width="131" height="54" rx="4" fill="#ffffff"/><g id="Text_3" clip-path="url(#clip4_215_46185de0bf6a-a49b-4ef8-b110-4e25568c4992)"><rect id="Name_5" x="272" y="158.2" width="73" height="8.1" rx="3" fill="#c6d1d9"/><rect id="Name_6" x="272" y="171.7" width="49" height="8.1" rx="3" fill="#c6d1d9"/></g><circle id="Avatar_3" cx="254" cy="169" r="12" fill="#c4cfd6"/></g><g id="Row_6"><rect id="Background_6" x="233" y="204" width="131" height="42" rx="4" fill="#ffffff"/><g id="Text_4" clip-path="url(#clip5_215_46185de0bf6a-a49b-4ef8-b110-4e25568c4992)"><rect id="Name_7" x="272" y="216.6" width="73" height="6.3" rx="3" fill="#c6d1d9"/><rect id="Name_8" x="272" y="227.1" width="49" height="6.3" rx="3" fill="#c6d1d9"/></g><circle id="Avatar_4" cx="254" cy="225" r="12" fill="#c4cfd6"/></g><g id="Row_7"><rect id="Background_7" x="233" y="254" width="131" height="42" rx="4" fill="#ffffff"/><g id="Text_5" clip-path="url(#clip6_215_46185de0bf6a-a49b-4ef8-b110-4e25568c4992)"><rect id="Name_9" x="272" y="266.6" width="73" height="6.3" rx="3" fill="#c6d1d9"/><rect id="Name_10" x="272" y="277.1" width="49" height="6.3" rx="3" fill="#c6d1d9"/></g><circle id="Avatar_5" cx="254" cy="275" r="12" fill="#aeb9c5"/></g><g id="Row_8"><rect id="Background_8" x="233" y="304" width="131" height="42" rx="4" fill="#ffffff"/><g id="Text_6" clip-path="url(#clip7_215_46185de0bf6a-a49b-4ef8-b110-4e25568c4992)"><rect id="Name_11" x="272" y="316.6" width="73" height="6.3" rx="3" fill="#c6d1d9"/><rect id="Name_12" x="272" y="327.1" width="49" height="6.3" rx="3" fill="#c6d1d9"/></g><circle id="Avatar_6" cx="254" cy="325" r="12" fill="#c4cfd6"/></g></g></g><g id="Web"><rect id="Container_5" x="384" y="191" width="335" height="346" rx="8" fill="#f2f2f2"/><rect id="Background_9" x="633" y="234" width="70" height="81" rx="8" fill="#ffffff"/><g id="Profile Info"><circle id="Avatar_7" cx="668" cy="265" r="16" fill="#c6d1d9"/><rect id="Name_13" x="643" y="285" width="50" height="6" rx="3" fill="#c6d1d9"/><rect id="Name_14" x="651" y="295" width="34" height="6" rx="3" fill="#c6d1d9"/></g><path id="Header" d="M384 199C384 194.582 387.582 191 392 191H711C715.418 191 719 194.582 719 199V218H384V199Z" fill="#c4cfd6"/><g id="Buttons"><circle id="buttons" cx="397" cy="205" r="4" fill="#f2f2f2"/><circle id="buttons_2" cx="409" cy="205" r="4" fill="#f2f2f2"/><circle id="buttons_3" cx="421" cy="205" r="4" fill="#f2f2f2"/></g><g id="Components"><rect id="Background_10" x="633" y="323" width="70" height="194" rx="8" fill="#ffffff"/><g id="Rows_3"><rect id="Data" x="651" y="341" width="34" height="26" rx="4" fill="#c6d1d9"/><rect id="Data_2" x="651" y="375" width="34" height="25" rx="4" fill="#aeb9c5"/><rect id="Data_3" x="651" y="408" width="34" height="25" rx="4" fill="#c6d1d9"/><rect id="Data_4" x="651" y="474" width="34" height="25" rx="4" fill="#c6d1d9"/><rect id="Data_5" x="651" y="441" width="34" height="25" rx="4" fill="#c4cfd6"/></g></g><g id="Rows_4"><g id="Row_9"><rect id="Container_6" x="400" y="235" width="225" height="47" rx="4" fill="#ffffff"/><g id="Text Stuff_3" clip-path="url(#clip8_215_46185de0bf6a-a49b-4ef8-b110-4e25568c4992)"><rect id="Label_5" x="409" y="249.1" width="167" height="7.05" rx="3" fill="#c6d1d9"/><rect id="Label_6" x="409" y="260.85" width="112.096" height="7.05" rx="3" fill="#c6d1d9"/></g><g id="Check_3"><circle id="Background_11" cx="600.954" cy="258.5" r="7" fill="#c6d1d9"/><circle id="Indicator_3" cx="600.954" cy="258.5" r="3" fill="#f2f2f2"/></g></g><g id="Row_10"><rect id="Container_7" x="400" y="290" width="225" height="39" rx="4" fill="#ffffff"/><g id="Text Stuff_4" clip-path="url(#clip9_215_46185de0bf6a-a49b-4ef8-b110-4e25568c4992)"><rect id="Label_7" x="409" y="301.7" width="167" height="5.85" rx="2.925" fill="#c6d1d9"/><rect id="Label_8" x="409" y="311.45" width="112.096" height="5.85" rx="2.925" fill="#c6d1d9"/></g><g id="Check_4"><circle id="Background_12" cx="600.954" cy="309.5" r="7" fill="#c6d1d9"/><circle id="Indicator_4" cx="600.954" cy="309.5" r="3" fill="#f2f2f2"/></g></g><g id="Row_11"><rect id="Container_8" x="400" y="337" width="225" height="39" rx="4" fill="#ffffff"/><g id="Text Stuff_5" clip-path="url(#clip10_215_46185de0bf6a-a49b-4ef8-b110-4e25568c4992)"><rect id="Label_9" x="409" y="348.7" width="167" height="5.85" rx="2.925" fill="#c6d1d9"/><rect id="Label_10" x="409" y="358.45" width="112.096" height="5.85" rx="2.925" fill="#c6d1d9"/></g><g id="Check_5"><circle id="Background_13" cx="600.954" cy="356.5" r="7" fill="#c6d1d9"/><circle id="Indicator_5" cx="600.954" cy="356.5" r="3" fill="#aeb9c5"/></g></g><g id="Row_12"><rect id="Container_9" x="400" y="478" width="225" height="39" rx="4" fill="#ffffff"/><g id="Text Stuff_6" clip-path="url(#clip11_215_46185de0bf6a-a49b-4ef8-b110-4e25568c4992)"><rect id="Label_11" x="409" y="489.7" width="167" height="5.85" rx="2.925" fill="#c6d1d9"/><rect id="Label_12" x="409" y="499.45" width="112.096" height="5.85" rx="2.925" fill="#c6d1d9"/></g><g id="Check_6"><circle id="Background_14" cx="600.954" cy="497.5" r="7" fill="#c6d1d9"/><circle id="Indicator_6" cx="600.954" cy="497.5" r="3" fill="#f2f2f2"/></g></g><g id="Row_13"><rect id="Container_10" x="400" y="431" width="225" height="39" rx="4" fill="#ffffff"/><g id="Text Stuff_7" clip-path="url(#clip12_215_46185de0bf6a-a49b-4ef8-b110-4e25568c4992)"><rect id="Label_13" x="409" y="442.7" width="167" height="5.85" rx="2.925" fill="#c6d1d9"/><rect id="Label_14" x="409" y="452.45" width="112.096" height="5.85" rx="2.925" fill="#c6d1d9"/></g><g id="Check_7"><circle id="Background_15" cx="600.954" cy="450.5" r="7" fill="#c6d1d9"/><circle id="Indicator_7" cx="600.954" cy="450.5" r="3" fill="#f2f2f2"/></g></g><g id="Row_14"><rect id="Container_11" x="400" y="384" width="225" height="39" rx="4" fill="#ffffff"/><g id="Text Stuff_8" clip-path="url(#clip13_215_46185de0bf6a-a49b-4ef8-b110-4e25568c4992)"><rect id="Label_15" x="409" y="395.7" width="167" height="5.85" rx="2.925" fill="#c6d1d9"/><rect id="Label_16" x="409" y="405.45" width="112.096" height="5.85" rx="2.925" fill="#c6d1d9"/></g><g id="Check_8"><circle id="Background_16" cx="600.954" cy="403.5" r="7" fill="#c6d1d9"/><circle id="Indicator_8" cx="600.954" cy="403.5" r="3" fill="#f2f2f2"/></g></g></g></g><g id="Graph"><rect id="Value" x="520" y="146" width="6" height="25" rx="3" fill="#c6d1d9"/><rect id="Value_2" x="534" y="130" width="6" height="41" rx="3" fill="#c6d1d9"/><rect id="Value_3" x="548" y="122" width="6" height="49" rx="3" fill="#c6d1d9"/><rect id="Value_4" x="562" y="130" width="6" height="41" rx="3" fill="#c6d1d9"/><rect id="Value_5" x="576" y="114" width="6" height="57" rx="3" fill="#c4cfd6"/></g><g id="Chart"><path id="Value_6" fill-rule="evenodd" clip-rule="evenodd" d="M838.766 504.179C836.845 506.219 834.123 507.5 831.095 507.5C825.278 507.5 820.562 502.799 820.562 497C820.562 491.201 825.278 486.5 831.095 486.5V467C814.546 467 801 480.503 801 497C801 513.497 814.546 527 831.095 527C839.788 527 847.645 523.334 853 517.502L838.766 504.179Z" fill="#f2f2f2"/><path id="Value_7" fill-rule="evenodd" clip-rule="evenodd" d="M831 467V486.5C836.799 486.5 841.5 491.201 841.5 497H861C861 480.503 847.497 467 831 467Z" fill="#aeb9c5"/><path id="Value_8" fill-rule="evenodd" clip-rule="evenodd" d="M841.097 497C841.097 500.407 839.492 503.435 837 505.391L849.262 521C856.399 515.412 861 506.749 861 497H841.097Z" fill="#c4cfd6"/></g><g id="Chart_2"><path id="Value_9" fill-rule="evenodd" clip-rule="evenodd" d="M170.051 259.504C168.573 261.068 166.479 262.05 164.15 262.05C159.675 262.05 156.048 258.446 156.048 254C156.048 249.554 159.675 245.95 164.15 245.95V231C151.42 231 141 241.352 141 254C141 266.648 151.42 277 164.15 277C170.837 277 176.88 274.189 181 269.718L170.051 259.504Z" fill="#f2f2f2"/><path id="Value_10" fill-rule="evenodd" clip-rule="evenodd" d="M164 231V245.95C168.446 245.95 172.05 249.554 172.05 254H187C187 241.352 176.648 231 164 231Z" fill="#aeb9c5"/><path id="Value_11" fill-rule="evenodd" clip-rule="evenodd" d="M172.073 254C172.073 256.555 170.869 258.827 169 260.293L178.196 272C183.55 267.809 187 261.312 187 254H172.073Z" fill="#c4cfd6"/></g><g id="Image"><path id="Fill 35" fill-rule="evenodd" clip-rule="evenodd" d="M866.007 240.986C866.003 240.996 865.999 241.006 865.993 241.018C865.999 241.008 866.007 240.968 866.007 240.986" fill="#c4cfd6"/><path id="Fill 37" fill-rule="evenodd" clip-rule="evenodd" d="M865.998 241.001C865.998 241.003 865.996 241.007 865.996 241.011C865.996 241.001 866.014 240.971 865.998 241.001" fill="#c4cfd6"/><path id="Fill 39" fill-rule="evenodd" clip-rule="evenodd" d="M866.067 240.832C866.053 240.872 866.035 240.91 866.019 240.95C866.027 240.93 866.035 240.914 866.043 240.894C865.835 241.414 865.967 241.076 866.067 240.832" fill="#c4cfd6"/><path id="Fill 41" fill-rule="evenodd" clip-rule="evenodd" d="M866.022 240.953C866.014 240.971 866.006 240.991 865.998 241.009C865.94 241.121 866.022 240.953 866.022 240.953" fill="#c4cfd6"/><path id="Fill 45" fill-rule="evenodd" clip-rule="evenodd" d="M865.999 241.002C865.999 241 865.999 241 866.001 240.998C865.999 241 865.999 241 865.999 241.002" fill="#c4cfd6"/><path id="Fill 47" fill-rule="evenodd" clip-rule="evenodd" d="M865.99 241.016C865.978 241.04 866.046 240.924 865.99 241.016Z" fill="#c4cfd6"/><path id="Fill 49" fill-rule="evenodd" clip-rule="evenodd" d="M865.998 241.002L866.002 240.998C866 241 866 241.002 865.998 241.002" fill="#c4cfd6"/><rect id="Photo Background" x="818" y="189" width="95" height="63" rx="4" fill="#c4cfd6"/><path id="Mountains" fill-rule="evenodd" clip-rule="evenodd" d="M854 207L826 252H882L854 207Z" fill="#aeb9c5"/><path id="Mountains_2" fill-rule="evenodd" clip-rule="evenodd" d="M881.5 219L857 252H906L881.5 219Z" fill="#aeb9c5"/><circle id="Sun" cx="892" cy="210" r="9" fill="#ffffff"/></g><g id="Image_2"><path id="Fill 35_2" fill-rule="evenodd" clip-rule="evenodd" d="M218.993 556.986C218.997 556.996 219.001 557.006 219.007 557.018C219.001 557.008 218.993 556.968 218.993 556.986" fill="#c4cfd6"/><path id="Fill 37_2" fill-rule="evenodd" clip-rule="evenodd" d="M219.002 557.001C219.002 557.003 219.004 557.007 219.004 557.011C219.004 557.001 218.986 556.971 219.002 557.001" fill="#c4cfd6"/><path id="Fill 39_2" fill-rule="evenodd" clip-rule="evenodd" d="M218.933 556.832C218.947 556.872 218.965 556.91 218.981 556.95C218.973 556.93 218.965 556.914 218.957 556.894C219.165 557.414 219.033 557.076 218.933 556.832" fill="#c4cfd6"/><path id="Fill 41_2" fill-rule="evenodd" clip-rule="evenodd" d="M218.978 556.953C218.986 556.971 218.994 556.991 219.002 557.009C219.06 557.121 218.978 556.953 218.978 556.953" fill="#c4cfd6"/><path id="Fill 45_2" fill-rule="evenodd" clip-rule="evenodd" d="M219.001 557.002C219.001 557 219.001 557 218.999 556.998C219.001 557 219.001 557 219.001 557.002" fill="#c4cfd6"/><path id="Fill 47_2" fill-rule="evenodd" clip-rule="evenodd" d="M219.01 557.016C219.022 557.04 218.954 556.924 219.01 557.016Z" fill="#c4cfd6"/><path id="Fill 49_2" fill-rule="evenodd" clip-rule="evenodd" d="M219.002 557.002L218.998 556.998C219 557 219 557.002 219.002 557.002" fill="#c4cfd6"/><rect id="Photo Background_2" width="142" height="94" rx="4" transform="matrix(-1 0 0 1 290 480)" fill="#c6d1d9"/><path id="Mountains_3" fill-rule="evenodd" clip-rule="evenodd" d="M237.274 507L278.329 574H196.219L237.274 507Z" fill="#aeb9c5"/><path id="Mountains_4" fill-rule="evenodd" clip-rule="evenodd" d="M194.944 524.947L231.239 574H158.649L194.944 524.947Z" fill="#c4cfd6"/><circle id="Sun_2" r="13.5" transform="matrix(-1 0 0 1 179.5 511.5)" fill="#ffffff"/></g></g><defs><clipPath id="clip0_215_46185de0bf6a-a49b-4ef8-b110-4e25568c4992"><rect width="61" height="20.4" fill="#ffffff" transform="translate(746 134.228)"/></clipPath><clipPath id="clip1_215_46185de0bf6a-a49b-4ef8-b110-4e25568c4992"><rect width="61" height="15.5897" fill="#ffffff" transform="translate(776 189.314)"/></clipPath><clipPath id="clip2_215_46185de0bf6a-a49b-4ef8-b110-4e25568c4992"><rect width="61" height="15.5897" fill="#ffffff" transform="translate(746 235.314)"/></clipPath><clipPath id="clip3_215_46185de0bf6a-a49b-4ef8-b110-4e25568c4992"><rect width="61" height="15.5897" fill="#ffffff" transform="translate(776 281.314)"/></clipPath><clipPath id="clip4_215_46185de0bf6a-a49b-4ef8-b110-4e25568c4992"><rect width="73" height="21.6" fill="#ffffff" transform="translate(272 158.2)"/></clipPath><clipPath id="clip5_215_46185de0bf6a-a49b-4ef8-b110-4e25568c4992"><rect width="73" height="16.8" fill="#ffffff" transform="translate(272 216.6)"/></clipPath><clipPath id="clip6_215_46185de0bf6a-a49b-4ef8-b110-4e25568c4992"><rect width="73" height="16.8" fill="#ffffff" transform="translate(272 266.6)"/></clipPath><clipPath id="clip7_215_46185de0bf6a-a49b-4ef8-b110-4e25568c4992"><rect width="73" height="16.8" fill="#ffffff" transform="translate(272 316.6)"/></clipPath><clipPath id="clip8_215_46185de0bf6a-a49b-4ef8-b110-4e25568c4992"><rect width="167" height="18.8" fill="#ffffff" transform="translate(409 249.1)"/></clipPath><clipPath id="clip9_215_46185de0bf6a-a49b-4ef8-b110-4e25568c4992"><rect width="167" height="15.6" fill="#ffffff" transform="translate(409 301.7)"/></clipPath><clipPath id="clip10_215_46185de0bf6a-a49b-4ef8-b110-4e25568c4992"><rect width="167" height="15.6" fill="#ffffff" transform="translate(409 348.7)"/></clipPath><clipPath id="clip11_215_46185de0bf6a-a49b-4ef8-b110-4e25568c4992"><rect width="167" height="15.6" fill="#ffffff" transform="translate(409 489.7)"/></clipPath><clipPath id="clip12_215_46185de0bf6a-a49b-4ef8-b110-4e25568c4992"><rect width="167" height="15.6" fill="#ffffff" transform="translate(409 442.7)"/></clipPath><clipPath id="clip13_215_46185de0bf6a-a49b-4ef8-b110-4e25568c4992"><rect width="167" height="15.6" fill="#ffffff" transform="translate(409 395.7)"/></clipPath></defs></g><g id="Master/Pose/Standing" transform="matrix(-1 0 0 1 878 214) scale(1 1)"><g id="Master/Pose/Standing"><g id="Head/Front" transform="translate(82 0) scale(1 1)"><g id="Head/Front/Airy"><g id="Head"><path id="SKIN" fill-rule="evenodd" clip-rule="evenodd" d="M73.9354 75.2443C80.411 79.1475 86.7736 81.0333 89.7603 80.2635C97.2496 78.333 97.9382 50.9351 92.1433 40.1339C86.3485 29.3328 56.5583 24.625 55.0568 46.0255C54.5356 53.4529 57.6544 60.0814 62.2623 65.4901L54 104H78L73.9354 75.2443Z" fill="#dcae92"/></g><path id="hair" fill-rule="evenodd" clip-rule="evenodd" d="M78.4639 27.6853C75.3008 27.1665 66.7839 26.8099 65.2133 26.8101C64.2096 26.8101 63.1218 27.0394 62.5273 26.1178C62.0405 25.3631 62.2189 24.0867 62.0736 23.2109C61.9049 22.1935 61.6652 21.1892 61.4229 20.1874C60.7331 17.3369 59.6901 14.625 58.2308 12.0788C55.4925 7.30188 51.4811 3.56011 46.4167 1.38278C40.8243 -1.02134 34.496 -1.57183 28.4805 -1.08419C22.0431 -0.562477 16.2159 1.56259 10.138 3.56241C4.34604 5.46806 -1.7204 6.21817 -7.77811 5.28756C-13.8815 4.35004 -18.4932 1.04203 -23.6413 -2.09768C-28.9115 -5.31199 -34.9343 -7.41426 -41.1646 -6.931C-46.9804 -6.47974 -52.3406 -4.07839 -57.1497 -0.870532C-61.6491 2.13081 -65.3617 5.74181 -67.4578 10.824C-69.7127 16.2909 -69.7106 22.2918 -66.0026 27.1233C-60.6279 34.1265 -50.6501 35.9376 -42.349 35.7575C-37.5475 35.6537 -32.8318 34.7772 -28.2986 33.1828C-22.2531 31.0564 -17.0288 27.4523 -11.373 24.528C-8.71872 23.1558 -5.97516 22.0288 -3.0994 21.217C-0.308797 20.4289 2.43981 20.0675 4.96645 21.7533C7.63931 23.5367 10.0344 25.2885 13.0922 26.4049C16.0256 27.476 19.1327 28.075 22.258 28.0509C28.3386 28.0039 34.3328 26.1093 40.2385 24.8402C45.0545 23.8056 50.2074 22.7743 55.1173 23.769C57.166 24.1841 60.1586 25.041 60.8986 27.1702C48.4442 29.4274 43.5527 44.8302 47.0638 56.1372C48.9588 62.24 60.3498 69.3742 64.7788 66.1658C67.5847 64.1333 65.8812 61.4648 64.7788 59.7033C62.6676 56.3299 61.9453 51.9967 65.8518 49.648C69.2215 47.6224 72.7646 52.4327 72.8316 52.4274C73.7577 52.3544 81.7604 47.8285 87.2742 41.2241C92.7135 41.5466 93.5387 37.96 92.2399 35.0269C90.9411 32.0938 82.8344 28.4024 78.4639 27.6853Z" fill="#181658"/></g></g><g id="Lower Body/Standing" transform="translate(0 187) scale(1 1)"><g id="Lower Body/Standing/Baggy Pants"><path id="SKIN" fill-rule="evenodd" clip-rule="evenodd" d="M134 0L183.082 124.227L216.001 229.25H229L176.674 0L134 0Z" fill="#dcae92"/><path id="SKIN" fill-rule="evenodd" clip-rule="evenodd" d="M124.117 0C123.594 43.6542 115.972 102.427 114.754 105.149C113.536 107.87 30.6758 174.358 30.6758 174.358L39.629 183.939C39.629 183.939 137.397 126.934 141.921 119.331C146.445 111.728 161.174 41.7631 173 0H124.117Z" fill="#dcae92"/><g id="Left [Shoe]"><path id="shoe" fill-rule="evenodd" clip-rule="evenodd" d="M32.116 172.564C31.7884 171.44 30.604 170.771 29.5042 171.173C27.4981 171.906 24.5641 173.092 23.2642 174.183C21.1921 175.922 17.7961 179.948 17.7961 179.948C19.8131 182.352 54.0505 223.154 54.0505 223.154C54.0505 223.154 61.0315 220.166 58.4307 216.165C55.8299 212.164 54.1738 209.464 54.1738 209.464L46.2757 181.87C46.1206 181.328 45.549 181.022 45.012 181.192L40.7975 182.529C40.7975 182.529 36.4116 180.485 34.6494 178.384C33.5766 177.106 32.665 174.448 32.116 172.564Z" fill="#e3e4e4"/></g><g id="Right {Shoe]"><path id="shoe_2" fill-rule="evenodd" clip-rule="evenodd" d="M213.45 223.284C212.378 222.813 211.104 223.29 210.705 224.391C209.977 226.398 209 229.409 209 231.106C209 233.811 209.901 239 209.901 239C213.039 239 266.303 239 266.303 239C266.303 239 268.502 231.732 263.765 231.152C259.028 230.573 255.895 230.106 255.895 230.106L229.68 218.419C229.165 218.189 228.563 218.43 228.348 218.951L226.663 223.039C226.663 223.039 222.278 225.085 219.537 225.085C217.868 225.085 215.246 224.074 213.45 223.284Z" fill="#e3e4e4"/></g><path id="Pant" fill-rule="evenodd" clip-rule="evenodd" d="M167 218.433L228.804 211.725L179 0H127.644L167 218.433Z" fill="#c4c4c4"/><path id="Pant" fill-rule="evenodd" clip-rule="evenodd" d="M43.46 158.9L84 206.886C84 206.886 148.05 136.932 158.683 115.596C169.315 94.26 177.799 0 177.799 0H115.478C115.478 0 110.844 82.9258 109.231 86.7848C107.617 90.6437 43.46 158.9 43.46 158.9Z" fill="#ffffff"/></g></g><g id="Upper Body" transform="translate(22 82) scale(1 1)"><g id="Upper Body/Trench Coat"><path id="SKIN" fill-rule="evenodd" clip-rule="evenodd" d="M24.0271 138.201C27.9454 132.855 51.5391 75.3752 51.5391 75.3752L69.1504 78.564C69.1504 78.564 38.4903 139.405 36.3073 142.902C33.4714 147.445 35.5707 155.142 36.9942 160.361C37.2144 161.169 37.4184 161.917 37.5855 162.585C34.1826 163.44 32.9683 161.467 31.6882 159.387C30.2422 157.037 28.7122 154.551 23.8497 155.85C21.9711 156.351 20.1598 157.017 18.3901 157.667C12.2774 159.912 6.66196 161.974 0.486925 156.477C-0.492045 155.606 -1.24581 152.841 2.01427 151.36C10.1363 147.669 22.1115 140.815 24.0271 138.201ZM227.788 108.555L195.89 85.1316L188.838 102.563L220.426 115.661C229.359 126.155 234.355 130.53 235.412 128.785C236.304 127.314 235.607 125.937 234.965 124.669C234.465 123.681 233.998 122.758 234.342 121.909C235.126 119.97 241.127 120.174 246.814 120.611C252.5 121.048 250.843 118.518 249.472 117.269C243.667 113.794 236.439 110.89 227.788 108.555Z" fill="#dcae92"/><path id="Back Arm" fill-rule="evenodd" clip-rule="evenodd" d="M138.264 2.0415L127.569 6.42763C127.681 9.22099 127.67 13.1947 127.658 17.7472C127.618 32.036 127.562 52.0268 131.254 59.1216C144.043 83.7012 170.303 96.5048 199.551 110.765C203.471 112.676 207.445 114.614 211.448 116.61L219.495 100.182C218.563 99.521 217.639 98.8566 216.723 98.1885C217.987 97.7455 219.042 96.7451 219.503 95.3772C220.296 93.022 219.03 90.4694 216.675 89.6759C211.889 88.0632 207.424 87.3833 203.32 87.678C173.349 62.4233 153.173 32.8583 138.264 2.0415Z" fill="#078135"/><path id="Shirt" fill-rule="evenodd" clip-rule="evenodd" d="M90 113.91C90 113.91 137.157 119.09 164.236 113.91C166.473 113.482 166.375 103.84 165.337 101.207C149.185 60.2019 138.56 30.184 138.56 1.70264C134.115 4.02478 123 2.39864 123 2.39864C103.086 31.7496 93.9325 65.4265 90 113.91Z" fill="#191847"/><path id="Coat Front" fill-rule="evenodd" clip-rule="evenodd" d="M30.1925 114.406C57.9812 34.9799 114.976 0 114.976 0H116.532H120.377H126.348C125.06 17.0357 131.113 41.826 138.134 70.5842C149.364 116.577 163.071 172.719 153.191 223.518C141.042 226.231 126.766 224.379 111.312 222.374C89.0082 219.479 64.2489 216.267 39.8828 226C40.8222 205.65 52.7036 183.124 64.5315 160.699C72.0289 146.484 79.5048 132.31 84.1585 118.758C83.0909 117.753 82.5343 116.247 82.8078 114.696L83.3288 111.741C83.6818 109.739 85.3078 108.281 87.2277 108.053C87.5633 106.553 87.8527 105.063 88.0917 103.583C89.3128 96.0246 88.5333 88.5548 87.7625 81.169L87.7624 81.1688C87.3392 77.1137 86.9187 73.084 86.8334 69.0787C73.4403 81.0101 57.228 101.813 43.5479 137.871L24.6611 132.313C25.3833 129.63 26.1401 126.991 26.9288 124.396C24.7427 123.191 22.1654 117.47 24.0066 116.516C25.952 115.508 28.0161 114.807 30.1925 114.406Z" fill="#2cba68"/><path id="Shade Lapel" fill-rule="evenodd" clip-rule="evenodd" d="M119.106 1L113.947 16.8654L124.336 28.759L114.947 38.1055L137.662 77L109.884 38.1832L119.106 28.759L109.884 18.2485L119.106 1Z" fill="#000000" fill-opacity="0.1"/><path id="Buttons" fill-rule="evenodd" clip-rule="evenodd" d="M135 88C135 90.2091 133.209 92 131 92C128.791 92 127 90.2091 127 88C127 85.7909 128.791 84 131 84C133.209 84 135 85.7909 135 88ZM140 111C140 113.209 138.209 115 136 115C133.791 115 132 113.209 132 111C132 108.791 133.791 107 136 107C138.209 107 140 108.791 140 111ZM137 138C139.209 138 141 136.209 141 134C141 131.791 139.209 130 137 130C134.791 130 133 131.791 133 134C133 136.209 134.791 138 137 138Z" fill="#000000" fill-opacity="0.4"/></g></g></g></g><g id="Master/Pose/Sitting" transform="translate(378 214) scale(1 1)"><g id="Master/Pose/Sitting"><g id="Head/Front" transform="translate(38 73) scale(1 1)"><g id="Head/Front/Top"><g id="Head"><path id="SKIN" fill-rule="evenodd" clip-rule="evenodd" d="M73.9354 75.2443C80.411 79.1475 86.7736 81.0333 89.7603 80.2635C97.2496 78.333 97.9382 50.9351 92.1433 40.1339C86.3485 29.3328 56.5583 24.625 55.0568 46.0255C54.5356 53.4529 57.6544 60.0814 62.2623 65.4901L54 104H78L73.9354 75.2443Z" fill="#57331f"/></g><path id="Hair" fill-rule="evenodd" clip-rule="evenodd" d="M53.6546 45.9098C53.1113 45.9694 52.5592 46 52 46C43.7157 46 37 39.2843 37 31C37 22.7157 43.7157 16 52 16C60.213 16 66.8843 22.6007 66.9985 30.7866C79.0551 26.6097 94.7009 31.4907 92.6071 41.2807C91.3224 47.2878 84.6174 50.4218 77.7742 53.6204C77.456 53.7692 77.1374 53.9181 76.8191 54.0674C75.7648 52.2369 73.7539 51 71.4467 51C68.0465 51 65.29 53.6863 65.29 57C65.29 58.1936 65.6477 59.3058 66.2642 60.2404C63.8546 62.3365 62.1544 64.8595 61.7432 68.1318C57.8595 68.1318 51.5822 56.7286 53.6546 45.9098Z" fill="#e7e1e1"/></g></g><g id="Lower Body/Sitting" transform="translate(-44 260) scale(1 1)"><g id="Lower Body/Sitting/Sweat Pants"><g id="Seat"><ellipse id="Ballsy Ball" cx="126" cy="100.5" rx="77" ry="73.5" fill="#c4cfd6"/></g><path id="SKIN" fill-rule="evenodd" clip-rule="evenodd" d="M245.711 96.5801C249.43 109.608 258.697 134.302 271.509 162.66L283.685 159.107C273.033 93.8526 264.168 50.6508 259.09 37.5018C255.735 28.8143 230.353 29.8322 233.273 47.3128C234.498 54.6433 239.343 74.2726 245.711 96.5801ZM195.667 50.3613C175.812 54.4749 134.644 69.0168 122.888 73.6636C115.5 76.5839 120.263 86.488 126.566 85.6215C127.633 85.4748 131.41 85.0523 137.044 84.422C155.142 82.3973 192.412 78.2278 220.679 74.1596C235.563 72.0174 227.556 44.138 212.102 47.0883C206.903 48.0808 201.373 49.1792 195.667 50.3613Z" fill="#57331f"/><path id="Leg Back" fill-rule="evenodd" clip-rule="evenodd" d="M259.869 30.1378C257.839 23.5136 165.562 0 165.562 0H158V7.04672L221.587 39.4163C221.503 40.4607 221.554 41.5648 221.759 42.729C221.3 66.7257 231.571 84.6527 241.739 102.402C248.389 114.008 254.994 125.539 258.528 138.641L281.889 135.156C281.209 133.416 280.133 125.568 278.661 114.839C274.952 87.7851 268.729 42.4086 260 30.4032C259.97 30.3613 259.939 30.3197 259.907 30.2783C259.896 30.2314 259.883 30.1846 259.869 30.1378Z" fill="#56919c"/><path id="Leg Front" fill-rule="evenodd" clip-rule="evenodd" d="M163.283 58.6405C157.465 57.4758 152.107 56.4364 147.523 55.6323C117.909 50.4381 109.274 34.5863 114.38 0H168.942C177.855 2.56032 224.174 21.9848 248.207 32.3163C264.113 39.1543 259.099 63.8045 250.091 70.2195C250.042 70.613 249.88 70.8804 249.591 71C215.44 85.1543 186.318 84.0982 167.617 83.4201C159.784 83.136 153.78 82.9183 150 83.9122L144.077 65.2284L163.283 58.6405Z" fill="#89c5cc"/><g id="Left [shoe]"><path id="shoe" fill-rule="evenodd" clip-rule="evenodd" d="M129.127 72.6947C129.081 71.5247 128.094 70.5893 126.93 70.7131C124.806 70.9388 121.672 71.3803 120.147 72.1242C117.716 73.3099 113.446 76.3949 113.446 76.3949C114.822 79.2152 138.171 127.088 138.171 127.088C138.171 127.088 145.668 125.878 144.112 121.367C142.557 116.855 141.603 113.835 141.603 113.835L140.615 85.1497C140.596 84.5867 140.115 84.1508 139.553 84.1861L135.14 84.4634C135.14 84.4634 131.379 81.4191 130.177 78.955C129.446 77.4549 129.204 74.6555 129.127 72.6947Z" fill="#e3e4e4"/></g><g id="Right [shoe]"><path id="shoe_2" fill-rule="evenodd" clip-rule="evenodd" d="M268.45 156.284C267.378 155.813 266.104 156.29 265.705 157.391C264.977 159.398 264 162.409 264 164.106C264 166.811 264.901 172 264.901 172C268.039 172 321.303 172 321.303 172C321.303 172 323.502 164.732 318.765 164.152C314.028 163.573 310.895 163.106 310.895 163.106L284.68 151.419C284.165 151.189 283.563 151.43 283.348 151.951L281.663 156.039C281.663 156.039 277.278 158.085 274.537 158.085C272.868 158.085 270.246 157.074 268.45 156.284Z" fill="#e3e4e4"/></g></g></g><g id="Upper Body" transform="translate(-22 155) scale(1 1)"><g id="Upper Body/Pointing Forward"><path id="SKIN" fill-rule="evenodd" clip-rule="evenodd" d="M193.348 23.6899L158.638 42.7003L171.456 56.4577L196.677 33.3653C209.963 29.7037 216.039 27.0251 214.904 25.3294C213.948 23.8997 212.405 23.9494 210.985 23.9951C209.878 24.0307 208.845 24.064 208.22 23.3937C206.794 21.8628 209.515 16.5104 212.315 11.5416C215.114 6.57269 212.121 7.00525 210.409 7.7199C204.807 11.5123 199.12 16.8356 193.348 23.6899ZM228.246 50.3643L213 58.7399L213.868 74.0403C213.868 74.0403 223.743 66.9131 232.238 64.5444C243.07 61.5241 247.453 59.2177 252.746 52.4731C255.578 48.8645 257.982 41.6102 255.286 39.2477C254.252 38.3414 250.399 40.4824 246.468 42.667C243.472 44.3319 240.43 46.022 238.556 46.4078C236.034 46.9272 236.329 43.6574 236.565 41.0446C236.734 39.1697 236.873 37.633 235.918 38.0773C231.455 38.1538 228.246 50.3643 228.246 50.3643Z" fill="#3d2216"/><g id="Group 3"><path id="Mask" fill-rule="evenodd" clip-rule="evenodd" d="M141.734 38.4654C153.892 38.337 170.104 35.7692 187.403 24.7888L194.196 39.9387C182.264 51.7804 165.486 61.5097 150.816 61.0977C139.255 60.7731 133.347 46.7892 141.734 38.4654Z" fill="#ba470b"/><mask id="mask0_215_4854178b7830-e850-4c50-90e5-3467f79750f2" style="mask-type:alpha" maskUnits="userSpaceOnUse" x="137" y="24" width="58" height="38" fill="#ffffff"><path id="Mask" fill-rule="evenodd" clip-rule="evenodd" d="M141.734 38.4654C153.892 38.337 170.104 35.7692 187.403 24.7888L194.196 39.9387C182.264 51.7804 165.486 61.5097 150.816 61.0977C139.255 60.7731 133.347 46.7892 141.734 38.4654Z" fill="#ffffff"/></mask><g mask="url(#mask0_215_4854178b7830-e850-4c50-90e5-3467f79750f2)"/></g><g id="Group 27"><path id="Mask" fill-rule="evenodd" clip-rule="evenodd" d="M108.945 142.259C97.3866 140.752 86.7664 139.367 80.4728 140.606C73.4113 117.673 79.2749 103.234 84.6879 89.9046C87.9502 81.871 91.0489 74.2405 91.0555 65.3966C91.0748 39.6422 111.754 0 114.797 0H115.67H139.783H142.544C143.784 15.9374 149.079 33.193 154.407 50.5596C155.652 54.6153 156.898 58.6769 158.095 62.7293C178.26 67.3065 223.036 51.3734 223.036 51.3734C223.036 51.3734 234.34 74.7586 233.487 84.7171C207.424 98.331 185.087 104.401 166.683 104.802C167.268 115.721 165.939 126.112 161.474 135.606C155.491 148.327 130.576 145.079 108.945 142.259Z" fill="#fe7e10"/><mask id="mask1_215_4854178b7830-e850-4c50-90e5-3467f79750f2" style="mask-type:alpha" maskUnits="userSpaceOnUse" x="77" y="0" width="157" height="145" fill="#ffffff"><path id="Mask_2" fill-rule="evenodd" clip-rule="evenodd" d="M108.945 142.259C97.3866 140.752 86.7664 139.367 80.4728 140.606C73.4113 117.673 79.2749 103.234 84.6879 89.9046C87.9502 81.871 91.0489 74.2405 91.0555 65.3966C91.0748 39.6422 111.754 0 114.797 0H115.67H139.783H142.544C143.784 15.9374 149.079 33.193 154.407 50.5596C155.652 54.6153 156.898 58.6769 158.095 62.7293C178.26 67.3065 223.036 51.3734 223.036 51.3734C223.036 51.3734 234.34 74.7586 233.487 84.7171C207.424 98.331 185.087 104.401 166.683 104.802C167.268 115.721 165.939 126.112 161.474 135.606C155.491 148.327 130.576 145.079 108.945 142.259Z" fill="#ffffff"/></mask><g mask="url(#mask1_215_4854178b7830-e850-4c50-90e5-3467f79750f2)"/></g></g></g></g></g><g id="Master/Pose/Standing" transform="translate(170 214) scale(1 1)"><g id="Master/Pose/Standing"><g id="Head/Front" transform="translate(82 0) scale(1 1)"><g id="Head/Front/Short Beard"><g id="Head"><path id="SKIN" fill-rule="evenodd" clip-rule="evenodd" d="M73.9354 75.2443C80.411 79.1475 86.7736 81.0333 89.7603 80.2635C97.2496 78.333 97.9382 50.9351 92.1433 40.1339C86.3485 29.3328 56.5583 24.625 55.0568 46.0255C54.5356 53.4529 57.6544 60.0814 62.2623 65.4901L54 104H78L73.9354 75.2443Z" fill="#b28b68"/></g><path id="Hair" fill-rule="evenodd" clip-rule="evenodd" d="M71.7199 51.0426C71.4839 51.0144 71.2437 50.9999 71.0001 50.9999C67.6864 50.9999 65.0001 53.6862 65.0001 56.9999C65.0001 58.6821 65.6924 60.2026 66.8076 61.2921C65.4193 63.2517 63.8634 65.2988 62.0805 67.4111C55.3825 63.3926 49.4122 50.6289 55.9606 39.3282C57.7706 33.7921 62.8681 31.8351 67.7075 30.4621C71.6276 28.8223 75.697 28.6374 79.1322 29.6205C85.8661 30.198 91.8791 32.2514 93.5833 33.4708C93.5833 39.8461 92.348 41.7376 81.7969 41.5708C79.2043 42.94 77.2113 45.2978 75.1354 48.3888C75.1527 48.626 76.5501 67.5846 82.4259 67.5846C85.9827 67.5846 89.2152 66.2263 91.7912 65.1439C93.4976 64.4269 94.9159 63.8309 95.9497 63.8309C97.8409 63.8309 97.4187 66.1976 96.1651 67.9524C95.7677 68.5086 94.7795 69.0571 93.7132 69.6489C92.004 70.5976 90.094 71.6578 90.094 73.0399C90.094 74.3079 91.3641 74.3054 92.4692 74.3032C93.3203 74.3015 94.0735 74.3 94.0735 74.8791C94.0735 75.1563 94.0846 75.4642 94.0963 75.7907C94.1779 78.0577 94.2918 81.2209 90.9513 81.2209C87.0838 81.2209 75.9949 79.8115 74.0945 74.0714C72.4826 69.2025 71.8691 55.1856 71.7199 51.0426Z" fill="#2c1b18"/></g></g><g id="Lower Body/Standing" transform="translate(0 187) scale(1 1)"><g id="Lower Body/Standing/Sprint"><path id="SKIN" fill-rule="evenodd" clip-rule="evenodd" d="M116.644 9.27652e-05C118.447 24.6097 234.607 97.0636 235.284 99.0965C235.736 100.452 199.128 184.778 199.128 184.778L209.282 188.724C209.282 188.724 265.433 99.4162 262.549 89.9001C258.419 76.2758 172.422 0.261797 172.422 0.261797L116.644 9.27652e-05Z" fill="#b28b68"/><path id="shadow" fill-rule="evenodd" clip-rule="evenodd" d="M116.644 9.27652e-05C118.447 24.6097 234.607 97.0636 235.284 99.0965C235.736 100.452 199.128 184.778 199.128 184.778L209.282 188.724C209.282 188.724 265.433 99.4162 262.549 89.9001C258.419 76.2758 172.422 0.261797 172.422 0.261797L116.644 9.27652e-05Z" fill="#000000" fill-opacity="0.1"/><path id="Pant" fill-rule="evenodd" clip-rule="evenodd" d="M201.8 172.082L218.379 178.117C253.336 138.674 267.038 106.131 264.54 89.5493C262.042 72.9678 174.724 0.0603902 174.724 0.0603902L115.455 0.0603841C117.477 57.0526 225.143 99.3135 226.583 101.742C228.023 104.171 213.851 127.957 201.8 172.082Z" fill="#191847"/><g id="Right [shoe]"><path id="shoe" fill-rule="evenodd" clip-rule="evenodd" d="M198.379 182.737C197.533 181.927 196.173 181.94 195.421 182.838C194.051 184.476 192.103 186.97 191.522 188.565C190.597 191.107 189.669 196.292 189.669 196.292C192.618 197.365 242.67 215.582 242.67 215.582C242.67 215.582 247.222 209.504 242.969 207.339C238.716 205.175 235.931 203.664 235.931 203.664L215.294 183.716C214.889 183.325 214.241 183.345 213.861 183.761L210.88 187.026C210.88 187.026 206.059 187.449 203.483 186.511C201.915 185.94 199.796 184.094 198.379 182.737Z" fill="#e3e4e4"/></g><path id="SKIN" fill-rule="evenodd" clip-rule="evenodd" d="M130 0L78.254 124.227L27.3958 229.25H39.3949L170.674 0H130Z" fill="#b28b68"/><g id="Left [shoe]"><path id="shoe_2" fill-rule="evenodd" clip-rule="evenodd" d="M29.4496 223.284C28.3779 222.813 27.1043 223.29 26.7051 224.391C25.977 226.398 25 229.409 25 231.106C25 233.811 25.9012 239 25.9012 239C29.0392 239 82.3031 239 82.3031 239C82.3031 239 84.5016 231.732 79.7648 231.152C75.0281 230.573 71.895 230.106 71.895 230.106L45.68 218.419C45.1654 218.189 44.563 218.43 44.3483 218.951L42.6632 223.039C42.6632 223.039 38.2782 225.085 35.5367 225.085C33.8677 225.085 31.2457 224.074 29.4496 223.284Z" fill="#e3e4e4"/></g><path id="Pant" fill-rule="evenodd" clip-rule="evenodd" d="M31.9885 207.433L58.6507 212.433C79.2658 182.125 165.541 57.8518 175 0H115.644C84.0549 41.821 51.639 176.624 31.9885 207.433Z" fill="#393f82"/></g></g><g id="Upper Body" transform="translate(22 82) scale(1 1)"><g id="Upper Body/Hoodie"><path id="SKIN" fill-rule="evenodd" clip-rule="evenodd" d="M222.68 115.635L190.781 92.2115L183.73 109.642L215.318 122.741C224.251 133.235 229.246 137.61 230.304 135.865C231.195 134.394 230.499 133.017 229.857 131.749C229.357 130.76 228.89 129.838 229.233 128.989C230.018 127.049 236.019 127.254 241.705 127.691C247.392 128.128 245.735 125.598 244.364 124.349C238.559 120.874 231.331 117.97 222.68 115.635ZM55.398 156.908C58.3285 150.963 68.308 93.0199 68.308 93.0199L89.2054 93.1021C89.2054 93.1021 69.8506 155.583 68.308 159.406C66.3041 164.372 69.708 171.587 72.0162 176.48C72.3733 177.237 72.7041 177.938 72.9847 178.567C69.782 180 68.2435 178.268 66.6216 176.442C64.7896 174.379 62.8512 172.197 58.288 174.319C56.525 175.14 54.8568 176.109 53.2269 177.057C47.5969 180.329 42.4249 183.336 35.3891 178.994C34.2737 178.306 33.0514 175.715 36.0047 173.69C43.3624 168.645 53.9654 159.815 55.398 156.908Z" fill="#b28b68"/><path id="Coat Back" fill-rule="evenodd" clip-rule="evenodd" d="M127.695 5.33203L136.342 3.84886C168.425 31.5643 181.603 84.8089 220.929 113.015L211.464 124.748C143.24 116.3 126.33 51.3548 127.695 5.33203Z" fill="#77d692"/><path id="Shirt" fill-rule="evenodd" clip-rule="evenodd" d="M90 114C90 114 142.008 114 166.511 114C170.008 114 169.349 108.952 168.843 106.404C163.011 77.0038 140.241 45.3115 140.241 3.46073L118.172 0C99.9175 29.3584 93.6048 65.5046 90 114Z" fill="#c6d1d9"/><path id="Coat Front" fill-rule="evenodd" clip-rule="evenodd" d="M81.3968 135C77.9582 143.259 74.5862 150.465 71.4089 156H54.9999C53.2345 98.9186 74.8454 54.9964 92.9315 28.5129C88.9158 28.2259 85.2911 26.5455 82.9999 22.4112C74.9335 7.85608 77.8467 -0.157593 86.4671 -2.79173C91.2074 -4.24021 95.6656 -3.25154 101.002 -2.06804C105.369 -1.09961 110.325 -0.000719281 116.504 2.76336e-08C116.506 2.76336e-08 116.508 2.76336e-08 116.51 2.76336e-08C117.109 2.76336e-08 117.654 0.0401216 118.148 0.116866L125.472 0.53474C125.472 0.53474 155.205 101.305 141.872 135H81.3968Z" fill="#a8e5ba"/><path id="Shade" fill-rule="evenodd" clip-rule="evenodd" d="M81.397 135C85.9087 124.164 90.5352 111.516 94.9874 98.4544C96.6448 112.839 99.4048 127.286 104 135H81.397Z" fill="#000000" fill-opacity="0.1"/></g></g></g></g></g></svg>