<svg width="453" height="601" viewBox="0 0 453 601" fill="none" xmlns="http://www.w3.org/2000/svg">
<path fill-rule="evenodd" clip-rule="evenodd" d="M79.1411 68.1898C76.1109 71.3941 71.818 73.4062 67.0435 73.4062C57.8694 73.4062 50.4323 66.0221 50.4323 56.9135C50.4323 47.8049 57.8694 40.4208 67.0435 40.4208V9.79156C40.945 9.79156 19.5831 31.0011 19.5831 56.9135C19.5831 82.8257 40.945 104.035 67.0435 104.035C80.7524 104.035 93.1423 98.2768 101.588 89.1168L79.1411 68.1898Z" fill="#F2F2F2"/>
<path fill-rule="evenodd" clip-rule="evenodd" d="M66.0931 9.79156V40.8186C75.32 40.8186 82.7999 48.2985 82.7999 57.5255H113.827C113.827 31.2766 92.342 9.79156 66.0931 9.79156Z" fill="#FF7E00"/>
<path fill-rule="evenodd" clip-rule="evenodd" d="M82.3616 56.3015C82.3616 61.6877 79.825 66.4754 75.8846 69.5668L95.2695 94.2439C106.553 85.4094 113.827 71.7144 113.827 56.3015H82.3616Z" fill="#C5CFD6"/>
<path d="M410.022 145.65C423.541 145.65 434.501 134.69 434.501 121.171C434.501 107.651 423.541 96.6918 410.022 96.6918C396.503 96.6918 385.543 107.651 385.543 121.171C385.543 134.69 396.503 145.65 410.022 145.65Z" fill="#C1DEE2"/>
<path d="M78.9445 400.23C88.0701 400.23 95.4678 392.833 95.4678 383.707C95.4678 374.582 88.0701 367.184 78.9445 367.184C69.819 367.184 62.4213 374.582 62.4213 383.707C62.4213 392.833 69.819 400.23 78.9445 400.23Z" fill="#89C5CD"/>
<path d="M171.965 137.082C181.09 137.082 188.488 129.684 188.488 120.559C188.488 111.433 181.09 104.035 171.965 104.035C162.839 104.035 155.441 111.433 155.441 120.559C155.441 129.684 162.839 137.082 171.965 137.082Z" fill="#56919D"/>
<path d="M138.918 375.752C148.043 375.752 155.441 368.354 155.441 359.228C155.441 350.103 148.043 342.705 138.918 342.705C129.792 342.705 122.395 350.103 122.395 359.228C122.395 368.354 129.792 375.752 138.918 375.752Z" fill="#56919D"/>
<path d="M198.891 264.372C211.397 264.372 221.534 254.235 221.534 241.729C221.534 229.224 211.397 219.086 198.891 219.086C186.386 219.086 176.248 229.224 176.248 241.729C176.248 254.235 186.386 264.372 198.891 264.372Z" fill="#C1DEE2"/>
<path d="M368.408 173.8C386.659 173.8 401.454 159.005 401.454 140.754C401.454 122.503 386.659 107.707 368.408 107.707C350.157 107.707 335.361 122.503 335.361 140.754C335.361 159.005 350.157 173.8 368.408 173.8Z" fill="#89C5CD"/>
<path d="M45.898 342.705C55.0235 342.705 62.4212 335.307 62.4212 326.182C62.4212 317.056 55.0235 309.658 45.898 309.658C36.7724 309.658 29.3747 317.056 29.3747 326.182C29.3747 335.307 36.7724 342.705 45.898 342.705Z" fill="#C1DEE2"/>
<path d="M11.6275 411.246C18.0492 411.246 23.255 406.04 23.255 399.619C23.255 393.197 18.0492 387.991 11.6275 387.991C5.20581 387.991 0 393.197 0 399.619C0 406.04 5.20581 411.246 11.6275 411.246Z" fill="#C1DEE2"/>
<path d="M139.53 308.434C146.29 308.434 151.769 302.955 151.769 296.195C151.769 289.435 146.29 283.956 139.53 283.956C132.77 283.956 127.29 289.435 127.29 296.195C127.29 302.955 132.77 308.434 139.53 308.434Z" fill="#C1DEE2"/>
<path d="M249.685 281.508C261.177 281.508 270.492 272.192 270.492 260.701C270.492 249.209 261.177 239.893 249.685 239.893C238.194 239.893 228.878 249.209 228.878 260.701C228.878 272.192 238.194 281.508 249.685 281.508Z" fill="#C1DEE2"/>
<path d="M258.253 194.607C269.744 194.607 279.06 185.292 279.06 173.8C279.06 162.309 269.744 152.993 258.253 152.993C246.761 152.993 237.446 162.309 237.446 173.8C237.446 185.292 246.761 194.607 258.253 194.607Z" fill="#C1DEE2"/>
<path d="M95.4679 283.956C106.959 283.956 116.275 274.64 116.275 263.148C116.275 251.657 106.959 242.341 95.4679 242.341C83.9764 242.341 74.6608 251.657 74.6608 263.148C74.6608 274.64 83.9764 283.956 95.4679 283.956Z" fill="#89C5CD"/>
<path d="M320.674 232.55C334.193 232.55 345.153 221.59 345.153 208.071C345.153 194.552 334.193 183.592 320.674 183.592C307.155 183.592 296.195 194.552 296.195 208.071C296.195 221.59 307.155 232.55 320.674 232.55Z" fill="#89C5CD"/>
<path fill-rule="evenodd" clip-rule="evenodd" d="M194.979 216.941C203.71 222.217 212.288 224.766 216.315 223.726C226.412 221.116 227.341 184.082 219.528 169.482C211.715 154.882 171.55 148.518 169.526 177.446C168.823 187.485 173.028 196.445 179.241 203.756L168.101 255.811H200.459L194.979 216.941Z" fill="#B18B67"/>
<path fill-rule="evenodd" clip-rule="evenodd" d="M155.418 167.816C154.373 166.778 153.803 165.296 153.31 163.889C152.798 162.427 152.3 160.95 151.96 159.428C151.281 156.388 151.274 152.891 153.438 150.53C155.173 148.637 157.776 147.788 160.179 147.604C161.779 147.481 163.423 147.705 164.958 148.211C166.48 148.713 167.793 149.713 169.268 150.333C169.325 147.057 169.885 143.629 171.543 140.831C173.138 138.139 175.682 136.629 178.578 136.229C181.551 135.819 184.488 136.517 187.149 137.96C187.816 138.321 188.476 138.7 189.108 139.128C189.637 139.487 190.187 139.919 190.807 140.065C191.499 140.228 191.842 139.828 192.292 139.321C192.819 138.728 193.413 138.205 194.042 137.742C196.822 135.694 200.469 134.851 203.689 136.079C205.173 136.645 206.616 137.606 207.623 138.93C208.52 140.11 209.16 141.982 210.399 142.804C210.924 143.153 211.295 142.69 211.774 142.349C212.493 141.835 213.178 141.269 213.905 140.769C214.927 140.067 216.034 139.542 217.218 139.267C218.953 138.865 221.35 138.959 221.845 141.237C222.032 142.092 221.889 143.007 221.829 143.869C221.746 145.053 221.66 146.236 221.557 147.417C221.48 148.315 221.381 149.181 221.212 150.062C221.122 150.532 220.84 151.408 221.041 151.878C221.292 152.466 222.451 152.132 222.946 152.152C223.924 152.193 224.906 152.365 225.81 152.783C226.51 153.108 227.247 153.586 227.543 154.391C227.725 154.885 227.677 155.393 227.591 155.902C227.488 156.513 227.605 156.837 227.682 157.453C228.996 156.805 233.547 155.364 234.118 157.724C234.31 158.509 233.876 159.397 233.544 160.059C232.963 161.222 232.201 162.284 231.423 163.297C229.799 165.41 227.86 167.233 225.774 168.791C228.218 169.881 228.856 173.094 226.74 175.008C225.806 175.854 224.55 176.042 223.371 175.988C222.94 175.968 222.318 175.802 221.978 175.877C221.796 175.917 221.6 176.073 221.347 176.09C219.684 176.204 217.806 175.802 216.18 175.432C213.283 174.773 210.54 173.397 208.301 171.301C207.726 170.764 207.251 170.454 206.478 170.462C205.8 170.469 205.135 170.655 204.458 170.672C202.667 170.718 201.052 169.84 199.388 169.256C199.286 171.509 198.646 173.99 197.727 176.017C196.977 177.67 195.412 177.91 193.874 178.055C188.954 178.519 184.018 178.002 179.092 178.008C183.86 179.089 188.787 179.534 193.513 180.806C195.649 181.38 194.018 182.824 193.104 183.824C191.6 185.472 190.482 187.513 189.707 189.664C187.374 186.616 183.252 184.608 179.599 185.544C175.564 186.578 172.722 192.05 175.303 195.984C176.801 198.267 179.506 199.148 181.758 200.13C180.001 201.96 179.577 204.664 178.52 206.941C177.998 208.064 177.266 209.334 176.101 209.726C175.669 209.87 175.163 209.883 174.823 210.235C174.401 210.672 174.301 211.16 173.763 211.535C171.615 213.032 168.259 212.917 166.355 210.963C164.633 209.196 165.081 206.399 166.519 204.608C164.23 203.651 160.06 202.421 160.97 198.846C156.01 198.515 143.967 190.45 150.624 184.557C146.97 182.487 143.614 177.427 145.961 172.968C147.768 169.534 151.97 167.998 155.418 167.816Z" fill="#181658"/>
<path fill-rule="evenodd" clip-rule="evenodd" d="M77.7683 424.776C65.8544 424.776 56.1963 434.459 56.1963 446.404V570.762C56.1963 582.707 65.8544 592.39 77.7683 592.39H232.817C244.732 592.39 254.39 582.707 254.39 570.762V446.404C254.39 434.459 244.732 424.776 232.817 424.776H77.7683ZM99.3404 462.624C96.362 462.624 93.9474 465.045 93.9474 468.031V549.135C93.9474 552.121 96.362 554.542 99.3404 554.542H211.245C214.224 554.542 216.638 552.121 216.638 549.135V468.031C216.638 465.045 214.224 462.624 211.245 462.624H99.3404Z" fill="#C5CFD6"/>
<path fill-rule="evenodd" clip-rule="evenodd" d="M388.081 585.631C361.499 553.087 343.513 528.96 334.123 513.252C318.045 486.354 304.886 462.419 300.733 453.276C290.83 431.474 323.531 421.265 330.931 431.435C342.133 446.826 366.055 495.259 402.697 576.733L388.081 585.631Z" fill="#B18B67"/>
<path fill-rule="evenodd" clip-rule="evenodd" d="M333.61 576.169L284.139 451.32C273.558 428.561 324.655 413.6 332.431 424.192C350.085 448.238 392.045 543.098 397.304 550.262L333.61 576.169Z" fill="#0F8134"/>
<path fill-rule="evenodd" clip-rule="evenodd" d="M201.852 551.131C211.489 537.038 246.541 489.624 265.633 470.006C271.119 464.369 276.473 458.958 281.535 453.916C296.584 438.929 326.553 464.119 311.531 477.77C274.121 511.766 219.539 557.66 214.979 561.752C208.587 567.487 195.796 559.988 201.852 551.131Z" fill="#B18B67"/>
<path fill-rule="evenodd" clip-rule="evenodd" d="M208.096 545.33C207.162 544.053 205.354 543.751 204.146 544.77C201.941 546.629 198.771 549.491 197.627 551.478C195.804 554.644 193.358 561.328 193.358 561.328C197.021 563.449 259.214 599.448 259.214 599.448C259.214 599.448 266.68 592.426 261.541 588.547C256.4 584.666 253.057 582.002 253.057 582.002L230.326 550.604C229.88 549.988 229.014 549.862 228.413 550.327L223.69 553.972C223.69 553.972 217.19 553.405 213.989 551.551C212.04 550.423 209.66 547.468 208.096 545.33Z" fill="#E4E4E4"/>
<path fill-rule="evenodd" clip-rule="evenodd" d="M380.384 579.256C378.939 578.62 377.221 579.264 376.683 580.753C375.701 583.466 374.384 587.536 374.384 589.83C374.384 593.486 375.599 600.5 375.599 600.5C379.83 600.5 451.643 600.5 451.643 600.5C451.643 600.5 454.608 590.676 448.221 589.892C441.835 589.109 437.61 588.478 437.61 588.478L402.266 572.68C401.572 572.369 400.76 572.695 400.47 573.399L398.198 578.925C398.198 578.925 392.286 581.691 388.591 581.691C386.34 581.691 382.805 580.324 380.384 579.256Z" fill="#E4E4E4"/>
<path fill-rule="evenodd" clip-rule="evenodd" d="M266.338 457.556C266.338 457.556 204.662 447.482 183.714 443.779C143.91 436.742 132.303 415.267 139.165 368.413H212.505C227.063 372.627 334.162 420.548 334.162 420.548C347.008 426.941 344.616 445.792 342.269 452.003C342.124 452.383 277.299 563.616 277.299 563.616L217.305 525.297L266.451 462.071C266.451 462.071 268.398 458.139 266.338 457.556Z" fill="#57BA67"/>
<path fill-rule="evenodd" clip-rule="evenodd" d="M275.083 258.096L228.285 283.793L245.567 302.389L279.571 271.174C297.484 266.225 305.676 262.604 304.146 260.312C302.857 258.38 300.776 258.447 298.862 258.509C297.369 258.557 295.976 258.602 295.134 257.696C293.211 255.626 296.88 248.391 300.655 241.675C304.429 234.958 300.393 235.543 298.085 236.509C290.532 241.635 282.865 248.831 275.083 258.096ZM322.134 294.152L301.578 305.474L302.749 326.156C302.749 326.156 316.063 316.522 327.516 313.32C342.12 309.237 348.03 306.12 355.166 297.003C358.984 292.125 362.226 282.319 358.591 279.126C357.197 277.901 352.002 280.795 346.702 283.748C342.662 285.998 338.561 288.283 336.034 288.804C332.634 289.506 333.032 285.087 333.35 281.555C333.578 279.02 333.765 276.943 332.478 277.544C326.46 277.647 322.134 294.152 322.134 294.152Z" fill="#987659"/>
<path fill-rule="evenodd" clip-rule="evenodd" d="M205.494 278.068C221.886 277.895 243.744 274.424 267.067 259.581L276.226 280.06C260.139 296.067 237.518 309.218 217.739 308.661C202.152 308.222 194.186 289.32 205.494 278.068Z" fill="#77D692"/>
<mask id="mask0_11_1797" style="mask-type:alpha" maskUnits="userSpaceOnUse" x="200" y="259" width="77" height="50">
<path fill-rule="evenodd" clip-rule="evenodd" d="M205.494 278.068C221.886 277.895 243.744 274.424 267.067 259.581L276.226 280.06C260.139 296.067 237.518 309.218 217.739 308.661C202.152 308.222 194.186 289.32 205.494 278.068Z" fill="white"/>
</mask>
<g mask="url(#mask0_11_1797)">
</g>
<path fill-rule="evenodd" clip-rule="evenodd" d="M161.286 418.368C145.702 416.331 131.384 414.459 122.898 416.134C113.377 385.135 121.283 365.617 128.581 347.6C132.98 336.741 137.157 326.426 137.166 314.472C137.192 279.659 165.073 226.074 169.176 226.074H170.353H202.863H206.586C208.258 247.617 215.397 270.942 222.58 294.416C224.259 299.899 225.939 305.389 227.553 310.866C254.74 317.054 315.109 295.516 315.109 295.516C315.109 295.516 330.35 327.127 329.2 340.588C294.061 358.99 263.945 367.195 239.131 367.737C239.92 382.496 238.128 396.542 232.108 409.375C224.042 426.571 190.45 422.18 161.286 418.368Z" fill="#A8E5BA"/>
<mask id="mask1_11_1797" style="mask-type:alpha" maskUnits="userSpaceOnUse" x="118" y="226" width="212" height="196">
<path fill-rule="evenodd" clip-rule="evenodd" d="M161.286 418.368C145.702 416.331 131.384 414.459 122.898 416.134C113.377 385.135 121.283 365.617 128.581 347.6C132.98 336.741 137.157 326.426 137.166 314.472C137.192 279.659 165.073 226.074 169.176 226.074H170.353H202.863H206.586C208.258 247.617 215.397 270.942 222.58 294.416C224.259 299.899 225.939 305.389 227.553 310.866C254.74 317.054 315.109 295.516 315.109 295.516C315.109 295.516 330.35 327.127 329.2 340.588C294.061 358.99 263.945 367.195 239.131 367.737C239.92 382.496 238.128 396.542 232.108 409.375C224.042 426.571 190.45 422.18 161.286 418.368Z" fill="white"/>
</mask>
<g mask="url(#mask1_11_1797)">
</g>
<path d="M418.59 0H293.747C291.043 0 288.851 2.19192 288.851 4.89579V14.6874C288.851 17.3912 291.043 19.5831 293.747 19.5831H418.59C421.294 19.5831 423.485 17.3912 423.485 14.6874V4.89579C423.485 2.19192 421.294 0 418.59 0Z" fill="#57BA67"/>
<path d="M369.632 29.3747H293.747C291.043 29.3747 288.851 31.5666 288.851 34.2705V44.0621C288.851 46.7659 291.043 48.9578 293.747 48.9578H369.632C372.336 48.9578 374.528 46.7659 374.528 44.0621V34.2705C374.528 31.5666 372.336 29.3747 369.632 29.3747Z" fill="#C1DEE2"/>
<path d="M389.215 58.7495H293.747C291.043 58.7495 288.851 60.9414 288.851 63.6452V73.4368C288.851 76.1407 291.043 78.3326 293.747 78.3326H389.215C391.919 78.3326 394.111 76.1407 394.111 73.4368V63.6452C394.111 60.9414 391.919 58.7495 389.215 58.7495Z" fill="#C1DEE2"/>
<path d="M7.34368 523.849C7.34368 521.821 5.69974 520.177 3.67184 520.177C1.64394 520.177 0 521.821 0 523.849V547.104C0 549.132 1.64394 550.776 3.67184 550.776C5.69974 550.776 7.34368 549.132 7.34368 547.104V523.849Z" fill="#FF7E00"/>
<path d="M24.4789 504.266C24.4789 502.238 22.835 500.594 20.8071 500.594C18.7792 500.594 17.1353 502.238 17.1353 504.266V547.104C17.1353 549.132 18.7792 550.776 20.8071 550.776C22.835 550.776 24.4789 549.132 24.4789 547.104V504.266Z" fill="#FF7E00"/>
<path d="M41.6142 494.474C41.6142 492.446 39.9702 490.803 37.9423 490.803C35.9144 490.803 34.2705 492.446 34.2705 494.474V547.104C34.2705 549.132 35.9144 550.776 37.9423 550.776C39.9702 550.776 41.6142 549.132 41.6142 547.104V494.474Z" fill="#FF7E00"/>
<path d="M58.7494 504.266C58.7494 502.238 57.1055 500.594 55.0776 500.594C53.0497 500.594 51.4058 502.238 51.4058 504.266V547.104C51.4058 549.132 53.0497 550.776 55.0776 550.776C57.1055 550.776 58.7494 549.132 58.7494 547.104V504.266Z" fill="#FF7E00"/>
<path d="M75.8847 484.683C75.8847 482.655 74.2408 481.011 72.2129 481.011C70.185 481.011 68.541 482.655 68.541 484.683V547.104C68.541 549.132 70.185 550.776 72.2129 550.776C74.2408 550.776 75.8847 549.132 75.8847 547.104V484.683Z" fill="#57BA67"/>
<path fill-rule="evenodd" clip-rule="evenodd" d="M367.184 529.376C367.184 509.511 383.16 493.25 402.678 493.25V529.376L378.421 555.672C371.522 549.244 367.184 539.812 367.184 529.376Z" fill="#F2F2F2"/>
<path fill-rule="evenodd" clip-rule="evenodd" d="M401.322 528.745H436.949C436.949 538.01 433.193 546.693 427.253 553.002C420.721 559.902 411.419 564.239 401.322 564.239C392.023 564.239 383.509 560.496 376.976 554.58L401.322 528.745Z" fill="#AEB9C6"/>
<path fill-rule="evenodd" clip-rule="evenodd" d="M438.173 528.745C438.173 509.227 422.197 493.25 402.678 493.25V528.745H438.173ZM384.931 493.25L399.129 525.195L367.184 510.998C370.343 502.716 377.437 496.409 384.931 493.25Z" fill="#8891DC"/>
<path d="M137.694 406.35C147.496 406.35 155.441 398.405 155.441 388.603C155.441 378.801 147.496 370.856 137.694 370.856C127.892 370.856 119.947 378.801 119.947 388.603C119.947 398.405 127.892 406.35 137.694 406.35Z" fill="#89C5CD"/>
<path d="M189.712 294.971C194.443 294.971 198.279 291.135 198.279 286.403C198.279 281.672 194.443 277.836 189.712 277.836C184.98 277.836 181.144 281.672 181.144 286.403C181.144 291.135 184.98 294.971 189.712 294.971Z" fill="#C1DEE2"/>
<path d="M297.419 297.419C307.559 297.419 315.778 289.199 315.778 279.06C315.778 268.92 307.559 260.701 297.419 260.701C287.28 260.701 279.06 268.92 279.06 279.06C279.06 289.199 287.28 297.419 297.419 297.419Z" fill="#89C5CD"/>
</svg>
