<svg width="407" height="527" viewBox="0 0 407 527" fill="none" xmlns="http://www.w3.org/2000/svg">
<path d="M251.393 135.807H245.489C231.614 135.807 220.365 147.055 220.365 160.931V187.509C220.365 201.384 231.614 212.633 245.489 212.633H251.393C265.268 212.633 276.516 201.384 276.516 187.509V160.931C276.516 147.055 265.268 135.807 251.393 135.807Z" fill="#A7EBE4"/>
<path d="M251.393 402.028H245.489C231.614 402.028 220.365 413.276 220.365 427.151V477.738C220.365 491.613 231.614 502.861 245.489 502.861H251.393C265.268 502.861 276.516 491.613 276.516 477.738V427.151C276.516 413.276 265.268 402.028 251.393 402.028Z" fill="#AADAD0"/>
<path d="M381.876 307.598H375.972C362.097 307.598 350.849 318.846 350.849 332.721V359.299C350.849 373.175 362.097 384.423 375.972 384.423H381.876C395.752 384.423 407 373.175 407 359.299V332.721C407 318.846 395.752 307.598 381.876 307.598Z" fill="#AADAD0"/>
<path d="M316.634 135.807H310.73C296.855 135.807 285.607 147.055 285.607 160.931V223.254C285.607 237.13 296.855 248.378 310.73 248.378H316.634C330.51 248.378 341.758 237.13 341.758 223.254V160.931C341.758 147.055 330.51 135.807 316.634 135.807Z" fill="#FF7E00"/>
<path d="M381.876 206.763H375.972C362.097 206.763 350.849 218.011 350.849 231.887V270.202C350.849 284.078 362.097 295.326 375.972 295.326H381.876C395.752 295.326 407 284.078 407 270.202V231.887C407 218.011 395.752 206.763 381.876 206.763Z" fill="#AADAD0"/>
<path d="M316.634 260.115H310.73C296.855 260.115 285.607 271.364 285.607 285.239V294.211C285.607 308.087 296.855 319.335 310.73 319.335H316.634C330.51 319.335 341.758 308.087 341.758 294.211V285.239C341.758 271.364 330.51 260.115 316.634 260.115Z" fill="#AADAD0"/>
<path d="M381.876 135.807H375.972C362.097 135.807 350.849 147.055 350.849 160.931V169.903C350.849 183.779 362.097 195.027 375.972 195.027H381.876C395.752 195.027 407 183.779 407 169.903V160.931C407 147.055 395.752 135.807 381.876 135.807Z" fill="#AADAD0"/>
<path d="M251.393 295.86H245.489C231.614 295.86 220.365 307.108 220.365 320.983V365.167C220.365 379.043 231.614 390.291 245.489 390.291H251.393C265.268 390.291 276.516 379.043 276.516 365.167V320.983C276.516 307.108 265.268 295.86 251.393 295.86Z" fill="#FF7E00"/>
<path d="M251.393 224.37H245.489C231.614 224.37 220.365 235.618 220.365 249.493V258.466C220.365 272.341 231.614 283.589 245.489 283.589H251.393C265.268 283.589 276.516 272.341 276.516 258.466V249.493C276.516 235.618 265.268 224.37 251.393 224.37Z" fill="#AADAD0"/>
<path d="M381.876 467.116H375.972C362.097 467.116 350.849 478.364 350.849 492.24V501.212C350.849 515.088 362.097 526.336 375.972 526.336H381.876C395.752 526.336 407 515.088 407 501.212V492.24C407 478.364 395.752 467.116 381.876 467.116Z" fill="#FF7E00"/>
<path fill-rule="evenodd" clip-rule="evenodd" d="M219.83 115C219.83 113.233 221.263 111.799 223.031 111.799H240.694C242.461 111.799 243.895 113.233 243.895 115C243.895 116.769 242.461 118.202 240.694 118.202H223.031C221.263 118.202 219.83 116.769 219.83 115Z" fill="#AADAD0"/>
<path opacity="0.3" fill-rule="evenodd" clip-rule="evenodd" d="M255.66 115C255.66 113.233 257.093 111.799 258.861 111.799H276.524C278.291 111.799 279.724 113.233 279.724 115C279.724 116.769 278.291 118.202 276.524 118.202H258.861C257.093 118.202 255.66 116.769 255.66 115Z" fill="#AADAD0"/>
<path opacity="0.3" fill-rule="evenodd" clip-rule="evenodd" d="M290.955 115C290.955 113.233 292.388 111.799 294.156 111.799H311.819C313.586 111.799 315.019 113.233 315.019 115C315.019 116.769 313.586 118.202 311.819 118.202H294.156C292.388 118.202 290.955 116.769 290.955 115Z" fill="#AADAD0"/>
<path opacity="0.3" fill-rule="evenodd" clip-rule="evenodd" d="M326.784 115C326.784 113.233 328.218 111.799 329.985 111.799H347.648C349.416 111.799 350.849 113.233 350.849 115C350.849 116.769 349.416 118.202 347.648 118.202H329.985C328.218 118.202 326.784 116.769 326.784 115Z" fill="#AADAD0"/>
<path opacity="0.3" fill-rule="evenodd" clip-rule="evenodd" d="M362.079 115C362.079 113.233 363.512 111.799 365.279 111.799H382.943C384.71 111.799 386.143 113.233 386.143 115C386.143 116.769 384.71 118.202 382.943 118.202H365.279C363.512 118.202 362.079 116.769 362.079 115Z" fill="#AADAD0"/>
<path fill-rule="evenodd" clip-rule="evenodd" d="M63.9246 29.6553C63.9246 13.327 77.1619 0 93.4896 0C109.817 0 123.055 13.327 123.055 29.6553C123.055 45.9836 109.817 59.3102 93.4896 59.3102C77.1619 59.3102 63.9246 45.9836 63.9246 29.6553Z" fill="#AADAD0"/>
<path fill-rule="evenodd" clip-rule="evenodd" d="M46.3455 79.8826C46.3455 78.2596 47.6613 76.9431 49.2843 76.9431H66.9788C68.6019 76.9431 69.9177 78.2596 69.9177 79.8826C69.9177 81.5055 68.6019 82.8207 66.9788 82.8207H49.2843C47.6613 82.8207 46.3455 81.5055 46.3455 79.8826Z" fill="#FF7E00"/>
<path opacity="0.3" fill-rule="evenodd" clip-rule="evenodd" d="M81.7041 79.8826C81.7041 78.2596 83.0193 76.9431 84.6423 76.9431H102.337C103.96 76.9431 105.276 78.2596 105.276 79.8826C105.276 81.5055 103.96 82.8207 102.337 82.8207H84.6423C83.0193 82.8207 81.7041 81.5055 81.7041 79.8826Z" fill="#AADAD0"/>
<path opacity="0.3" fill-rule="evenodd" clip-rule="evenodd" d="M117.061 79.8826C117.061 78.2596 118.378 76.9431 120.001 76.9431H137.695C139.318 76.9431 140.633 78.2596 140.633 79.8826C140.633 81.5055 139.318 82.8207 137.695 82.8207H120.001C118.378 82.8207 117.061 81.5055 117.061 79.8826Z" fill="#AADAD0"/>
<path fill-rule="evenodd" clip-rule="evenodd" d="M168.208 145.097C168.208 143.459 169.534 142.132 171.172 142.132H182.949C184.586 142.132 185.913 143.459 185.913 145.097C185.913 146.733 184.586 148.061 182.949 148.061H171.172C169.534 148.061 168.208 146.733 168.208 145.097Z" fill="#AADAD0"/>
<path fill-rule="evenodd" clip-rule="evenodd" d="M162.305 162.884C162.305 161.247 163.633 159.919 165.27 159.919H182.949C184.586 159.919 185.914 161.247 185.914 162.884C185.914 164.522 184.586 165.849 182.949 165.849H165.27C163.633 165.849 162.305 164.522 162.305 162.884Z" fill="#AADAD0"/>
<path fill-rule="evenodd" clip-rule="evenodd" d="M174.109 180.673C174.109 179.035 175.437 177.708 177.074 177.708H182.949C184.586 177.708 185.913 179.035 185.913 180.673C185.913 182.309 184.586 183.637 182.949 183.637H177.074C175.437 183.637 174.109 182.309 174.109 180.673Z" fill="#AADAD0"/>
<path fill-rule="evenodd" clip-rule="evenodd" d="M180.012 198.46C180.012 196.831 181.332 195.496 182.963 195.496C184.592 195.496 185.913 196.831 185.913 198.46C185.913 200.091 184.592 201.425 182.963 201.425C181.332 201.425 180.012 200.091 180.012 198.46Z" fill="#AADAD0"/>
<path fill-rule="evenodd" clip-rule="evenodd" d="M168.208 216.249C168.208 214.611 169.534 213.284 171.172 213.284H182.949C184.586 213.284 185.913 214.611 185.913 216.249C185.913 217.886 184.586 219.213 182.949 219.213H171.172C169.534 219.213 168.208 217.886 168.208 216.249Z" fill="#AADAD0"/>
<path fill-rule="evenodd" clip-rule="evenodd" d="M174.109 234.036C174.109 232.399 175.437 231.072 177.074 231.072H182.949C184.586 231.072 185.913 232.399 185.913 234.036C185.913 235.673 184.586 237.001 182.949 237.001H177.074C175.437 237.001 174.109 235.673 174.109 234.036Z" fill="#AADAD0"/>
<path fill-rule="evenodd" clip-rule="evenodd" d="M180.012 251.825C180.012 250.194 181.332 248.86 182.963 248.86C184.592 248.86 185.913 250.194 185.913 251.825C185.913 253.454 184.592 254.789 182.963 254.789C181.332 254.789 180.012 253.454 180.012 251.825Z" fill="#FF7E00"/>
<path fill-rule="evenodd" clip-rule="evenodd" d="M0 322.977C0 321.339 1.32727 320.011 2.96469 320.011H103.271C104.909 320.011 106.236 321.339 106.236 322.977C106.236 324.614 104.909 325.941 103.271 325.941H2.96469C1.32727 325.941 0 324.614 0 322.977Z" fill="#AADAD0"/>
<path fill-rule="evenodd" clip-rule="evenodd" d="M174.109 269.612C174.109 267.975 175.437 266.648 177.074 266.648H182.949C184.586 266.648 185.913 267.975 185.913 269.612C185.913 271.25 184.586 272.577 182.949 272.577H177.074C175.437 272.577 174.109 271.25 174.109 269.612Z" fill="#FF7E00"/>
<path fill-rule="evenodd" clip-rule="evenodd" d="M168.208 287.4C168.208 285.763 169.534 284.435 171.172 284.435H182.949C184.586 284.435 185.913 285.763 185.913 287.4C185.913 289.038 184.586 290.365 182.949 290.365H171.172C169.534 290.365 168.208 289.038 168.208 287.4Z" fill="#AADAD0"/>
<path fill-rule="evenodd" clip-rule="evenodd" d="M0 305.188C0 303.551 1.32727 302.224 2.96469 302.224H44.2514C45.8888 302.224 47.2161 303.551 47.2161 305.188C47.2161 306.826 45.8888 308.153 44.2514 308.153H2.96469C1.32727 308.153 0 306.826 0 305.188Z" fill="#A7EBE4"/>
<path fill-rule="evenodd" clip-rule="evenodd" d="M0 287.4C0 285.763 1.32727 284.435 2.96469 284.435H26.5454C28.1827 284.435 29.5101 285.763 29.5101 287.4C29.5101 289.038 28.1827 290.365 26.5454 290.365H2.96469C1.32727 290.365 0 289.038 0 287.4Z" fill="#FF7E00"/>
<path fill-rule="evenodd" clip-rule="evenodd" d="M0 269.612C0 267.975 1.32727 266.648 2.96469 266.648H20.6434C22.2807 266.648 23.6081 267.975 23.6081 269.612C23.6081 271.25 22.2807 272.577 20.6434 272.577H2.96469C1.32727 272.577 0 271.25 0 269.612Z" fill="#AADAD0"/>
<path fill-rule="evenodd" clip-rule="evenodd" d="M0 180.673C0 179.035 1.32727 177.708 2.96469 177.708H44.2514C45.8888 177.708 47.2161 179.035 47.2161 180.673C47.2161 182.309 45.8888 183.637 44.2514 183.637H2.96469C1.32727 183.637 0 182.309 0 180.673Z" fill="#AADAD0"/>
<path fill-rule="evenodd" clip-rule="evenodd" d="M0 162.884C0 161.247 1.32727 159.919 2.96469 159.919H67.8595C69.4968 159.919 70.8242 161.247 70.8242 162.884C70.8242 164.522 69.4968 165.849 67.8595 165.849H2.96469C1.32727 165.849 0 164.522 0 162.884Z" fill="#A7EBE4"/>
<path fill-rule="evenodd" clip-rule="evenodd" d="M0 145.097C0 143.459 1.32727 142.132 2.96469 142.132H26.5454C28.1827 142.132 29.5101 143.459 29.5101 145.097C29.5101 146.733 28.1827 148.061 26.5454 148.061H2.96469C1.32727 148.061 0 146.733 0 145.097Z" fill="#AADAD0"/>
<path d="M174.158 106.866H11.7552C5.263 106.866 0 112.129 0 118.622V118.622C0 125.114 5.263 130.377 11.7552 130.377H174.158C180.65 130.377 185.913 125.114 185.913 118.622C185.913 112.129 180.65 106.866 174.158 106.866Z" fill="#FF7E00"/>
<path d="M70.804 374.566H14.9613C6.69838 374.566 0 381.264 0 389.527C0 397.79 6.69838 404.488 14.9613 404.488H70.804C79.0669 404.488 85.7653 397.79 85.7653 389.527C85.7653 381.264 79.0669 374.566 70.804 374.566Z" fill="#AADAD0"/>
<path opacity="0.905855" d="M316.555 330.373H311.531C297.655 330.373 286.407 341.622 286.407 355.497V381.876C286.407 395.752 297.655 407 311.531 407H316.555C330.431 407 341.679 395.752 341.679 381.876V355.497C341.679 341.622 330.431 330.373 316.555 330.373Z" fill="#AADAD0"/>
<path opacity="0.865792" d="M316.555 419.562H311.531C297.655 419.562 286.407 430.81 286.407 444.685V471.065C286.407 484.94 297.655 496.188 311.531 496.188H316.555C330.431 496.188 341.679 484.94 341.679 471.065V444.685C341.679 430.81 330.431 419.562 316.555 419.562Z" fill="#2BBA68"/>
<path d="M381.876 395.694H376.852C362.976 395.694 351.728 406.942 351.728 420.818V429.611C351.728 443.486 362.976 454.734 376.852 454.734H381.876C395.752 454.734 407 443.486 407 429.611V420.818C407 406.942 395.752 395.694 381.876 395.694Z" fill="#A7EBE4"/>
<path fill-rule="evenodd" clip-rule="evenodd" d="M179.632 322.208C179.632 320.473 181.038 319.068 182.773 319.068C184.508 319.068 185.913 320.473 185.913 322.208C185.913 323.943 184.508 325.349 182.773 325.349C181.038 325.349 179.632 323.943 179.632 322.208Z" fill="#AADAD0"/>
<path fill-rule="evenodd" clip-rule="evenodd" d="M168.327 304.622C168.327 302.887 169.732 301.481 171.467 301.481H182.773C184.508 301.481 185.913 302.887 185.913 304.622C185.913 306.356 184.508 307.762 182.773 307.762H171.467C169.732 307.762 168.327 306.356 168.327 304.622Z" fill="#AADAD0"/>
<path opacity="0.890044" fill-rule="evenodd" clip-rule="evenodd" d="M0 251.862C0 250.128 1.40603 248.722 3.14043 248.722H102.378C104.113 248.722 105.518 250.128 105.518 251.862C105.518 253.597 104.113 255.003 102.378 255.003H3.14043C1.40603 255.003 0 253.597 0 251.862Z" fill="#AADAD0"/>
<path fill-rule="evenodd" clip-rule="evenodd" d="M0 234.276C0 232.541 1.40603 231.136 3.14043 231.136H38.3132C40.0476 231.136 41.4537 232.541 41.4537 234.276C41.4537 236.011 40.0476 237.417 38.3132 237.417H3.14043C1.40603 237.417 0 236.011 0 234.276Z" fill="#AADAD0"/>
<path fill-rule="evenodd" clip-rule="evenodd" d="M0 215.434C0 213.699 1.40603 212.293 3.14043 212.293H20.7268C22.4612 212.293 23.8673 213.699 23.8673 215.434C23.8673 217.168 22.4612 218.574 20.7268 218.574H3.14043C1.40603 218.574 0 217.168 0 215.434Z" fill="#AADAD0"/>
<path opacity="0.890044" fill-rule="evenodd" clip-rule="evenodd" d="M0 197.847C0 196.112 1.40603 194.707 3.14043 194.707H84.7916C86.5264 194.707 87.932 196.112 87.932 197.847C87.932 199.582 86.5264 200.987 84.7916 200.987H3.14043C1.40603 200.987 0 199.582 0 197.847Z" fill="#FF7E00"/>
<path opacity="0.908343" d="M170.839 374.339H115.568C107.243 374.339 100.494 381.088 100.494 389.413C100.494 397.739 107.243 404.487 115.568 404.487H170.839C179.165 404.487 185.913 397.739 185.913 389.413C185.913 381.088 179.165 374.339 170.839 374.339Z" fill="#2BBA68"/>
<path d="M104.708 20.6043C104.708 26.935 99.5753 32.0665 93.2428 32.0665C86.9117 32.0665 81.7776 26.935 81.7776 20.6043C81.7776 14.2731 86.9117 9.1416 93.2428 9.1416C99.5753 9.1416 104.708 14.2731 104.708 20.6043Z" fill="#2BBA68"/>
<path d="M93.2426 49.9427C100.381 49.9427 106.843 48.6652 111.526 43.9945C111.526 38.113 106 33.6051 100.663 31.3228C98.7515 33.1996 96.1338 34.3572 93.2426 34.3572C90.3531 34.3572 87.7337 33.1996 85.8231 31.3228C80.4851 33.6051 74.9602 37.8577 74.9602 43.9945C79.6421 48.6652 86.1052 49.9427 93.2426 49.9427Z" fill="#2BBA68"/>
</svg>
