<svg width="520" height="410" viewBox="0 0 520 410" fill="none" xmlns="http://www.w3.org/2000/svg">
<path fill-rule="evenodd" clip-rule="evenodd" d="M34.7172 26.3185H519.425V0.56134H34.7172V26.3185Z" fill="#2BBA68"/>
<path fill-rule="evenodd" clip-rule="evenodd" d="M34.1432 379.017H520V0H34.1432V379.017ZM35.2912 377.895H518.852V1.12266H35.2912V377.895Z" fill="black" fill-opacity="0.08"/>
<path fill-rule="evenodd" clip-rule="evenodd" d="M202.977 180.028H6.27698C2.81018 180.028 0 177.28 0 173.889V57.6517C0 54.2612 2.81018 51.5118 6.27698 51.5118H202.977C206.445 51.5118 209.255 54.2612 209.255 57.6517V173.889C209.255 177.28 206.445 180.028 202.977 180.028Z" fill="#E1E1E1"/>
<path fill-rule="evenodd" clip-rule="evenodd" d="M18.282 87.5326H190.973V75.7233H18.282V87.5326Z" fill="#F1EFEF"/>
<path fill-rule="evenodd" clip-rule="evenodd" d="M162.728 155.456H190.603V133.967H162.728V155.456ZM18.6528 155.456H49.1217V133.967H18.6528V155.456ZM18.6528 133.244H49.1217V106.485H18.6528V133.244ZM49.8609 133.244H86.7434V106.485H49.8609V133.244ZM87.4838 133.244H124.366V106.485H87.4838V133.244ZM125.106 155.456H161.988V133.967H125.106V155.456ZM49.8609 155.456H86.7434V133.967H49.8609V155.456ZM87.4838 155.456H124.366V133.967H87.4838V155.456ZM125.106 133.244H161.988V106.485H125.106V133.244ZM162.728 133.244H190.603V106.485H162.728V133.244ZM190.973 75.363C190.768 75.363 190.603 75.5246 190.603 75.7245V105.762H162.728V75.7245C162.728 75.5246 162.562 75.363 162.358 75.363C162.154 75.363 161.988 75.5246 161.988 75.7245V105.762H125.106V75.7245C125.106 75.5246 124.94 75.363 124.736 75.363C124.532 75.363 124.366 75.5246 124.366 75.7245V105.762H87.4838V75.7245C87.4838 75.5246 87.3174 75.363 87.1142 75.363C86.9099 75.363 86.7434 75.5246 86.7434 75.7245V105.762H49.8609V75.7245C49.8609 75.5246 49.6956 75.363 49.4913 75.363C49.287 75.363 49.1217 75.5246 49.1217 75.7245V105.762H18.6528V75.7245C18.6528 75.5246 18.4864 75.363 18.2832 75.363C18.0788 75.363 17.9124 75.5246 17.9124 75.7245V155.816C17.9124 156.016 18.0788 156.178 18.2832 156.178H190.973C191.177 156.178 191.342 156.016 191.342 155.816V75.7245C191.342 75.5246 191.177 75.363 190.973 75.363Z" fill="#B5B6B7"/>
<path fill-rule="evenodd" clip-rule="evenodd" d="M457.032 183.721V62.5858C457.032 61.2476 455.923 60.1631 454.555 60.1631H415.454C414.086 60.1631 412.977 61.2476 412.977 62.5858V183.721H391.711V112.338C391.711 110.999 390.601 109.915 389.232 109.915H350.132C348.764 109.915 347.655 110.999 347.655 112.338V183.721H326.387V156.769C326.387 155.431 325.279 154.346 323.909 154.346H284.809C283.441 154.346 282.332 155.431 282.332 156.769V183.721H238.634C236.671 183.721 235.08 185.277 235.08 187.195C235.08 189.115 236.671 190.67 238.634 190.67H469.646C471.609 190.67 473.2 189.115 473.2 187.195C473.2 185.277 471.609 183.721 469.646 183.721H457.032Z" fill="#2BBA68"/>
<path fill-rule="evenodd" clip-rule="evenodd" d="M367.353 410H252.38C249.532 410 247.225 407.743 247.225 404.958V309.503C247.225 306.719 249.532 304.461 252.38 304.461H367.353C370.2 304.461 372.509 306.719 372.509 309.503V404.958C372.509 407.743 370.2 410 367.353 410Z" fill="#F1EFEF"/>
<path fill-rule="evenodd" clip-rule="evenodd" d="M351.812 331.492H267.921C266.816 331.492 265.919 330.616 265.919 329.534C265.919 328.453 266.816 327.577 267.921 327.577H351.812C352.919 327.577 353.814 328.453 353.814 329.534C353.814 330.616 352.919 331.492 351.812 331.492Z" fill="#E1E1E1"/>
<path fill-rule="evenodd" clip-rule="evenodd" d="M351.812 349.957H267.921C266.816 349.957 265.919 349.08 265.919 347.999C265.919 346.917 266.816 346.041 267.921 346.041H351.812C352.919 346.041 353.814 346.917 353.814 347.999C353.814 349.08 352.919 349.957 351.812 349.957Z" fill="#E1E1E1"/>
<path fill-rule="evenodd" clip-rule="evenodd" d="M351.812 368.421H267.921C266.816 368.421 265.919 367.544 265.919 366.463C265.919 365.381 266.816 364.505 267.921 364.505H351.812C352.919 364.505 353.814 365.381 353.814 366.463C353.814 367.544 352.919 368.421 351.812 368.421Z" fill="#E1E1E1"/>
<path fill-rule="evenodd" clip-rule="evenodd" d="M351.812 386.885H267.921C266.816 386.885 265.919 386.008 265.919 384.927C265.919 383.845 266.816 382.969 267.921 382.969H351.812C352.919 382.969 353.814 383.845 353.814 384.927C353.814 386.008 352.919 386.885 351.812 386.885Z" fill="#E1E1E1"/>
<path fill-rule="evenodd" clip-rule="evenodd" d="M425.037 278.471H322.573C320.654 278.471 319.099 276.95 319.099 275.074V210.749C319.099 208.873 320.654 207.352 322.573 207.352H425.037C426.955 207.352 428.51 208.873 428.51 210.749V275.074C428.51 276.95 426.955 278.471 425.037 278.471Z" fill="#F1EFEF"/>
<path fill-rule="evenodd" clip-rule="evenodd" d="M414.564 225.568H333.046C332.301 225.568 331.696 224.977 331.696 224.249C331.696 223.519 332.301 222.928 333.046 222.928H414.564C415.308 222.928 415.913 223.519 415.913 224.249C415.913 224.977 415.308 225.568 414.564 225.568Z" fill="#E1E1E1"/>
<path fill-rule="evenodd" clip-rule="evenodd" d="M414.564 238.01H333.046C332.301 238.01 331.696 237.42 331.696 236.691C331.696 235.961 332.301 235.371 333.046 235.371H414.564C415.308 235.371 415.913 235.961 415.913 236.691C415.913 237.42 415.308 238.01 414.564 238.01Z" fill="#E1E1E1"/>
<path fill-rule="evenodd" clip-rule="evenodd" d="M414.564 250.453H333.046C332.301 250.453 331.696 249.862 331.696 249.133C331.696 248.404 332.301 247.813 333.046 247.813H414.564C415.308 247.813 415.913 248.404 415.913 249.133C415.913 249.862 415.308 250.453 414.564 250.453Z" fill="#E1E1E1"/>
<path fill-rule="evenodd" clip-rule="evenodd" d="M414.564 262.895H333.046C332.301 262.895 331.696 262.304 331.696 261.576C331.696 260.846 332.301 260.256 333.046 260.256H414.564C415.308 260.256 415.913 260.846 415.913 261.576C415.913 262.304 415.308 262.895 414.564 262.895Z" fill="#E1E1E1"/>
<path fill-rule="evenodd" clip-rule="evenodd" d="M240.09 235.917C229.621 223.262 213.618 215.164 195.678 215.164V271.014L240.09 235.917Z" fill="#BAF3D2"/>
<path fill-rule="evenodd" clip-rule="evenodd" d="M220.158 180.254C220.373 180.275 220.59 180.295 220.805 180.318C220.59 180.295 220.374 180.275 220.158 180.254Z" fill="#F1EFEF"/>
<path fill-rule="evenodd" clip-rule="evenodd" d="M234.654 242.846C234.941 243.177 235.227 243.509 235.506 243.848L191.094 278.944V223.094C159.553 223.094 133.986 248.098 133.986 278.944C133.986 309.789 159.553 334.794 191.094 334.794C222.633 334.794 248.202 309.789 248.202 278.944C248.202 265.176 243.099 252.581 234.654 242.846Z" fill="#FF7E00"/>
<path fill-rule="evenodd" clip-rule="evenodd" d="M216.225 179.977C216.394 179.985 216.566 179.991 216.735 180C216.566 179.991 216.394 179.985 216.225 179.977Z" fill="#F1EFEF"/>
<path fill-rule="evenodd" clip-rule="evenodd" d="M224.528 102.964H294.509V59.1754H224.528V102.964Z" fill="#F0BE91"/>
<path fill-rule="evenodd" clip-rule="evenodd" d="M260.205 81.0693L294.709 59.4794C294.88 59.3717 294.93 59.1482 294.82 58.981C294.71 58.8114 294.479 58.7621 294.309 58.871L259.519 80.6404L224.728 58.871C224.558 58.7632 224.327 58.8114 224.216 58.981C224.107 59.1482 224.157 59.3717 224.328 59.4794L258.833 81.0693L224.328 102.659C224.157 102.767 224.107 102.99 224.216 103.159C224.326 103.327 224.554 103.375 224.728 103.268L259.519 81.4981L294.309 103.268C294.371 103.307 294.44 103.325 294.509 103.325C294.63 103.325 294.75 103.266 294.82 103.159C294.93 102.99 294.88 102.767 294.709 102.659L260.205 81.0693Z" fill="#F1EFEF"/>
<path fill-rule="evenodd" clip-rule="evenodd" d="M338.837 80.7081H301.158C300.954 80.7081 300.787 80.8697 300.787 81.0696C300.787 81.2694 300.954 81.4311 301.158 81.4311H338.837C339.042 81.4311 339.207 81.2694 339.207 81.0696C339.207 80.8697 339.042 80.7081 338.837 80.7081ZM350.54 70.7456H301.158C300.954 70.7456 300.787 70.9073 300.787 71.1071C300.787 71.3058 300.954 71.4686 301.158 71.4686H350.54C350.744 71.4686 350.91 71.3058 350.91 71.1071C350.91 70.9073 350.744 70.7456 350.54 70.7456ZM328.262 90.6706H301.158C300.954 90.6706 300.787 90.8322 300.787 91.0321C300.787 91.2319 300.954 91.3935 301.158 91.3935H328.262C328.467 91.3935 328.632 91.2319 328.632 91.0321C328.632 90.8322 328.467 90.6706 328.262 90.6706Z" fill="#B5B6B7"/>
</svg>
