<svg width="962" height="639" viewBox="0 0 962 639" fill="none" xmlns="http://www.w3.org/2000/svg">
<path fill-rule="evenodd" clip-rule="evenodd" d="M768.881 515.053C768.881 525.106 761.996 533.25 753.497 533.25H522.171V600.306C539.282 601.596 552.821 618.428 552.821 639H286.652C286.652 628.288 290.316 618.6 296.248 611.58C301.895 604.896 309.59 600.642 318.125 600.257V533.25H80.3729C71.8784 533.25 64.9901 525.106 64.9901 515.053V420.893H768.16C768.557 420.893 768.881 421.277 768.881 421.751V515.053Z" fill="#2BBA68"/>
<path fill-rule="evenodd" clip-rule="evenodd" d="M809.051 533.552H24.824C11.1689 533.552 0.0986328 522.468 0.0986328 508.795V24.757C0.0986328 11.0838 11.1689 0 24.824 0H809.051C822.705 0 833.773 11.0838 833.773 24.757V508.795C833.773 522.468 822.705 533.552 809.051 533.552Z" fill="#BAF3D2"/>
<path fill-rule="evenodd" clip-rule="evenodd" d="M439.017 478.123C439.017 489.323 429.736 498.402 418.288 498.402C406.84 498.402 397.559 489.323 397.559 478.123C397.559 466.924 406.84 457.845 418.288 457.845C429.736 457.845 439.017 466.924 439.017 478.123Z" fill="#FCEBEC"/>
<path fill-rule="evenodd" clip-rule="evenodd" d="M32.5444 420.893V45.2735C32.5444 35.2027 40.7099 27.0381 50.7816 27.0381H782.184C792.26 27.0381 800.426 35.2027 800.426 45.2735V420.033C800.426 420.508 800.038 420.893 799.57 420.893H32.5444Z" fill="white"/>
<path d="M628.174 420.504H58.3755C52.5566 420.504 47.8388 415.963 47.8388 410.356V37.6349C47.8388 32.031 52.5566 27.4879 58.3755 27.4879H628.174C633.992 27.4879 638.712 32.031 638.712 37.6349V410.356C638.712 415.963 633.992 420.504 628.174 420.504Z" fill="white"/>
<path fill-rule="evenodd" clip-rule="evenodd" d="M302.258 84.1494V67.6523H86.2664V84.1494H302.258ZM276.619 109.812V126.309H86.2664V109.812H276.619ZM217.173 162.053V145.556H86.2664V162.053H217.173ZM237 183.792V200.289H86.2664V183.792H237ZM181.394 220.29V236.787H86.2664V220.29H181.394Z" fill="#D3E2F2"/>
<path d="M295.64 248.615V241.148C300.856 240.251 304.873 238.401 307.69 235.599C310.507 232.796 311.918 229.511 311.918 225.744C311.918 222.336 310.975 219.645 309.087 217.672C307.203 215.699 304.978 214.275 302.419 213.401C299.854 212.526 296.711 211.753 292.988 211.08C290.098 210.542 288.025 210.038 286.771 209.567C285.512 209.096 284.882 208.389 284.882 207.448C284.882 205.474 287.005 204.488 291.242 204.488C295.525 204.488 300.066 205.654 304.863 207.986L309.822 196.483C305.957 194.376 301.228 193.075 295.64 192.582V185.384H285.792V192.716C280.25 193.479 276.003 195.273 273.044 198.098C270.089 200.923 268.609 204.309 268.609 208.255C268.609 211.663 269.542 214.365 271.403 216.361C273.264 218.356 275.452 219.791 277.97 220.666C280.484 221.54 283.627 222.358 287.4 223.121C290.332 223.704 292.442 224.242 293.719 224.735C295.001 225.229 295.64 225.968 295.64 226.955C295.64 227.807 295.153 228.446 294.174 228.872C293.195 229.298 291.568 229.511 289.284 229.511C286.628 229.511 283.862 229.118 280.971 228.334C278.085 227.549 275.479 226.507 273.149 225.206L267.842 236.776C269.937 238.031 272.58 239.085 275.769 239.937C278.958 240.789 282.299 241.305 285.792 241.484V248.615H295.64Z" fill="#FF7E00"/>
<path fill-rule="evenodd" clip-rule="evenodd" d="M557.802 62.9155L558.708 63.0691C570.707 65.1066 581.584 71.1539 589.415 80.1419C597.25 89.1294 601.543 100.495 601.543 112.228V113.113H548.611L557.802 62.9155ZM559.296 64.9742L550.803 111.343H599.7C599.488 100.341 595.366 89.7224 588.009 81.2796C580.651 72.8368 570.509 67.0838 559.296 64.9742Z" fill="#D3E2F2"/>
<path fill-rule="evenodd" clip-rule="evenodd" d="M539.668 71.4405C512.242 71.4405 489.669 93.1785 489.669 119.588C489.669 145.997 512.242 167.735 539.668 167.735C566.787 167.735 589.158 146.481 589.659 120.473H538.57L547.444 72.0264C544.871 71.6366 542.269 71.4405 539.668 71.4405ZM487.831 119.588C487.831 92.2009 511.226 69.6703 539.668 69.6703C542.683 69.6703 545.698 69.9244 548.666 70.4289L549.572 70.5824L540.762 118.702H591.502V119.588C591.502 146.975 568.106 169.505 539.668 169.505C511.226 169.505 487.831 146.975 487.831 119.588Z" fill="#D3E2F2"/>
<path fill-rule="evenodd" clip-rule="evenodd" d="M454.274 64.4577C442.266 64.4577 432.528 73.8338 432.528 85.3991C432.528 96.9644 442.266 106.341 454.274 106.341C466.287 106.341 476.02 96.9644 476.02 85.3991C476.02 73.8338 466.287 64.4577 454.274 64.4577ZM430.689 85.3991C430.689 72.8557 441.25 62.6875 454.274 62.6875C467.302 62.6875 477.858 72.8557 477.858 85.3991C477.858 97.9425 467.302 108.111 454.274 108.111C441.25 108.111 430.689 97.9425 430.689 85.3991Z" fill="#D3E2F2"/>
<path d="M548.611 111.203L557.453 62.9155C569.241 64.9167 579.925 70.8569 587.618 79.6856C595.311 88.5138 599.53 99.6778 599.53 111.203H548.611Z" fill="#EDF3F9"/>
<path d="M538.749 118.702H589.663C589.663 145.6 566.681 167.735 538.749 167.735C510.817 167.735 487.831 145.6 487.831 118.702C487.831 91.8044 510.817 69.6703 538.749 69.6703C541.713 69.6703 544.668 69.9195 547.591 70.4152L538.749 118.702Z" fill="#EDF3F9"/>
<path d="M476.02 84.514C476.02 96.5684 465.873 106.341 453.355 106.341C440.836 106.341 430.689 96.5684 430.689 84.514C430.689 72.4597 440.836 62.6875 453.355 62.6875C465.873 62.6875 476.02 72.4597 476.02 84.514Z" fill="#EDF3F9"/>
<path fill-rule="evenodd" clip-rule="evenodd" d="M377.009 387.397V199.863H351.807V387.397H377.009ZM469.485 387.397V292.408H444.283V387.397H469.485ZM425.965 252.156V387.397H400.763V252.156H425.965ZM519.218 387.397V320.733H494.016V387.397H519.218ZM568.207 336.231V387.397H543.005V336.231H568.207ZM609.76 387.397V324.3H584.558V387.397H609.76Z" fill="#D3E2F2"/>
<path d="M550.767 230.054L470.634 271.482L375.345 131.098L385.051 125.702L353.884 106.148L355.888 141.915L364.054 137.375L466.268 287.963L546.419 246.527L597.788 321.941L608.671 315.06L550.767 230.054Z" fill="#FF7E00"/>
<g clip-path="url(#clip0_7_750)">
<rect x="690.708" y="102.155" width="261.772" height="536.313" rx="25" fill="white"/>
<path fill-rule="evenodd" clip-rule="evenodd" d="M927.758 101.588H716.196C702.982 101.588 692.27 112.301 692.27 125.515V604.467C692.27 617.681 702.982 628.394 716.196 628.394H927.758C940.972 628.394 951.685 617.681 951.685 604.467V125.515C951.685 112.301 940.972 101.588 927.758 101.588ZM716.196 91.5138C697.418 91.5138 682.195 106.737 682.195 125.515V604.467C682.195 623.247 697.418 638.468 716.196 638.468H927.758C946.538 638.468 961.759 623.247 961.759 604.467V125.515C961.759 106.737 946.538 91.5138 927.758 91.5138H716.196Z" fill="#2BBA68"/>
<path fill-rule="evenodd" clip-rule="evenodd" d="M879.229 335.871L880.056 336.018C888.997 337.601 897.098 342.299 902.933 349.281C908.768 356.263 911.966 365.09 911.966 374.204V375.043H872.349L879.229 335.871ZM880.589 337.827L874.347 373.364H910.279C910.09 364.943 907.047 356.822 901.644 350.357C896.242 343.894 888.812 339.478 880.589 337.827Z" fill="#D3E2F2"/>
<path fill-rule="evenodd" clip-rule="evenodd" d="M865.843 343.007C845.467 343.007 828.693 359.78 828.693 380.157C828.693 400.532 845.467 417.306 865.843 417.306C885.937 417.306 902.53 400.99 902.983 380.996H864.844L871.463 343.435C869.604 343.151 867.727 343.007 865.843 343.007ZM827.014 380.157C827.014 358.853 844.539 341.328 865.843 341.328C868.101 341.328 870.359 341.526 872.584 341.918L873.411 342.064L866.842 379.317H904.671V380.157C904.671 401.46 887.146 418.985 865.843 418.985C844.539 418.985 827.014 401.46 827.014 380.157Z" fill="#D3E2F2"/>
<path fill-rule="evenodd" clip-rule="evenodd" d="M802.248 337.55C793.437 337.55 786.297 344.692 786.297 353.501C786.297 362.311 793.437 369.453 802.248 369.453C811.059 369.453 818.199 362.311 818.199 353.501C818.199 344.692 811.059 337.55 802.248 337.55ZM784.618 353.501C784.618 343.765 792.51 335.871 802.248 335.871C811.987 335.871 819.878 343.765 819.878 353.501C819.878 363.238 811.987 371.132 802.248 371.132C792.51 371.132 784.618 363.238 784.618 353.501Z" fill="#D3E2F2"/>
<path d="M872.349 373.231L878.91 335.871C887.654 337.419 895.583 342.015 901.287 348.846C906.996 355.676 910.128 364.314 910.128 373.231H872.349Z" fill="#EDF3F9"/>
<path d="M865.003 379.317H902.992C902.992 400.159 885.844 417.306 865.003 417.306C844.162 417.306 827.014 400.159 827.014 379.317C827.014 358.477 844.162 341.328 865.003 341.328C867.215 341.328 869.423 341.521 871.602 341.905L865.003 379.317Z" fill="#EDF3F9"/>
<path d="M818.199 352.662C818.199 361.935 810.681 369.452 801.409 369.452C792.136 369.452 784.618 361.935 784.618 352.662C784.618 343.389 792.136 335.871 801.409 335.871C810.681 335.871 818.199 343.389 818.199 352.662Z" fill="#EDF3F9"/>
<path d="M835.992 607.609C835.992 615.544 829.324 622.006 821.062 622.006C812.8 622.006 806.132 615.544 806.132 607.609C806.132 599.674 812.8 593.211 821.062 593.211C829.324 593.211 835.992 599.674 835.992 607.609Z" fill="#2BBA68" stroke="#2BBA68"/>
<path fill-rule="evenodd" clip-rule="evenodd" d="M744.74 587.731V442.492H725.851V587.731H744.74ZM813.582 587.731V514.272H794.692V587.731H813.582ZM780.84 482.79V587.731H761.951V482.79H780.84ZM850.521 587.731V536.1H831.632V587.731H850.521ZM887.041 548.273V587.731H868.151V548.273H887.041ZM918.103 587.731V539.038H899.214V587.731H918.103Z" fill="#D3E2F2"/>
<path d="M874.23 465.747L814.291 497.821L743.019 389.136L750.277 384.957L726.966 369.818L728.465 397.51L734.574 393.993L811.026 510.578L870.976 478.5L909.402 536.885L917.541 531.558L874.23 465.747Z" fill="#FF7E00"/>
<path fill-rule="evenodd" clip-rule="evenodd" d="M909.288 149.861V135.169H723.752V149.861H909.288ZM887.041 172.528V187.22H723.332V172.528H887.041ZM836.249 219.122V204.431H723.752V219.122H836.249ZM853.04 238.432V253.123H723.752V238.432H853.04ZM805.187 270.754V285.445H723.332V270.754H805.187Z" fill="#D3E2F2"/>
<path d="M903.579 296.24V289.598C908.05 288.801 911.492 287.155 913.906 284.662C916.319 282.168 917.528 279.246 917.528 275.895C917.528 272.863 916.718 270.47 915.102 268.714C913.486 266.959 911.58 265.693 909.385 264.915C907.189 264.137 904.495 263.449 901.304 262.85C898.828 262.372 897.052 261.923 895.973 261.504C894.895 261.085 894.357 260.457 894.357 259.619C894.357 257.864 896.175 256.986 899.806 256.986C903.479 256.986 907.37 258.023 911.479 260.098L915.732 249.865C912.42 247.99 908.369 246.833 903.579 246.395V239.992H895.138V246.514C890.386 247.193 886.743 248.788 884.207 251.301C881.676 253.815 880.408 256.827 880.408 260.337C880.408 263.369 881.206 265.772 882.801 267.548C884.4 269.323 886.277 270.6 888.43 271.377C890.588 272.155 893.278 272.883 896.515 273.561C899.029 274.08 900.834 274.559 901.93 274.997C903.03 275.436 903.579 276.095 903.579 276.972C903.579 277.73 903.16 278.299 902.32 278.678C901.481 279.057 900.087 279.246 898.131 279.246C895.856 279.246 893.48 278.897 891.003 278.199C888.531 277.501 886.294 276.573 884.3 275.416L879.749 285.709C881.546 286.826 883.808 287.763 886.545 288.521C889.278 289.279 892.141 289.738 895.138 289.897V296.24H903.579Z" fill="#FF7E00"/>
</g>
<defs>
<clipPath id="clip0_7_750">
<rect width="279.564" height="546.954" fill="white" transform="translate(682.195 91.5138)"/>
</clipPath>
</defs>
</svg>
