<svg width="652" height="427" viewBox="0 0 652 427" fill="none" xmlns="http://www.w3.org/2000/svg">
<path d="M387.038 96.6636H14.6052C6.53898 96.6636 0 103.203 0 111.269V140.479C0 148.545 6.53898 155.084 14.6052 155.084H387.038C395.105 155.084 401.644 148.545 401.644 140.479V111.269C401.644 103.203 395.105 96.6636 387.038 96.6636Z" fill="#FF7E00"/>
<path d="M240.986 184.295H14.6052C6.53899 184.295 0 190.834 0 198.9V228.11C0 236.176 6.53899 242.715 14.6052 242.715H240.986C249.052 242.715 255.591 236.176 255.591 228.11V198.9C255.591 190.834 249.052 184.295 240.986 184.295Z" fill="#9AE6E2"/>
<path d="M299.406 271.925H14.6052C6.53898 271.925 0 278.464 0 286.531V315.741C0 323.807 6.53898 330.346 14.6052 330.346H299.406C307.473 330.346 314.012 323.807 314.012 315.741V286.531C314.012 278.464 307.473 271.925 299.406 271.925Z" fill="#9AE6E2"/>
<path fill-rule="evenodd" clip-rule="evenodd" d="M443.669 107.774C443.669 48.5085 491.328 0 549.557 0V107.774L477.192 186.216C456.608 167.038 443.669 138.904 443.669 107.774Z" fill="#F0F3EE"/>
<path fill-rule="evenodd" clip-rule="evenodd" d="M545.511 105.888H651.793C651.793 133.53 640.585 159.431 622.868 178.252C603.381 198.837 575.631 211.776 545.511 211.776C517.766 211.776 492.371 200.61 472.879 182.958L545.511 105.888Z" fill="#AABCAE"/>
<path fill-rule="evenodd" clip-rule="evenodd" d="M651.944 105.889C651.944 47.6615 604.283 0.00088128 546.056 0.00088128V105.889H651.944ZM493.111 0L535.466 95.2993L440.167 52.9435C449.591 28.2399 470.752 9.42378 493.111 0Z" fill="#BAF3D2"/>
<path fill-rule="evenodd" clip-rule="evenodd" d="M575.392 352.46C569.091 359.123 560.164 363.308 550.236 363.308C531.159 363.308 515.693 347.953 515.693 329.011C515.693 310.07 531.159 294.715 550.236 294.715V231.022C495.965 231.022 451.543 275.127 451.543 329.011C451.543 382.896 495.965 427 550.236 427C578.743 427 604.507 415.026 622.069 395.977L575.392 352.46Z" fill="#F0F3EE"/>
<path fill-rule="evenodd" clip-rule="evenodd" d="M548.26 231.022V295.542C567.448 295.542 583.001 311.097 583.001 330.284H647.521C647.521 275.7 602.844 231.022 548.26 231.022Z" fill="#2BBA68"/>
<path fill-rule="evenodd" clip-rule="evenodd" d="M582.09 327.738C582.09 338.938 576.816 348.894 568.622 355.323L608.933 406.639C632.397 388.267 647.522 359.789 647.522 327.738H582.09Z" fill="#C1D2C3"/>
</svg>
