<svg width="995" height="669" viewBox="0 0 995 669" fill="none" xmlns="http://www.w3.org/2000/svg">
<g id="Ilustraci&#195;&#179;n header home">
<g id="Master/Scene/3 Characters">
<g id="Background">
<g id="Background/Wireframe 2">
<g id="Mobile3">
<path id="Container" d="M929.268 0H760.427C754.733 0 750.117 4.30192 750.117 9.60862V326.693C750.117 332 754.733 336.302 760.427 336.302H929.268C934.963 336.302 939.579 332 939.579 326.693V9.60862C939.579 4.30192 934.963 0 929.268 0Z" fill="#C6D1D9"/>
<path id="Touch" d="M844.203 315.883C854.881 315.883 863.536 307.817 863.536 297.867C863.536 287.917 854.881 279.851 844.203 279.851C833.526 279.851 824.87 287.917 824.87 297.867C824.87 307.817 833.526 315.883 844.203 315.883Z" fill="white"/>
<g id="Camera">
<path id="Lens" d="M827.448 22.8205C828.872 22.8205 830.026 21.745 830.026 20.4183C830.026 19.0917 828.872 18.0162 827.448 18.0162C826.025 18.0162 824.87 19.0917 824.87 20.4183C824.87 21.745 826.025 22.8205 827.448 22.8205Z" fill="white"/>
<path id="Sensor" d="M860.959 18.0162H839.048C837.624 18.0162 836.47 19.0917 836.47 20.4183C836.47 21.745 837.624 22.8205 839.048 22.8205H860.959C862.382 22.8205 863.536 21.745 863.536 20.4183C863.536 19.0917 862.382 18.0162 860.959 18.0162Z" fill="white"/>
</g>
<g id="Rows">
<g id="Row">
<path id="Container_2" d="M916.38 33.6302H773.316C770.469 33.6302 768.161 35.7812 768.161 38.4345V89.7982C768.161 92.4515 770.469 94.6025 773.316 94.6025H916.38C919.227 94.6025 921.535 92.4515 921.535 89.7982V38.4345C921.535 35.7812 919.227 33.6302 916.38 33.6302Z" fill="white"/>
<g id="Text Stuff">
<path id="Label" d="M854.514 51.9202H783.627C781.492 51.9202 779.76 53.5334 779.76 55.5234V57.4619C779.76 59.4519 781.492 61.0652 783.627 61.0652H854.514C856.65 61.0652 858.381 59.4519 858.381 57.4619V55.5234C858.381 53.5334 856.65 51.9202 854.514 51.9202Z" fill="#C6D1D9"/>
<path id="Label_2" d="M828.666 67.1619H783.627C781.492 67.1619 779.76 68.7751 779.76 70.7651V72.7036C779.76 74.6936 781.492 76.3069 783.627 76.3069H828.666C830.802 76.3069 832.533 74.6936 832.533 72.7036V70.7651C832.533 68.7751 830.802 67.1619 828.666 67.1619Z" fill="#C6D1D9"/>
</g>
<g id="Check">
<path id="Background_2" d="M905.143 72.5211C910.126 72.5211 914.165 68.7569 914.165 64.1135C914.165 59.4702 910.126 55.706 905.143 55.706C900.161 55.706 896.121 59.4702 896.121 64.1135C896.121 68.7569 900.161 72.5211 905.143 72.5211Z" fill="#C6D1D9"/>
<path id="Indicator" d="M905.143 67.7168C907.279 67.7168 909.01 66.1036 909.01 64.1135C909.01 62.1235 907.279 60.5103 905.143 60.5103C903.008 60.5103 901.277 62.1235 901.277 64.1135C901.277 66.1036 903.008 67.7168 905.143 67.7168Z" fill="#F2F2F2"/>
</g>
</g>
<g id="Row_2">
<path id="Background_2_2" d="M916.38 104.494H773.316C770.469 104.494 768.161 106.645 768.161 109.298V144.977C768.161 147.63 770.469 149.781 773.316 149.781H916.38C919.227 149.781 921.535 147.63 921.535 144.977V109.298C921.535 106.645 919.227 104.494 916.38 104.494Z" fill="white"/>
<g id="Text">
<path id="Name" d="M893.401 118.083H822.072C820.058 118.083 818.426 119.604 818.426 121.48C818.426 123.356 820.058 124.877 822.072 124.877H893.401C895.414 124.877 897.047 123.356 897.047 121.48C897.047 119.604 895.414 118.083 893.401 118.083Z" fill="#C6D1D9"/>
<path id="Name_2" d="M867.553 129.406H822.072C820.058 129.406 818.426 130.927 818.426 132.804C818.426 134.68 820.058 136.201 822.072 136.201H867.553C869.567 136.201 871.199 134.68 871.199 132.804C871.199 130.927 869.567 129.406 867.553 129.406Z" fill="#C6D1D9"/>
</g>
<path id="Avatar" d="M795.227 141.555C803.769 141.555 810.693 135.102 810.693 127.142C810.693 119.182 803.769 112.729 795.227 112.729C786.685 112.729 779.76 119.182 779.76 127.142C779.76 135.102 786.685 141.555 795.227 141.555Z" fill="#C4CFD6"/>
</g>
<g id="Row_3">
<path id="Container_3" d="M916.38 159.743H773.316C770.469 159.743 768.161 161.894 768.161 164.548V200.227C768.161 202.88 770.469 205.031 773.316 205.031H916.38C919.227 205.031 921.535 202.88 921.535 200.227V164.548C921.535 161.894 919.227 159.743 916.38 159.743Z" fill="white"/>
<g id="Text Stuff_2">
<path id="Label_3" d="M854.735 173.332H783.406C781.393 173.332 779.76 174.853 779.76 176.729C779.76 178.606 781.393 180.127 783.406 180.127H854.735C856.749 180.127 858.381 178.606 858.381 176.729C858.381 174.853 856.749 173.332 854.735 173.332Z" fill="#C6D1D9"/>
<path id="Label_4" d="M828.887 184.656H783.406C781.393 184.656 779.76 186.177 779.76 188.053C779.76 189.93 781.393 191.451 783.406 191.451H828.887C830.901 191.451 832.533 189.93 832.533 188.053C832.533 186.177 830.901 184.656 828.887 184.656Z" fill="#C6D1D9"/>
</g>
<g id="Check_2">
<path id="Background_3" d="M905.143 190.8C910.126 190.8 914.165 187.035 914.165 182.392C914.165 177.749 910.126 173.984 905.143 173.984C900.161 173.984 896.121 177.749 896.121 182.392C896.121 187.035 900.161 190.8 905.143 190.8Z" fill="#C6D1D9"/>
<path id="Indicator_2" d="M905.143 185.995C907.279 185.995 909.01 184.382 909.01 182.392C909.01 180.402 907.279 178.789 905.143 178.789C903.008 178.789 901.277 180.402 901.277 182.392C901.277 184.382 903.008 185.995 905.143 185.995Z" fill="#F2F2F2"/>
</g>
</g>
<g id="Row_4">
<path id="Background_4" d="M916.38 214.993H773.316C770.469 214.993 768.161 217.144 768.161 219.797V255.476C768.161 258.13 770.469 260.281 773.316 260.281H916.38C919.227 260.281 921.535 258.13 921.535 255.476V219.797C921.535 217.144 919.227 214.993 916.38 214.993Z" fill="white"/>
<g id="Text_2">
<path id="Name_3" d="M893.401 228.582H822.072C820.058 228.582 818.426 230.103 818.426 231.979C818.426 233.855 820.058 235.376 822.072 235.376H893.401C895.414 235.376 897.047 233.855 897.047 231.979C897.047 230.103 895.414 228.582 893.401 228.582Z" fill="#C6D1D9"/>
<path id="Name_4" d="M867.553 239.906H822.072C820.058 239.906 818.426 241.427 818.426 243.303C818.426 245.179 820.058 246.7 822.072 246.7H867.553C869.567 246.7 871.199 245.179 871.199 243.303C871.199 241.427 869.567 239.906 867.553 239.906Z" fill="#C6D1D9"/>
</g>
<path id="Avatar_2" d="M795.227 252.054C803.769 252.054 810.693 245.602 810.693 237.642C810.693 229.681 803.769 223.229 795.227 223.229C786.685 223.229 779.76 229.681 779.76 237.642C779.76 245.602 786.685 252.054 795.227 252.054Z" fill="#C4CFD6"/>
</g>
</g>
</g>
<g id="Mobile3_2">
<path id="Container_4" d="M295.149 27.6248H110.842C105.147 27.6248 100.531 31.9267 100.531 37.2334V380.742C100.531 386.048 105.147 390.35 110.842 390.35H295.149C300.843 390.35 305.46 386.048 305.46 380.742V37.2334C305.46 31.9267 300.843 27.6248 295.149 27.6248Z" fill="#F2F2F2"/>
<path id="Touch_2" d="M202.351 367.53C213.028 367.53 221.684 359.464 221.684 349.513C221.684 339.563 213.028 331.497 202.351 331.497C191.674 331.497 183.018 339.563 183.018 349.513C183.018 359.464 191.674 367.53 202.351 367.53Z" fill="white"/>
<g id="Camera_2">
<path id="Lens_2" d="M185.596 51.6463C187.019 51.6463 188.174 50.5709 188.174 49.2442C188.174 47.9175 187.019 46.842 185.596 46.842C184.172 46.842 183.018 47.9175 183.018 49.2442C183.018 50.5709 184.172 51.6463 185.596 51.6463Z" fill="white"/>
<path id="Sensor_2" d="M219.106 46.842H197.196C195.772 46.842 194.618 47.9175 194.618 49.2442C194.618 50.5709 195.772 51.6463 197.196 51.6463H219.106C220.53 51.6463 221.684 50.5709 221.684 49.2442C221.684 47.9175 220.53 46.842 219.106 46.842Z" fill="white"/>
</g>
<g id="Rows_2">
<g id="Row_5">
<path id="Background_5" d="M282.26 61.2549H123.731C120.883 61.2549 118.575 63.4059 118.575 66.0593V121.309C118.575 123.962 120.883 126.113 123.731 126.113H282.26C285.108 126.113 287.416 123.962 287.416 121.309V66.0593C287.416 63.4059 285.108 61.2549 282.26 61.2549Z" fill="white"/>
<g id="Text_3">
<path id="Name_5" d="M259.061 80.7124H172.707C170.572 80.7124 168.841 82.3256 168.841 84.3156V86.8379C168.841 88.8279 170.572 90.4411 172.707 90.4411H259.061C261.196 90.4411 262.927 88.8279 262.927 86.8379V84.3156C262.927 82.3256 261.196 80.7124 259.061 80.7124Z" fill="#C6D1D9"/>
<path id="Name_6" d="M228.128 96.9269H172.707C170.572 96.9269 168.841 98.5402 168.841 100.53V103.052C168.841 105.042 170.572 106.656 172.707 106.656H228.128C230.264 106.656 231.995 105.042 231.995 103.052V100.53C231.995 98.5402 230.264 96.9269 228.128 96.9269Z" fill="#C6D1D9"/>
</g>
<path id="Avatar_3" d="M145.641 108.097C154.183 108.097 161.108 101.644 161.108 93.684C161.108 85.724 154.183 79.2711 145.641 79.2711C137.099 79.2711 130.175 85.724 130.175 93.684C130.175 101.644 137.099 108.097 145.641 108.097Z" fill="#C4CFD6"/>
</g>
<g id="Row_6">
<path id="Background_6" d="M282.26 135.722H123.731C120.883 135.722 118.575 137.873 118.575 140.526V181.363C118.575 184.016 120.883 186.167 123.731 186.167H282.26C285.108 186.167 287.416 184.016 287.416 181.363V140.526C287.416 137.873 285.108 135.722 282.26 135.722Z" fill="white"/>
<g id="Text_4">
<path id="Name_7" d="M259.061 150.855H172.707C170.572 150.855 168.841 152.469 168.841 154.459V154.819C168.841 156.809 170.572 158.422 172.707 158.422H259.061C261.196 158.422 262.927 156.809 262.927 154.819V154.459C262.927 152.469 261.196 150.855 259.061 150.855Z" fill="#C6D1D9"/>
<path id="Name_8" d="M228.128 163.467H172.707C170.572 163.467 168.841 165.08 168.841 167.07V167.43C168.841 169.42 170.572 171.033 172.707 171.033H228.128C230.264 171.033 231.995 169.42 231.995 167.43V167.07C231.995 165.08 230.264 163.467 228.128 163.467Z" fill="#C6D1D9"/>
</g>
<path id="Avatar_4" d="M145.641 175.357C154.183 175.357 161.108 168.904 161.108 160.944C161.108 152.984 154.183 146.531 145.641 146.531C137.099 146.531 130.175 152.984 130.175 160.944C130.175 168.904 137.099 175.357 145.641 175.357Z" fill="#C4CFD6"/>
</g>
<g id="Row_7">
<path id="Background_7" d="M282.26 195.776H123.731C120.883 195.776 118.575 197.927 118.575 200.58V241.417C118.575 244.07 120.883 246.221 123.731 246.221H282.26C285.108 246.221 287.416 244.07 287.416 241.417V200.58C287.416 197.927 285.108 195.776 282.26 195.776Z" fill="white"/>
<g id="Text_5">
<path id="Name_9" d="M259.061 210.909H172.707C170.572 210.909 168.841 212.522 168.841 214.512V214.873C168.841 216.863 170.572 218.476 172.707 218.476H259.061C261.196 218.476 262.927 216.863 262.927 214.873V214.512C262.927 212.522 261.196 210.909 259.061 210.909Z" fill="#C6D1D9"/>
<path id="Name_10" d="M228.128 223.52H172.707C170.572 223.52 168.841 225.134 168.841 227.124V227.484C168.841 229.474 170.572 231.087 172.707 231.087H228.128C230.264 231.087 231.995 229.474 231.995 227.484V227.124C231.995 225.134 230.264 223.52 228.128 223.52Z" fill="#C6D1D9"/>
</g>
<path id="Avatar_5" d="M145.641 235.411C154.183 235.411 161.108 228.958 161.108 220.998C161.108 213.038 154.183 206.585 145.641 206.585C137.099 206.585 130.175 213.038 130.175 220.998C130.175 228.958 137.099 235.411 145.641 235.411Z" fill="#AEB9C5"/>
</g>
<g id="Row_8">
<path id="Background_8" d="M282.26 255.829H123.731C120.883 255.829 118.575 257.98 118.575 260.634V301.47C118.575 304.124 120.883 306.275 123.731 306.275H282.26C285.108 306.275 287.416 304.124 287.416 301.47V260.634C287.416 257.98 285.108 255.829 282.26 255.829Z" fill="white"/>
<g id="Text_6">
<path id="Name_11" d="M259.061 270.963H172.707C170.572 270.963 168.841 272.576 168.841 274.566V274.927C168.841 276.917 170.572 278.53 172.707 278.53H259.061C261.196 278.53 262.927 276.917 262.927 274.927V274.566C262.927 272.576 261.196 270.963 259.061 270.963Z" fill="#C6D1D9"/>
<path id="Name_12" d="M228.128 283.574H172.707C170.572 283.574 168.841 285.188 168.841 287.178V287.538C168.841 289.528 170.572 291.141 172.707 291.141H228.128C230.264 291.141 231.995 289.528 231.995 287.538V287.178C231.995 285.188 230.264 283.574 228.128 283.574Z" fill="#C6D1D9"/>
</g>
<path id="Avatar_6" d="M145.641 295.465C154.183 295.465 161.108 289.012 161.108 281.052C161.108 273.092 154.183 266.639 145.641 266.639C137.099 266.639 130.175 273.092 130.175 281.052C130.175 289.012 137.099 295.465 145.641 295.465Z" fill="#C4CFD6"/>
</g>
</g>
</g>
<g id="Web">
<path id="Container_5" d="M734.65 120.108H323.504C317.809 120.108 313.193 124.41 313.193 129.716V526.072C313.193 531.378 317.809 535.68 323.504 535.68H734.65C740.345 535.68 744.961 531.378 744.961 526.072V129.716C744.961 124.41 740.345 120.108 734.65 120.108Z" fill="#F2F2F2"/>
<path id="Background_9" d="M714.028 171.754H644.43C638.735 171.754 634.119 176.056 634.119 181.363V259.433C634.119 264.739 638.735 269.041 644.43 269.041H714.028C719.723 269.041 724.339 264.739 724.339 259.433V181.363C724.339 176.056 719.723 171.754 714.028 171.754Z" fill="white"/>
<g id="Profile Info">
<path id="Avatar_7" d="M679.229 228.205C690.618 228.205 699.851 219.601 699.851 208.987C699.851 198.374 690.618 189.77 679.229 189.77C667.84 189.77 658.608 198.374 658.608 208.987C658.608 219.601 667.84 228.205 679.229 228.205Z" fill="#C6D1D9"/>
<path id="Name_13" d="M707.584 233.009H650.874C648.739 233.009 647.008 234.622 647.008 236.612C647.008 238.602 648.739 240.215 650.874 240.215H707.584C709.72 240.215 711.451 238.602 711.451 236.612C711.451 234.622 709.72 233.009 707.584 233.009Z" fill="#C6D1D9"/>
<path id="Name_14" d="M697.273 245.02H661.185C659.05 245.02 657.319 246.633 657.319 248.623C657.319 250.613 659.05 252.226 661.185 252.226H697.273C699.409 252.226 701.14 250.613 701.14 248.623C701.14 246.633 699.409 245.02 697.273 245.02Z" fill="#C6D1D9"/>
</g>
<path id="Header" d="M313.193 129.716C313.193 124.41 317.81 120.108 323.504 120.108H734.65C740.344 120.108 744.961 124.41 744.961 129.716V152.537H313.193V129.716Z" fill="#C4CFD6"/>
<g id="Buttons">
<path id="buttons" d="M329.948 141.727C332.795 141.727 335.104 139.576 335.104 136.923C335.104 134.269 332.795 132.119 329.948 132.119C327.101 132.119 324.793 134.269 324.793 136.923C324.793 139.576 327.101 141.727 329.948 141.727Z" fill="#F2F2F2"/>
<path id="buttons_2" d="M345.415 141.727C348.262 141.727 350.57 139.576 350.57 136.923C350.57 134.269 348.262 132.119 345.415 132.119C342.567 132.119 340.259 134.269 340.259 136.923C340.259 139.576 342.567 141.727 345.415 141.727Z" fill="#F2F2F2"/>
<path id="buttons_3" d="M360.881 141.727C363.728 141.727 366.036 139.576 366.036 136.923C366.036 134.269 363.728 132.119 360.881 132.119C358.034 132.119 355.725 134.269 355.725 136.923C355.725 139.576 358.034 141.727 360.881 141.727Z" fill="#F2F2F2"/>
</g>
<g id="Components">
<path id="Background_10" d="M714.028 278.65H644.43C638.735 278.65 634.119 282.952 634.119 288.259V502.05C634.119 507.357 638.735 511.659 644.43 511.659H714.028C719.723 511.659 724.339 507.357 724.339 502.05V288.259C724.339 282.952 719.723 278.65 714.028 278.65Z" fill="white"/>
<g id="Rows_3">
<path id="Data" d="M695.984 300.269H662.474C659.627 300.269 657.319 302.42 657.319 305.074V326.693C657.319 329.346 659.627 331.497 662.474 331.497H695.984C698.832 331.497 701.14 329.346 701.14 326.693V305.074C701.14 302.42 698.832 300.269 695.984 300.269Z" fill="#C6D1D9"/>
<path id="Data_2" d="M695.984 341.106H662.474C659.627 341.106 657.319 343.257 657.319 345.91V366.329C657.319 368.982 659.627 371.133 662.474 371.133H695.984C698.832 371.133 701.14 368.982 701.14 366.329V345.91C701.14 343.257 698.832 341.106 695.984 341.106Z" fill="#AEB9C5"/>
<path id="Data_3" d="M695.984 380.741H662.474C659.627 380.741 657.319 382.892 657.319 385.546V405.964C657.319 408.617 659.627 410.768 662.474 410.768H695.984C698.832 410.768 701.14 408.617 701.14 405.964V385.546C701.14 382.892 698.832 380.741 695.984 380.741Z" fill="#C6D1D9"/>
<path id="Data_4" d="M695.984 460.013H662.474C659.627 460.013 657.319 462.164 657.319 464.817V485.235C657.319 487.889 659.627 490.04 662.474 490.04H695.984C698.832 490.04 701.14 487.889 701.14 485.235V464.817C701.14 462.164 698.832 460.013 695.984 460.013Z" fill="#C6D1D9"/>
<path id="Data_5" d="M695.984 420.377H662.474C659.627 420.377 657.319 422.528 657.319 425.181V445.6C657.319 448.253 659.627 450.404 662.474 450.404H695.984C698.832 450.404 701.14 448.253 701.14 445.6V425.181C701.14 422.528 698.832 420.377 695.984 420.377Z" fill="#C4CFD6"/>
</g>
</g>
<g id="Rows_4">
<g id="Row_9">
<path id="Container_6" d="M618.653 172.955H338.97C336.123 172.955 333.815 175.106 333.815 177.759V224.601C333.815 227.255 336.123 229.406 338.97 229.406H618.653C621.5 229.406 623.808 227.255 623.808 224.601V177.759C623.808 175.106 621.5 172.955 618.653 172.955Z" fill="white"/>
<g id="Text Stuff_3">
<path id="Label_5" d="M556.788 189.89H349.281C347.146 189.89 345.414 191.504 345.414 193.494V194.755C345.414 196.745 347.146 198.358 349.281 198.358H556.788C558.923 198.358 560.654 196.745 560.654 194.755V193.494C560.654 191.504 558.923 189.89 556.788 189.89Z" fill="#C6D1D9"/>
<path id="Label_6" d="M486.024 204.003H349.281C347.146 204.003 345.414 205.616 345.414 207.606V208.867C345.414 210.857 347.146 212.471 349.281 212.471H486.024C488.159 212.471 489.891 210.857 489.891 208.867V207.606C489.891 205.616 488.159 204.003 486.024 204.003Z" fill="#C6D1D9"/>
</g>
<g id="Check_3">
<path id="Background_11" d="M592.816 209.588C597.799 209.588 601.838 205.824 601.838 201.18C601.838 196.537 597.799 192.773 592.816 192.773C587.833 192.773 583.794 196.537 583.794 201.18C583.794 205.824 587.833 209.588 592.816 209.588Z" fill="#C6D1D9"/>
<path id="Indicator_3" d="M592.816 204.784C594.952 204.784 596.683 203.17 596.683 201.18C596.683 199.19 594.952 197.577 592.816 197.577C590.681 197.577 588.95 199.19 588.95 201.18C588.95 203.17 590.681 204.784 592.816 204.784Z" fill="#F2F2F2"/>
</g>
</g>
<g id="Row_10">
<path id="Container_7" d="M618.653 239.014H338.97C336.123 239.014 333.815 241.165 333.815 243.819V281.052C333.815 283.705 336.123 285.856 338.97 285.856H618.653C621.5 285.856 623.808 283.705 623.808 281.052V243.819C623.808 241.165 621.5 239.014 618.653 239.014Z" fill="white"/>
<g id="Text Stuff_4">
<path id="Label_7" d="M556.884 253.067H349.184C347.102 253.067 345.414 254.64 345.414 256.58C345.414 258.52 347.102 260.093 349.184 260.093H556.884C558.966 260.093 560.654 258.52 560.654 256.58C560.654 254.64 558.966 253.067 556.884 253.067Z" fill="#C6D1D9"/>
<path id="Label_8" d="M486.121 264.777H349.184C347.102 264.777 345.414 266.35 345.414 268.291C345.414 270.231 347.102 271.804 349.184 271.804H486.121C488.203 271.804 489.891 270.231 489.891 268.291C489.891 266.35 488.203 264.777 486.121 264.777Z" fill="#C6D1D9"/>
</g>
<g id="Check_4">
<path id="Background_12" d="M592.816 270.843C597.799 270.843 601.838 267.079 601.838 262.435C601.838 257.792 597.799 254.028 592.816 254.028C587.833 254.028 583.794 257.792 583.794 262.435C583.794 267.079 587.833 270.843 592.816 270.843Z" fill="#C6D1D9"/>
<path id="Indicator_4" d="M592.816 266.039C594.952 266.039 596.683 264.425 596.683 262.435C596.683 260.445 594.952 258.832 592.816 258.832C590.681 258.832 588.95 260.445 588.95 262.435C588.95 264.425 590.681 266.039 592.816 266.039Z" fill="#F2F2F2"/>
</g>
</g>
<g id="Row_11">
<path id="Container_8" d="M618.653 295.465H338.97C336.123 295.465 333.815 297.616 333.815 300.269V337.503C333.815 340.156 336.123 342.307 338.97 342.307H618.653C621.5 342.307 623.808 340.156 623.808 337.503V300.269C623.808 297.616 621.5 295.465 618.653 295.465Z" fill="white"/>
<g id="Text Stuff_5">
<path id="Label_9" d="M556.884 309.518H349.184C347.102 309.518 345.414 311.09 345.414 313.031C345.414 314.971 347.102 316.544 349.184 316.544H556.884C558.966 316.544 560.654 314.971 560.654 313.031C560.654 311.09 558.966 309.518 556.884 309.518Z" fill="#C6D1D9"/>
<path id="Label_10" d="M486.121 321.228H349.184C347.102 321.228 345.414 322.801 345.414 324.741C345.414 326.682 347.102 328.254 349.184 328.254H486.121C488.203 328.254 489.891 326.682 489.891 324.741C489.891 322.801 488.203 321.228 486.121 321.228Z" fill="#C6D1D9"/>
</g>
<g id="Check_5">
<path id="Background_13" d="M592.816 327.294C597.799 327.294 601.838 323.529 601.838 318.886C601.838 314.243 597.799 310.478 592.816 310.478C587.833 310.478 583.794 314.243 583.794 318.886C583.794 323.529 587.833 327.294 592.816 327.294Z" fill="#C6D1D9"/>
<path id="Indicator_5" d="M592.816 322.489C594.952 322.489 596.683 320.876 596.683 318.886C596.683 316.896 594.952 315.283 592.816 315.283C590.681 315.283 588.95 316.896 588.95 318.886C588.95 320.876 590.681 322.489 592.816 322.489Z" fill="#AEB9C5"/>
</g>
</g>
<g id="Row_12">
<path id="Container_9" d="M618.653 464.817H338.97C336.123 464.817 333.815 466.968 333.815 469.621V506.855C333.815 509.508 336.123 511.659 338.97 511.659H618.653C621.5 511.659 623.808 509.508 623.808 506.855V469.621C623.808 466.968 621.5 464.817 618.653 464.817Z" fill="white"/>
<g id="Text Stuff_6">
<path id="Label_11" d="M556.884 478.869H349.184C347.102 478.869 345.414 480.442 345.414 482.383C345.414 484.323 347.102 485.896 349.184 485.896H556.884C558.966 485.896 560.654 484.323 560.654 482.383C560.654 480.442 558.966 478.869 556.884 478.869Z" fill="#C6D1D9"/>
<path id="Label_12" d="M486.121 490.58H349.184C347.102 490.58 345.414 492.153 345.414 494.093C345.414 496.033 347.102 497.606 349.184 497.606H486.121C488.203 497.606 489.891 496.033 489.891 494.093C489.891 492.153 488.203 490.58 486.121 490.58Z" fill="#C6D1D9"/>
</g>
<g id="Check_6">
<path id="Background_14" d="M592.816 496.645C597.799 496.645 601.838 492.881 601.838 488.238C601.838 483.595 597.799 479.83 592.816 479.83C587.833 479.83 583.794 483.595 583.794 488.238C583.794 492.881 587.833 496.645 592.816 496.645Z" fill="#C6D1D9"/>
<path id="Indicator_6" d="M592.816 491.841C594.952 491.841 596.683 490.228 596.683 488.238C596.683 486.248 594.952 484.635 592.816 484.635C590.681 484.635 588.95 486.248 588.95 488.238C588.95 490.228 590.681 491.841 592.816 491.841Z" fill="#F2F2F2"/>
</g>
</g>
<g id="Row_13">
<path id="Container_10" d="M618.653 408.366H338.97C336.123 408.366 333.815 410.517 333.815 413.171V450.404C333.815 453.057 336.123 455.208 338.97 455.208H618.653C621.5 455.208 623.808 453.057 623.808 450.404V413.171C623.808 410.517 621.5 408.366 618.653 408.366Z" fill="white"/>
<g id="Text Stuff_7">
<path id="Label_13" d="M556.884 422.419H349.184C347.102 422.419 345.414 423.992 345.414 425.932C345.414 427.872 347.102 429.445 349.184 429.445H556.884C558.966 429.445 560.654 427.872 560.654 425.932C560.654 423.992 558.966 422.419 556.884 422.419Z" fill="#C6D1D9"/>
<path id="Label_14" d="M486.121 434.129H349.184C347.102 434.129 345.414 435.702 345.414 437.642C345.414 439.583 347.102 441.156 349.184 441.156H486.121C488.203 441.156 489.891 439.583 489.891 437.642C489.891 435.702 488.203 434.129 486.121 434.129Z" fill="#C6D1D9"/>
</g>
<g id="Check_7">
<path id="Background_15" d="M592.816 440.195C597.799 440.195 601.838 436.431 601.838 431.787C601.838 427.144 597.799 423.38 592.816 423.38C587.833 423.38 583.794 427.144 583.794 431.787C583.794 436.431 587.833 440.195 592.816 440.195Z" fill="#C6D1D9"/>
<path id="Indicator_7" d="M592.816 435.39C594.952 435.39 596.683 433.777 596.683 431.787C596.683 429.797 594.952 428.184 592.816 428.184C590.681 428.184 588.95 429.797 588.95 431.787C588.95 433.777 590.681 435.39 592.816 435.39Z" fill="#F2F2F2"/>
</g>
</g>
<g id="Row_14">
<path id="Container_11" d="M618.653 351.916H338.97C336.123 351.916 333.815 354.067 333.815 356.72V393.953C333.815 396.607 336.123 398.758 338.97 398.758H618.653C621.5 398.758 623.808 396.607 623.808 393.953V356.72C623.808 354.067 621.5 351.916 618.653 351.916Z" fill="white"/>
<g id="Text Stuff_8">
<path id="Label_15" d="M556.884 365.968H349.184C347.102 365.968 345.414 367.541 345.414 369.481C345.414 371.422 347.102 372.995 349.184 372.995H556.884C558.966 372.995 560.654 371.422 560.654 369.481C560.654 367.541 558.966 365.968 556.884 365.968Z" fill="#C6D1D9"/>
<path id="Label_16" d="M486.121 377.679H349.184C347.102 377.679 345.414 379.252 345.414 381.192C345.414 383.132 347.102 384.705 349.184 384.705H486.121C488.203 384.705 489.891 383.132 489.891 381.192C489.891 379.252 488.203 377.679 486.121 377.679Z" fill="#C6D1D9"/>
</g>
<g id="Check_8">
<path id="Background_16" d="M592.816 383.744C597.799 383.744 601.838 379.98 601.838 375.337C601.838 370.693 597.799 366.929 592.816 366.929C587.833 366.929 583.794 370.693 583.794 375.337C583.794 379.98 587.833 383.744 592.816 383.744Z" fill="#C6D1D9"/>
<path id="Indicator_8" d="M592.816 378.94C594.952 378.94 596.683 377.327 596.683 375.337C596.683 373.347 594.952 371.733 592.816 371.733C590.681 371.733 588.95 373.347 588.95 375.337C588.95 377.327 590.681 378.94 592.816 378.94Z" fill="#F2F2F2"/>
</g>
</g>
</g>
</g>
<g id="grafico-home">
<g id="Graph">
<path id="Value" d="M496.211 69.6625C496.211 67.6725 494.48 66.0593 492.345 66.0593C490.209 66.0593 488.478 67.6725 488.478 69.6625V92.483C488.478 94.473 490.209 96.0862 492.345 96.0862C494.48 96.0862 496.211 94.473 496.211 92.483V69.6625Z" fill="#063B1D"/>
<path id="Value_2" d="M514.255 50.4453C514.255 48.4553 512.524 46.842 510.389 46.842C508.253 46.842 506.522 48.4553 506.522 50.4453V92.483C506.522 94.473 508.253 96.0862 510.389 96.0862C512.524 96.0862 514.255 94.473 514.255 92.483V50.4453Z" fill="#568B6D"/>
<path id="Value_3" d="M532.299 40.8366C532.299 38.8466 530.568 37.2334 528.433 37.2334C526.297 37.2334 524.566 38.8466 524.566 40.8366V92.483C524.566 94.473 526.297 96.0862 528.433 96.0862C530.568 96.0862 532.299 94.473 532.299 92.483V40.8366Z" fill="#2BBA68"/>
<path id="Value_4" d="M550.343 50.4453C550.343 48.4553 548.612 46.842 546.477 46.842C544.341 46.842 542.61 48.4553 542.61 50.4453V92.483C542.61 94.473 544.341 96.0862 546.477 96.0862C548.612 96.0862 550.343 94.473 550.343 92.483V50.4453Z" fill="#FF9A00"/>
<path id="Value_5" d="M568.387 31.228C568.387 29.238 566.656 27.6248 564.521 27.6248C562.385 27.6248 560.654 29.238 560.654 31.228V92.483C560.654 94.473 562.385 96.0862 564.521 96.0862C566.656 96.0862 568.387 94.473 568.387 92.483V31.228Z" fill="#FF7E00"/>
</g>
</g>
<g id="tarat-home-2">
<g id="Chart">
<path id="Value_6" fill-rule="evenodd" clip-rule="evenodd" d="M899.323 496.26C896.847 498.71 893.339 500.249 889.436 500.249C881.939 500.249 875.86 494.602 875.86 487.637C875.86 480.672 881.939 475.026 889.436 475.026V451.605C868.107 451.605 850.648 467.823 850.648 487.637C850.648 507.451 868.107 523.67 889.436 523.67C900.64 523.67 910.767 519.267 917.668 512.262L899.323 496.26Z" fill="#2BBA68"/>
<path id="Value_7" fill-rule="evenodd" clip-rule="evenodd" d="M889.313 451.605V475.026C896.788 475.026 902.847 480.672 902.847 487.637H927.979C927.979 467.823 910.576 451.605 889.313 451.605Z" fill="#A8E5BA"/>
<path id="Value_8" fill-rule="evenodd" clip-rule="evenodd" d="M902.327 487.637C902.327 491.729 900.258 495.366 897.047 497.716L912.851 516.463C922.049 509.752 927.979 499.347 927.979 487.637H902.327Z" fill="#FF7E00"/>
</g>
</g>
<g id="tarta-home">
<g id="Chart_2">
<path id="Value_9" fill-rule="evenodd" clip-rule="evenodd" d="M37.4427 202.386C35.5377 204.265 32.8389 205.444 29.8371 205.444C24.0695 205.444 19.3948 201.116 19.3948 195.776C19.3948 190.436 24.0695 186.107 29.8371 186.107V168.151C13.4299 168.151 0 180.584 0 195.776C0 210.967 13.4299 223.4 29.8371 223.4C38.4557 223.4 46.2443 220.024 51.5544 214.654L37.4427 202.386Z" fill="#FF7E00"/>
<path id="Value_10" fill-rule="evenodd" clip-rule="evenodd" d="M29.6438 168.151V186.107C35.3741 186.107 40.0191 190.436 40.0191 195.776H59.2876C59.2876 180.584 45.9453 168.151 29.6438 168.151Z" fill="#2BBA68"/>
<path id="Value_11" fill-rule="evenodd" clip-rule="evenodd" d="M40.0487 195.776C40.0487 198.844 38.497 201.573 36.0881 203.334L47.9404 217.395C54.841 212.361 59.2876 204.558 59.2876 195.776H40.0487Z" fill="#A8E5BA"/>
</g>
</g>
<g id="Image">
<path id="Fill 35" fill-rule="evenodd" clip-rule="evenodd" d="M934.433 180.145C934.428 180.157 934.422 180.169 934.415 180.184C934.422 180.172 934.433 180.123 934.433 180.145Z" fill="#C4CFD6"/>
<path id="Fill 37" fill-rule="evenodd" clip-rule="evenodd" d="M934.421 180.163C934.421 180.166 934.418 180.17 934.418 180.175C934.418 180.163 934.442 180.126 934.421 180.163Z" fill="#C4CFD6"/>
<path id="Fill 39" fill-rule="evenodd" clip-rule="evenodd" d="M934.51 179.96C934.492 180.008 934.469 180.053 934.448 180.102C934.458 180.078 934.469 180.058 934.479 180.034C934.211 180.659 934.381 180.253 934.51 179.96Z" fill="#C4CFD6"/>
<path id="Fill 41" fill-rule="evenodd" clip-rule="evenodd" d="M934.452 180.105C934.442 180.127 934.431 180.151 934.421 180.173C934.346 180.308 934.452 180.105 934.452 180.105Z" fill="#C4CFD6"/>
<path id="Fill 45" fill-rule="evenodd" clip-rule="evenodd" d="M934.422 180.164C934.422 180.162 934.422 180.162 934.425 180.159C934.422 180.162 934.422 180.162 934.422 180.164Z" fill="#C4CFD6"/>
<path id="Fill 47" fill-rule="evenodd" clip-rule="evenodd" d="M934.411 180.182C934.395 180.211 934.484 180.069 934.411 180.182V180.182Z" fill="#C4CFD6"/>
<path id="Fill 49" fill-rule="evenodd" clip-rule="evenodd" d="M934.421 180.164L934.426 180.159C934.424 180.162 934.424 180.164 934.421 180.164Z" fill="#C4CFD6"/>
<path id="Photo Background" d="M989.845 117.706H877.714C874.867 117.706 872.558 119.857 872.558 122.51V188.569C872.558 191.222 874.867 193.373 877.714 193.373H989.845C992.692 193.373 995 191.222 995 188.569V122.51C995 119.857 992.692 117.706 989.845 117.706Z" fill="#C4CFD6"/>
<path id="Mountains" fill-rule="evenodd" clip-rule="evenodd" d="M918.957 139.325L882.869 193.373H955.045L918.957 139.325Z" fill="#AEB9C5"/>
<path id="Mountains_2" fill-rule="evenodd" clip-rule="evenodd" d="M954.401 153.738L922.824 193.373H985.978L954.401 153.738Z" fill="#AEB9C5"/>
<path id="Sun" d="M967.934 153.738C974.34 153.738 979.534 148.898 979.534 142.928C979.534 136.958 974.34 132.119 967.934 132.119C961.527 132.119 956.334 136.958 956.334 142.928C956.334 148.898 961.527 153.738 967.934 153.738Z" fill="white"/>
</g>
<g id="Image_2">
<path id="Fill 35_2" fill-rule="evenodd" clip-rule="evenodd" d="M100.522 559.685C100.527 559.698 100.533 559.71 100.54 559.724C100.533 559.712 100.522 559.663 100.522 559.685Z" fill="#C4CFD6"/>
<path id="Fill 37_2" fill-rule="evenodd" clip-rule="evenodd" d="M100.534 559.703C100.534 559.706 100.536 559.711 100.536 559.716C100.536 559.703 100.513 559.667 100.534 559.703Z" fill="#C4CFD6"/>
<path id="Fill 39_2" fill-rule="evenodd" clip-rule="evenodd" d="M100.445 559.5C100.463 559.548 100.486 559.594 100.507 559.642C100.496 559.618 100.486 559.599 100.476 559.575C100.744 560.199 100.574 559.793 100.445 559.5Z" fill="#C4CFD6"/>
<path id="Fill 41_2" fill-rule="evenodd" clip-rule="evenodd" d="M100.503 559.646C100.513 559.667 100.523 559.691 100.534 559.713C100.609 559.849 100.503 559.646 100.503 559.646Z" fill="#C4CFD6"/>
<path id="Fill 45_2" fill-rule="evenodd" clip-rule="evenodd" d="M100.532 559.704C100.532 559.702 100.532 559.702 100.53 559.7C100.532 559.702 100.532 559.702 100.532 559.704Z" fill="#C4CFD6"/>
<path id="Fill 47_2" fill-rule="evenodd" clip-rule="evenodd" d="M100.544 559.722C100.56 559.751 100.471 559.609 100.544 559.722V559.722Z" fill="#C4CFD6"/>
<path id="Fill 49_2" fill-rule="evenodd" clip-rule="evenodd" d="M100.534 559.704L100.529 559.7C100.531 559.702 100.531 559.704 100.534 559.704Z" fill="#C4CFD6"/>
<path id="Photo Background_2" d="M14.1775 467.219H186.885C189.732 467.219 192.04 469.37 192.04 472.023V575.316C192.04 577.969 189.732 580.12 186.885 580.12H14.1775C11.3302 580.12 9.02203 577.969 9.02203 575.316V472.023C9.02203 469.37 11.3302 467.219 14.1775 467.219Z" fill="#C6D1D9"/>
<path id="Mountains_3" fill-rule="evenodd" clip-rule="evenodd" d="M124.084 499.648L176.998 580.12H71.1696L124.084 499.648Z" fill="#AEB9C5"/>
<path id="Mountains_4" fill-rule="evenodd" clip-rule="evenodd" d="M69.5262 521.204L116.305 580.12H22.7471L69.5262 521.204Z" fill="#C4CFD6"/>
<path id="Sun_2" d="M49.6211 521.267C40.0115 521.267 32.2215 514.008 32.2215 505.053C32.2215 496.098 40.0115 488.838 49.6211 488.838C59.2306 488.838 67.0207 496.098 67.0207 505.053C67.0207 514.008 59.2306 521.267 49.6211 521.267Z" fill="white"/>
</g>
</g>
</g>
<g id="Master/Pose/Standing">
<g id="Master/Pose/Standing_2">
<g id="Head/Front">
<g id="Head/Front/Airy">
<g id="Head">
<path id="SKIN" fill-rule="evenodd" clip-rule="evenodd" d="M748.911 238.107C740.565 242.795 732.364 245.06 728.515 244.135C718.862 241.816 717.975 208.909 725.444 195.936C732.912 182.963 771.308 177.309 773.243 203.013C773.915 211.934 769.895 219.895 763.956 226.391L774.605 272.645H743.672L748.911 238.107Z" fill="#DCAE92"/>
</g>
<path id="hair" fill-rule="evenodd" clip-rule="evenodd" d="M743.074 180.985C747.151 180.362 758.128 179.933 760.153 179.933C761.446 179.933 762.848 180.209 763.614 179.102C764.242 178.196 764.012 176.662 764.199 175.611C764.417 174.389 764.726 173.182 765.038 171.979C765.927 168.555 767.271 165.298 769.152 162.24C772.681 156.503 777.851 152.008 784.379 149.393C791.587 146.506 799.743 145.845 807.496 146.43C815.793 147.057 823.303 149.609 831.137 152.011C838.602 154.3 846.421 155.201 854.228 154.083C862.095 152.957 868.039 148.984 874.674 145.213C881.466 141.352 889.229 138.827 897.259 139.408C904.755 139.95 911.663 142.834 917.861 146.687C923.66 150.292 928.445 154.629 931.147 160.733C934.053 167.299 934.051 174.507 929.272 180.31C922.344 188.721 909.484 190.896 898.785 190.68C892.597 190.555 886.519 189.503 880.676 187.588C872.885 185.034 866.151 180.705 858.862 177.193C855.441 175.544 851.905 174.191 848.198 173.216C844.601 172.269 841.059 171.835 837.802 173.86C834.357 176.002 831.27 178.106 827.329 179.447C823.549 180.733 819.544 181.453 815.516 181.424C807.679 181.367 799.953 179.092 792.342 177.567C786.134 176.325 779.493 175.086 773.165 176.281C770.524 176.779 766.667 177.809 765.714 180.366C781.766 183.077 788.07 201.577 783.545 215.158C781.102 222.488 766.421 231.056 760.713 227.203C757.096 224.762 759.292 221.556 760.713 219.441C763.434 215.389 764.365 210.185 759.33 207.364C754.987 204.931 750.42 210.708 750.334 210.702C749.14 210.614 738.826 205.178 731.719 197.246C724.709 197.633 723.645 193.325 725.319 189.802C726.993 186.28 737.441 181.846 743.074 180.985Z" fill="#181658"/>
</g>
</g>
<g id="Lower Body/Standing">
<g id="Lower Body/Standing/Baggy Pants">
<path id="SKIN_2" fill-rule="evenodd" clip-rule="evenodd" d="M777.182 372.334L713.923 521.54L671.495 647.681H654.741L722.182 372.334H777.182Z" fill="#DCAE92"/>
<path id="SKIN_3" fill-rule="evenodd" clip-rule="evenodd" d="M789.92 372.334C790.594 424.766 800.418 495.357 801.988 498.626C803.558 501.894 910.353 581.751 910.353 581.751L898.814 593.259C898.814 593.259 772.804 524.791 766.974 515.66C761.143 506.528 742.159 422.495 726.917 372.334H789.92Z" fill="#DCAE92"/>
<g id="Left [Shoe]">
<path id="shoe" fill-rule="evenodd" clip-rule="evenodd" d="M908.497 579.597C908.919 578.247 910.446 577.443 911.863 577.926C914.449 578.806 918.23 580.231 919.906 581.541C922.576 583.63 926.953 588.465 926.953 588.465C924.353 591.353 880.226 640.359 880.226 640.359C880.226 640.359 871.229 636.77 874.581 631.965C877.933 627.159 880.067 623.916 880.067 623.916L890.247 590.774C890.447 590.123 891.184 589.755 891.876 589.96L897.308 591.565C897.308 591.565 902.96 589.11 905.232 586.587C906.614 585.052 907.789 581.859 908.497 579.597Z" fill="#E3E4E4"/>
</g>
<g id="Right {Shoe]">
<path id="shoe_2" fill-rule="evenodd" clip-rule="evenodd" d="M674.783 640.515C676.164 639.95 677.806 640.522 678.321 641.845C679.259 644.255 680.518 647.872 680.518 649.91C680.518 653.159 679.357 659.391 679.357 659.391C675.312 659.391 606.663 659.391 606.663 659.391C606.663 659.391 603.828 650.662 609.934 649.965C616.039 649.27 620.077 648.709 620.077 648.709L653.864 634.672C654.528 634.396 655.304 634.685 655.581 635.311L657.753 640.221C657.753 640.221 663.405 642.678 666.937 642.678C669.088 642.678 672.468 641.464 674.783 640.515Z" fill="#E3E4E4"/>
</g>
<path id="Pant" fill-rule="evenodd" clip-rule="evenodd" d="M734.65 634.689L654.993 626.632L719.184 372.334H785.375L734.65 634.689Z" fill="#C4C4C4"/>
<path id="Pant_2" fill-rule="evenodd" clip-rule="evenodd" d="M893.876 563.185L841.626 620.82C841.626 620.82 759.074 536.8 745.37 511.174C731.666 485.547 720.732 372.334 720.732 372.334H801.055C801.055 372.334 807.027 471.934 809.106 476.569C811.187 481.204 893.876 563.185 893.876 563.185Z" fill="white"/>
</g>
</g>
<g id="Upper Body">
<g id="Upper Body/Trench Coat">
<path id="SKIN_4" fill-rule="evenodd" clip-rule="evenodd" d="M890.567 412.211C885.517 405.79 855.108 336.752 855.108 336.752L832.41 340.582C832.41 340.582 871.926 413.657 874.74 417.857C878.395 423.314 875.689 432.558 873.855 438.827C873.571 439.797 873.308 440.696 873.093 441.498C877.478 442.525 879.043 440.155 880.693 437.657C882.557 434.834 884.529 431.848 890.796 433.409C893.217 434.01 895.552 434.81 897.833 435.591C905.711 438.287 912.949 440.764 920.907 434.162C922.169 433.116 923.141 429.795 918.939 428.016C908.471 423.583 893.036 415.35 890.567 412.211ZM627.948 376.604L669.06 348.47L678.149 369.407L637.437 385.139C625.923 397.743 619.484 402.997 618.122 400.902C616.972 399.135 617.871 397.481 618.698 395.958C619.342 394.771 619.944 393.663 619.501 392.643C618.49 390.314 610.756 390.559 603.426 391.084C596.098 391.609 598.233 388.57 600 387.07C607.482 382.896 616.798 379.408 627.948 376.604Z" fill="#DCAE92"/>
<path id="Back Arm" fill-rule="evenodd" clip-rule="evenodd" d="M743.332 248.673L757.116 253.941C756.972 257.296 756.986 262.069 757.002 267.537C757.053 284.699 757.125 308.709 752.367 317.23C735.884 346.752 702.038 362.131 664.342 379.258C659.289 381.553 654.167 383.881 649.008 386.278L638.637 366.547C639.838 365.753 641.029 364.955 642.209 364.153C640.58 363.621 639.22 362.419 638.626 360.776C637.604 357.947 639.236 354.882 642.271 353.929C648.44 351.992 654.194 351.175 659.484 351.529C698.112 321.196 724.116 285.686 743.332 248.673Z" fill="#078135"/>
<path id="Shirt" fill-rule="evenodd" clip-rule="evenodd" d="M805.538 383.036C805.538 383.036 744.759 389.257 709.858 383.036C706.975 382.521 707.101 370.941 708.439 367.778C729.256 318.528 742.951 282.474 742.951 248.266C748.68 251.055 763.005 249.102 763.005 249.102C788.672 284.355 800.469 324.803 805.538 383.036Z" fill="#191847"/>
<path id="Coat Front" fill-rule="evenodd" clip-rule="evenodd" d="M882.621 383.631C846.805 288.234 773.347 246.221 773.347 246.221H771.342H766.386H758.69C760.35 266.682 752.549 296.457 743.5 330.998C729.026 386.239 711.359 453.67 724.093 514.683C739.752 517.942 758.151 515.717 778.069 513.309C806.816 509.832 838.727 505.974 870.132 517.664C868.921 493.222 853.607 466.167 838.363 439.233C828.7 422.159 819.064 405.135 813.066 388.858C814.442 387.651 815.16 385.842 814.807 383.98L814.136 380.43C813.681 378.026 811.585 376.275 809.111 376.001C808.678 374.199 808.305 372.41 807.997 370.632C806.423 361.554 807.428 352.582 808.421 343.711L808.422 343.711C808.967 338.84 809.509 334 809.619 329.19C826.881 343.52 847.776 368.506 865.408 411.815L889.75 405.139C888.819 401.916 887.844 398.747 886.828 395.63C889.645 394.183 892.967 387.311 890.594 386.166C888.086 384.955 885.426 384.113 882.621 383.631Z" fill="#2CBA68"/>
<path id="Shade Lapel" fill-rule="evenodd" clip-rule="evenodd" d="M768.024 247.422L774.673 266.477L761.283 280.763L773.384 291.988L744.108 338.704L779.91 292.082L768.024 280.763L779.91 268.139L768.024 247.422Z" fill="black" fill-opacity="0.1"/>
<path id="Buttons_2" fill-rule="evenodd" clip-rule="evenodd" d="M747.539 351.916C747.539 354.569 749.847 356.72 752.694 356.72C755.541 356.72 757.85 354.569 757.85 351.916C757.85 349.262 755.541 347.111 752.694 347.111C749.847 347.111 747.539 349.262 747.539 351.916ZM741.095 379.54C741.095 382.194 743.403 384.345 746.25 384.345C749.097 384.345 751.405 382.194 751.405 379.54C751.405 376.887 749.097 374.736 746.25 374.736C743.403 374.736 741.095 376.887 741.095 379.54ZM744.961 411.969C742.114 411.969 739.806 409.818 739.806 407.165C739.806 404.512 742.114 402.361 744.961 402.361C747.808 402.361 750.117 404.512 750.117 407.165C750.117 409.818 747.808 411.969 744.961 411.969Z" fill="black" fill-opacity="0.4"/>
</g>
</g>
</g>
</g>
<g id="Master/Pose/Sitting">
<g id="Master/Pose/Sitting_2">
<g id="Head/Front_2">
<g id="Head/Front/Top">
<g id="Head_2">
<path id="SKIN_5" fill-rule="evenodd" clip-rule="evenodd" d="M449.729 325.785C458.075 330.473 466.276 332.738 470.125 331.814C479.778 329.495 480.665 296.588 473.196 283.615C465.728 270.642 427.332 264.988 425.397 290.691C424.725 299.612 428.745 307.574 434.684 314.07L424.035 360.323H454.968L449.729 325.785Z" fill="#57331F"/>
</g>
<path id="Hair" fill-rule="evenodd" clip-rule="evenodd" d="M423.59 290.552C422.89 290.624 422.178 290.661 421.457 290.661C410.78 290.661 402.124 282.595 402.124 272.645C402.124 262.694 410.78 254.628 421.457 254.628C432.043 254.628 440.641 262.556 440.788 272.388C456.328 267.371 476.493 273.234 473.794 284.992C472.138 292.207 463.497 295.972 454.677 299.813C454.267 299.992 453.856 300.171 453.446 300.35C452.087 298.152 449.495 296.666 446.521 296.666C442.139 296.666 438.586 299.893 438.586 303.873C438.586 305.306 439.047 306.642 439.842 307.764C436.736 310.282 434.545 313.312 434.015 317.243C429.009 317.243 420.919 303.547 423.59 290.552Z" fill="#E7E1E1"/>
</g>
</g>
<g id="Lower Body/Sitting">
<g id="Lower Body/Sitting/Sweat Pants">
<g id="Seat">
<path id="Ballsy Ball" d="M411.146 669C465.956 669 510.389 629.476 510.389 580.721C510.389 531.966 465.956 492.442 411.146 492.442C356.336 492.442 311.904 531.966 311.904 580.721C311.904 629.476 356.336 669 411.146 669Z" fill="#C4CFD6"/>
</g>
<path id="SKIN_6" fill-rule="evenodd" clip-rule="evenodd" d="M565.437 576.013C570.23 591.66 582.174 621.32 598.687 655.38L614.38 651.112C600.651 572.737 589.226 520.848 582.681 505.055C578.357 494.621 545.643 495.843 549.406 516.839C550.985 525.643 557.23 549.22 565.437 576.013ZM500.937 520.5C475.347 525.441 422.287 542.907 407.135 548.488C397.613 551.996 403.752 563.891 411.876 562.851C413.251 562.674 418.119 562.167 425.381 561.41C448.706 558.978 496.742 553.97 533.174 549.084C552.358 546.511 542.038 513.026 522.12 516.569C515.419 517.761 508.292 519.081 500.937 520.5Z" fill="#57331F"/>
<path id="Leg Back" fill-rule="evenodd" clip-rule="evenodd" d="M583.685 496.21C581.068 488.254 462.136 460.013 462.136 460.013H452.39V468.476L534.345 507.355C534.236 508.609 534.302 509.935 534.566 511.333C533.975 540.155 547.213 561.687 560.318 583.005C568.889 596.945 577.402 610.795 581.956 626.531L612.065 622.345C611.189 620.255 609.802 610.829 607.905 597.943C603.125 565.449 595.104 510.949 583.854 496.529C583.815 496.479 583.775 496.429 583.734 496.379C583.72 496.323 583.703 496.267 583.685 496.21Z" fill="#56919C"/>
<path id="Leg Front" fill-rule="evenodd" clip-rule="evenodd" d="M459.199 530.444C451.7 529.045 444.795 527.797 438.887 526.831C400.718 520.593 389.589 501.553 396.17 460.013H466.493C477.98 463.088 537.679 486.418 568.654 498.827C589.155 507.04 582.692 536.647 571.082 544.352C571.019 544.824 570.81 545.145 570.438 545.289C526.422 562.289 488.888 561.021 464.785 560.207C454.689 559.865 446.951 559.604 442.079 560.798L434.445 538.357L459.199 530.444Z" fill="#89C5CC"/>
<g id="Left [shoe]">
<path id="shoe_3" fill-rule="evenodd" clip-rule="evenodd" d="M415.177 547.325C415.117 545.919 413.845 544.796 412.345 544.944C409.607 545.216 405.568 545.746 403.603 546.639C400.469 548.063 394.966 551.769 394.966 551.769C396.739 555.156 426.833 612.655 426.833 612.655C426.833 612.655 436.496 611.202 434.49 605.784C432.486 600.364 431.256 596.737 431.256 596.737L429.983 562.284C429.959 561.608 429.339 561.084 428.614 561.127L422.927 561.46C422.927 561.46 418.079 557.803 416.53 554.844C415.588 553.042 415.276 549.68 415.177 547.325Z" fill="#E3E4E4"/>
</g>
<g id="Right [shoe]">
<path id="shoe_2_2" fill-rule="evenodd" clip-rule="evenodd" d="M594.744 647.722C593.363 647.156 591.721 647.729 591.207 649.051C590.268 651.462 589.009 655.078 589.009 657.117C589.009 660.365 590.17 666.598 590.17 666.598C594.215 666.598 662.865 666.598 662.865 666.598C662.865 666.598 665.699 657.868 659.593 657.172C653.488 656.476 649.45 655.915 649.45 655.915L615.663 641.878C614.999 641.602 614.223 641.892 613.946 642.517L611.774 647.427C611.774 647.427 606.123 649.885 602.59 649.885C600.439 649.885 597.059 648.671 594.744 647.722Z" fill="#E3E4E4"/>
</g>
</g>
</g>
<g id="Upper Body_2">
<g id="Upper Body/Pointing Forward">
<g id="manos-chica-sentada">
<g id="manos">
<path id="SKIN_7" fill-rule="evenodd" clip-rule="evenodd" d="M526.303 362.353L481.567 385.186L498.088 401.71L530.594 373.974C547.718 369.576 555.549 366.359 554.086 364.322C552.854 362.605 550.865 362.665 549.035 362.719C547.608 362.762 546.277 362.802 545.471 361.997C543.633 360.158 547.14 353.73 550.749 347.762C554.357 341.794 550.499 342.313 548.293 343.172C541.073 347.727 533.743 354.12 526.303 362.353ZM571.282 394.391L551.632 404.451L552.751 422.828C552.751 422.828 565.478 414.267 576.427 411.422C590.388 407.795 596.037 405.024 602.859 396.924C606.509 392.59 609.608 383.877 606.133 381.039C604.8 379.95 599.834 382.522 594.768 385.146C590.906 387.146 586.986 389.175 584.57 389.639C581.32 390.263 581.7 386.335 582.004 383.197C582.222 380.945 582.401 379.1 581.17 379.633C575.418 379.725 571.282 394.391 571.282 394.391Z" fill="#3D2216"/>
<path id="Mask" fill-rule="evenodd" clip-rule="evenodd" d="M459.78 380.099C475.45 379.945 496.345 376.861 518.641 363.673L527.396 381.869C512.018 396.092 490.393 407.777 471.486 407.282C456.585 406.893 448.971 390.097 459.78 380.099Z" fill="#BA470B"/>
</g>
<mask id="mask0_12_2314" style="mask-type:alpha" maskUnits="userSpaceOnUse" x="454" y="363" width="74" height="45">
<g id="mask0_215_4854178b7830-e850-4c50-90e5-3467f79750f2">
<path id="Mask_2" fill-rule="evenodd" clip-rule="evenodd" d="M459.78 380.099C475.45 379.945 496.345 376.861 518.641 363.673L527.396 381.869C512.018 396.092 490.393 407.777 471.486 407.282C456.585 406.893 448.971 390.097 459.78 380.099Z" fill="white"/>
</g>
</mask>
<g mask="url(#mask0_12_2314)">
</g>
</g>
<g id="Group 27">
<path id="Mask_3" fill-rule="evenodd" clip-rule="evenodd" d="M417.52 504.763C402.623 502.953 388.935 501.29 380.823 502.778C371.722 475.234 379.279 457.891 386.256 441.882C390.46 432.233 394.454 423.068 394.463 412.446C394.488 381.513 421.14 333.899 425.062 333.899H426.187H457.266H460.824C462.422 353.041 469.247 373.767 476.114 394.625C477.719 399.497 479.324 404.375 480.867 409.242C506.857 414.74 564.567 395.603 564.567 395.603C564.567 395.603 579.136 423.69 578.037 435.651C544.445 452.003 515.656 459.293 491.936 459.775C492.69 472.889 490.977 485.37 485.222 496.773C477.511 512.052 445.399 508.151 417.52 504.763Z" fill="#FE7E10"/>
<mask id="mask1_12_2314" style="mask-type:alpha" maskUnits="userSpaceOnUse" x="376" y="333" width="203" height="175">
<g id="mask1_215_4854178b7830-e850-4c50-90e5-3467f79750f2">
<path id="Mask_2_2" fill-rule="evenodd" clip-rule="evenodd" d="M417.52 504.763C402.623 502.953 388.935 501.29 380.823 502.778C371.722 475.234 379.279 457.891 386.256 441.882C390.46 432.233 394.454 423.068 394.463 412.446C394.488 381.513 421.14 333.899 425.062 333.899H426.187H457.266H460.824C462.422 353.041 469.247 373.767 476.114 394.625C477.719 399.497 479.324 404.375 480.867 409.242C506.857 414.74 564.567 395.603 564.567 395.603C564.567 395.603 579.136 423.69 578.037 435.651C544.445 452.003 515.656 459.293 491.936 459.775C492.69 472.889 490.977 485.37 485.222 496.773C477.511 512.052 445.399 508.151 417.52 504.763Z" fill="white"/>
</g>
</mask>
<g mask="url(#mask1_12_2314)">
</g>
</g>
</g>
</g>
</g>
</g>
<g id="Master/Pose/Standing_3">
<g id="Master/Pose/Standing_4">
<g id="Head/Front_3">
<g id="Head/Front/Short Beard">
<g id="Head_3">
<path id="SKIN_8" fill-rule="evenodd" clip-rule="evenodd" d="M238.356 238.107C246.702 242.795 254.903 245.06 258.752 244.135C268.405 241.816 269.292 208.909 261.823 195.936C254.355 182.963 215.959 177.309 214.024 203.013C213.352 211.934 217.372 219.895 223.311 226.391L212.662 272.645H243.595L238.356 238.107Z" fill="#B28B68"/>
</g>
<path id="Hair_2" fill-rule="evenodd" clip-rule="evenodd" d="M235.5 209.039C235.196 209.005 234.887 208.987 234.573 208.987C230.302 208.987 226.84 212.214 226.84 216.194C226.84 218.214 227.732 220.04 229.169 221.349C227.38 223.703 225.374 226.161 223.077 228.698C214.444 223.872 206.749 208.542 215.189 194.969C217.522 188.319 224.092 185.969 230.329 184.32C235.381 182.35 240.626 182.128 245.054 183.309C253.733 184.003 261.483 186.469 263.679 187.934C263.679 195.591 262.087 197.863 248.488 197.662C245.147 199.307 242.578 202.139 239.903 205.851C239.925 206.136 241.726 228.907 249.299 228.907C253.883 228.907 258.049 227.275 261.37 225.975C263.569 225.114 265.397 224.398 266.729 224.398C269.167 224.398 268.623 227.241 267.007 229.349C266.495 230.017 265.221 230.675 263.847 231.386C261.644 232.526 259.182 233.799 259.182 235.459C259.182 236.982 260.819 236.979 262.243 236.976C263.34 236.974 264.311 236.973 264.311 237.668C264.311 238.001 264.325 238.371 264.34 238.763C264.446 241.486 264.592 245.285 260.287 245.285C255.302 245.285 241.01 243.592 238.561 236.698C236.483 230.85 235.693 214.015 235.5 209.039Z" fill="#2C1B18"/>
</g>
</g>
<g id="Lower Body/Standing_2">
<g id="Lower Body/Standing/Sprint">
<path id="SKIN_9" fill-rule="evenodd" clip-rule="evenodd" d="M187.715 372.334C190.039 401.892 339.753 488.915 340.625 491.356C341.208 492.985 294.025 594.267 294.025 594.267L307.112 599.006C307.112 599.006 379.483 491.74 375.766 480.311C370.443 463.947 259.605 372.648 259.605 372.648L187.715 372.334Z" fill="#B28B68"/>
<path id="shadow" fill-rule="evenodd" clip-rule="evenodd" d="M187.715 372.334C190.039 401.892 339.753 488.915 340.625 491.356C341.208 492.985 294.025 594.267 294.025 594.267L307.112 599.006C307.112 599.006 379.483 491.74 375.766 480.311C370.443 463.947 259.605 372.648 259.605 372.648L187.715 372.334Z" fill="black" fill-opacity="0.1"/>
<path id="Pant_3" fill-rule="evenodd" clip-rule="evenodd" d="M297.469 579.018L318.837 586.266C363.892 538.892 381.552 499.805 378.332 479.89C375.112 459.974 262.572 372.406 262.572 372.406L186.182 372.406C188.788 440.859 327.555 491.617 329.411 494.534C331.267 497.451 313.001 526.02 297.469 579.018Z" fill="#191847"/>
<g id="Right [shoe]_2">
<path id="shoe_4" fill-rule="evenodd" clip-rule="evenodd" d="M293.06 591.815C291.969 590.842 290.216 590.858 289.247 591.936C287.482 593.904 284.971 596.899 284.222 598.815C283.03 601.868 281.834 608.096 281.834 608.096C285.635 609.385 350.145 631.265 350.145 631.265C350.145 631.265 356.011 623.964 350.53 621.364C345.048 618.765 341.459 616.95 341.459 616.95L314.861 592.991C314.339 592.521 313.504 592.545 313.014 593.045L309.172 596.967C309.172 596.967 302.958 597.475 299.638 596.348C297.617 595.662 294.886 593.445 293.06 591.815Z" fill="#E3E4E4"/>
</g>
<path id="SKIN_10" fill-rule="evenodd" clip-rule="evenodd" d="M204.929 372.334L138.235 521.54L72.6863 647.681H88.1514L257.352 372.334H204.929Z" fill="#B28B68"/>
<g id="Left [shoe]_2">
<path id="shoe_2_3" fill-rule="evenodd" clip-rule="evenodd" d="M75.3334 640.515C73.9521 639.95 72.3106 640.522 71.7961 641.845C70.8577 644.255 69.5984 647.872 69.5984 649.91C69.5984 653.159 70.76 659.391 70.76 659.391C74.8044 659.391 143.454 659.391 143.454 659.391C143.454 659.391 146.288 650.662 140.183 649.965C134.078 649.27 130.04 648.709 130.04 648.709L96.2521 634.672C95.5888 634.396 94.8124 634.685 94.5357 635.311L92.3638 640.221C92.3638 640.221 86.7122 642.678 83.1788 642.678C81.0277 642.678 77.6483 641.464 75.3334 640.515Z" fill="#E3E4E4"/>
</g>
<path id="Pant_4" fill-rule="evenodd" clip-rule="evenodd" d="M78.6057 621.477L112.969 627.482C139.539 591.08 250.736 441.818 262.927 372.334H186.426C145.712 422.564 103.932 584.473 78.6057 621.477Z" fill="#393F82"/>
</g>
</g>
<g id="Upper Body_3">
<g id="Upper Body/Hoodie">
<path id="SKIN_11" fill-rule="evenodd" clip-rule="evenodd" d="M352.735 385.107L311.622 356.974L302.534 377.909L343.247 393.642C354.76 406.246 361.198 411.501 362.561 409.405C363.71 407.638 362.813 405.985 361.985 404.462C361.341 403.274 360.739 402.166 361.181 401.147C362.193 398.816 369.927 399.063 377.256 399.588C384.586 400.112 382.45 397.074 380.683 395.574C373.201 391.4 363.885 387.912 352.735 385.107ZM137.132 434.679C140.909 427.539 153.771 357.945 153.771 357.945L180.705 358.044C180.705 358.044 155.759 433.088 153.771 437.68C151.189 443.644 155.576 452.31 158.551 458.187C159.011 459.096 159.437 459.938 159.799 460.694C155.671 462.415 153.688 460.334 151.598 458.141C149.237 455.663 146.738 453.043 140.857 455.591C138.585 456.577 136.435 457.741 134.334 458.88C127.078 462.81 120.412 466.422 111.343 461.206C109.906 460.38 108.33 457.268 112.137 454.836C121.62 448.777 135.286 438.171 137.132 434.679Z" fill="#B28B68"/>
<path id="Coat Back" fill-rule="evenodd" clip-rule="evenodd" d="M230.313 252.625L241.458 250.844C282.808 284.132 299.793 348.083 350.478 381.961L338.279 396.053C250.348 385.906 228.554 307.902 230.313 252.625Z" fill="#77D692"/>
<path id="Shirt_2" fill-rule="evenodd" clip-rule="evenodd" d="M181.729 383.144C181.729 383.144 248.76 383.144 280.341 383.144C284.848 383.144 283.999 377.081 283.347 374.02C275.83 338.708 246.483 300.643 246.483 250.377L218.039 246.221C194.512 281.483 186.375 324.897 181.729 383.144Z" fill="#C6D1D9"/>
<path id="Coat Front_2" fill-rule="evenodd" clip-rule="evenodd" d="M170.641 408.366C166.209 418.286 161.863 426.941 157.768 433.589H136.619C134.344 365.03 162.197 312.276 185.508 280.467C180.332 280.122 175.66 278.104 172.707 273.138C162.311 255.657 166.065 246.032 177.176 242.868C183.285 241.128 189.031 242.315 195.909 243.737C201.538 244.9 207.925 246.22 215.889 246.221C215.892 246.221 215.894 246.221 215.897 246.221C216.669 246.221 217.371 246.269 218.008 246.361L227.448 246.863C227.448 246.863 265.769 367.896 248.585 408.366H170.641Z" fill="#A8E5BA"/>
<path id="Shade" fill-rule="evenodd" clip-rule="evenodd" d="M170.641 408.366C176.456 395.351 182.419 380.16 188.157 364.472C190.294 381.749 193.851 399.101 199.773 408.366H170.641Z" fill="black" fill-opacity="0.1"/>
</g>
</g>
</g>
</g>
</g>
</g>
</svg>
