<svg xmlns="http://www.w3.org/2000/svg" xmlns:xlink="http://www.w3.org/1999/xlink" width="530" zoomAndPan="magnify" viewBox="0 0 397.5 149.999998" height="200" preserveAspectRatio="xMidYMid meet" version="1.0"><defs><g><g id="id1"/><g id="id2"/></g><clipPath id="id3"><path d="M 80 4.226562 L 110.28125 4.226562 L 110.28125 128.726562 L 80 128.726562 Z M 80 4.226562 " clip-rule="nonzero"/></clipPath><clipPath id="id4"><path d="M 41 51 L 72 51 L 72 128.726562 L 41 128.726562 Z M 41 51 " clip-rule="nonzero"/></clipPath><clipPath id="id5"><path d="M 3.03125 98 L 33 98 L 33 128.726562 L 3.03125 128.726562 Z M 3.03125 98 " clip-rule="nonzero"/></clipPath></defs><g clip-path="url(#id3)"><path fill="rgb(9.408569%, 12.159729%, 16.468811%)" d="M 80.609375 19.308594 L 80.609375 112.242188 C 80.609375 122.640625 87.804688 128.433594 95.421875 128.433594 C 102.472656 128.433594 110.230469 123.507812 110.230469 112.242188 L 110.230469 20.011719 C 110.230469 10.476562 103.179688 4.523438 95.421875 4.523438 C 87.664062 4.523438 80.609375 11.089844 80.609375 19.308594 Z M 80.609375 19.308594 " fill-opacity="1" fill-rule="nonzero"/></g><g clip-path="url(#id4)"><path fill="rgb(9.408569%, 12.159729%, 16.468811%)" d="M 41.820312 66.476562 L 41.820312 112.242188 C 41.820312 122.640625 49.015625 128.433594 56.632812 128.433594 C 63.683594 128.433594 71.441406 123.507812 71.441406 112.242188 L 71.441406 67.183594 C 71.441406 57.648438 64.390625 51.691406 56.632812 51.691406 C 48.875 51.691406 41.820312 58.261719 41.820312 66.476562 Z M 41.820312 66.476562 " fill-opacity="1" fill-rule="nonzero"/></g><g clip-path="url(#id5)"><path fill="rgb(9.408569%, 12.159729%, 16.468811%)" d="M 32.652344 113.648438 C 32.652344 114.621094 32.558594 115.582031 32.367188 116.535156 C 32.179688 117.484375 31.898438 118.410156 31.527344 119.308594 C 31.152344 120.203125 30.699219 121.054688 30.15625 121.863281 C 29.617188 122.671875 29.003906 123.417969 28.316406 124.105469 C 27.628906 124.789062 26.878906 125.402344 26.070312 125.941406 C 25.261719 126.480469 24.410156 126.9375 23.511719 127.308594 C 22.613281 127.679688 21.6875 127.960938 20.730469 128.152344 C 19.777344 128.339844 18.816406 128.433594 17.84375 128.433594 C 16.871094 128.433594 15.90625 128.339844 14.953125 128.152344 C 14 127.960938 13.074219 127.679688 12.175781 127.308594 C 11.277344 126.9375 10.421875 126.480469 9.613281 125.941406 C 8.804688 125.402344 8.058594 124.789062 7.371094 124.105469 C 6.683594 123.417969 6.070312 122.671875 5.527344 121.863281 C 4.988281 121.054688 4.53125 120.203125 4.160156 119.308594 C 3.789062 118.410156 3.507812 117.484375 3.316406 116.535156 C 3.128906 115.582031 3.03125 114.621094 3.03125 113.648438 C 3.03125 112.679688 3.128906 111.71875 3.316406 110.765625 C 3.507812 109.8125 3.789062 108.886719 4.160156 107.992188 C 4.53125 107.09375 4.988281 106.242188 5.527344 105.433594 C 6.070312 104.628906 6.683594 103.882812 7.371094 103.195312 C 8.058594 102.507812 8.804688 101.894531 9.613281 101.355469 C 10.421875 100.816406 11.277344 100.363281 12.175781 99.988281 C 13.074219 99.617188 14 99.339844 14.953125 99.148438 C 15.90625 98.960938 16.871094 98.863281 17.84375 98.863281 C 18.816406 98.863281 19.777344 98.960938 20.730469 99.148438 C 21.6875 99.339844 22.613281 99.617188 23.511719 99.988281 C 24.410156 100.363281 25.261719 100.816406 26.070312 101.355469 C 26.878906 101.894531 27.628906 102.507812 28.316406 103.195312 C 29.003906 103.882812 29.617188 104.628906 30.15625 105.433594 C 30.699219 106.242188 31.152344 107.09375 31.527344 107.992188 C 31.898438 108.886719 32.179688 109.8125 32.367188 110.765625 C 32.558594 111.71875 32.652344 112.679688 32.652344 113.648438 Z M 32.652344 113.648438 " fill-opacity="1" fill-rule="nonzero"/></g><g fill="rgb(9.408569%, 12.159729%, 16.468811%)" fill-opacity="1"><g transform="translate(126.383189, 60.929132)"><g><path d="M 49.71875 -28.5 L 49.71875 -17.453125 C 48.40625 -11.410156 45.523438 -6.835938 41.078125 -3.734375 C 36.640625 -0.628906 31.6875 0.921875 26.21875 0.921875 C 19.351562 0.921875 13.503906 -1.644531 8.671875 -6.78125 C 3.835938 -11.925781 1.421875 -18.140625 1.421875 -25.421875 C 1.421875 -32.816406 3.785156 -39.0625 8.515625 -44.15625 C 13.242188 -49.257812 19.144531 -51.8125 26.21875 -51.8125 C 34.476562 -51.8125 41.015625 -48.914062 45.828125 -43.125 L 38.25 -34.796875 C 35.53125 -39.148438 31.742188 -41.328125 26.890625 -41.328125 C 23.316406 -41.328125 20.265625 -39.773438 17.734375 -36.671875 C 15.203125 -33.566406 13.9375 -29.816406 13.9375 -25.421875 C 13.9375 -21.097656 15.203125 -17.40625 17.734375 -14.34375 C 20.265625 -11.28125 23.316406 -9.75 26.890625 -9.75 C 29.859375 -9.75 32.441406 -10.640625 34.640625 -12.421875 C 36.835938 -14.210938 37.9375 -16.59375 37.9375 -19.5625 L 26.21875 -19.5625 L 26.21875 -28.5 Z M 49.71875 -28.5 "/></g></g></g><g fill="rgb(9.408569%, 12.159729%, 16.468811%)" fill-opacity="1"><g transform="translate(179.917996, 60.929132)"><g><path d="M 3.703125 0 L 3.703125 -53.046875 L 14.625 -53.046875 L 14.625 0 Z M 3.703125 0 "/></g></g></g><g fill="rgb(9.408569%, 12.159729%, 16.468811%)" fill-opacity="1"><g transform="translate(200.641288, 60.929132)"><g><path d="M 6.6875 -3.765625 C 3.175781 -6.890625 1.421875 -10.894531 1.421875 -15.78125 C 1.421875 -20.675781 3.25 -24.695312 6.90625 -27.84375 C 10.570312 -31 15.097656 -32.578125 20.484375 -32.578125 C 25.785156 -32.578125 30.253906 -30.992188 33.890625 -27.828125 C 37.535156 -24.660156 39.359375 -20.648438 39.359375 -15.796875 C 39.359375 -10.941406 37.578125 -6.941406 34.015625 -3.796875 C 30.460938 -0.648438 25.953125 0.921875 20.484375 0.921875 C 14.804688 0.921875 10.207031 -0.640625 6.6875 -3.765625 Z M 15.140625 -21.15625 C 13.722656 -19.757812 13.015625 -17.96875 13.015625 -15.78125 C 13.015625 -13.601562 13.691406 -11.828125 15.046875 -10.453125 C 16.410156 -9.078125 18.203125 -8.390625 20.421875 -8.390625 C 22.554688 -8.390625 24.3125 -9.085938 25.6875 -10.484375 C 27.070312 -11.878906 27.765625 -13.648438 27.765625 -15.796875 C 27.765625 -17.972656 27.050781 -19.757812 25.625 -21.15625 C 24.207031 -22.550781 22.472656 -23.25 20.421875 -23.25 C 18.316406 -23.25 16.554688 -22.550781 15.140625 -21.15625 Z M 15.140625 -21.15625 "/></g></g></g><g fill="rgb(9.408569%, 12.159729%, 16.468811%)" fill-opacity="1"><g transform="translate(243.814569, 60.929132)"><g><path d="M 36.265625 -27.734375 C 39.234375 -24.503906 40.71875 -20.546875 40.71875 -15.859375 C 40.71875 -11.171875 39.234375 -7.203125 36.265625 -3.953125 C 33.304688 -0.703125 29.546875 0.921875 24.984375 0.921875 C 20.785156 0.921875 17.332031 -0.390625 14.625 -3.015625 L 14.625 16.03125 L 3.703125 16.03125 L 3.703125 -31.640625 L 14.5 -31.640625 L 14.5 -28.0625 L 14.625 -28.0625 C 17.332031 -31.070312 20.785156 -32.578125 24.984375 -32.578125 C 29.546875 -32.578125 33.304688 -30.960938 36.265625 -27.734375 Z M 26.984375 -10.484375 C 28.398438 -11.878906 29.109375 -13.664062 29.109375 -15.84375 C 29.109375 -18.03125 28.429688 -19.8125 27.078125 -21.1875 C 25.722656 -22.5625 23.9375 -23.25 21.71875 -23.25 C 19.570312 -23.25 17.8125 -22.550781 16.4375 -21.15625 C 15.0625 -19.757812 14.375 -17.992188 14.375 -15.859375 C 14.375 -13.671875 15.082031 -11.878906 16.5 -10.484375 C 17.914062 -9.085938 19.65625 -8.390625 21.71875 -8.390625 C 23.8125 -8.390625 25.566406 -9.085938 26.984375 -10.484375 Z M 26.984375 -10.484375 "/></g></g></g><g fill="rgb(9.408569%, 12.159729%, 16.468811%)" fill-opacity="1"><g transform="translate(288.336307, 60.929132)"><g/></g></g><g fill="rgb(9.408569%, 12.159729%, 16.468811%)" fill-opacity="1"><g transform="translate(126.383189, 128.429129)"><g><path d="M 25.234375 -43.46875 L 42.78125 0 L 32.140625 0 L 28.921875 -8.6875 L 12.375 -8.6875 L 9.171875 0 L -1.46875 0 L 16.0625 -43.46875 Z M 25.546875 -17.390625 L 20.703125 -30.03125 L 20.59375 -30.03125 L 15.75 -17.390625 Z M 25.546875 -17.390625 "/></g></g></g><g fill="rgb(9.408569%, 12.159729%, 16.468811%)" fill-opacity="1"><g transform="translate(169.735545, 128.429129)"><g><path d="M 3.15625 0 L 3.15625 -27.03125 L 12.484375 -27.03125 L 12.484375 -24.1875 L 12.59375 -24.1875 C 15.019531 -26.601562 17.601562 -27.8125 20.34375 -27.8125 C 21.675781 -27.8125 23 -27.632812 24.3125 -27.28125 C 25.632812 -26.9375 26.898438 -26.394531 28.109375 -25.65625 C 29.316406 -24.914062 30.296875 -23.867188 31.046875 -22.515625 C 31.804688 -21.171875 32.1875 -19.601562 32.1875 -17.8125 L 32.1875 0 L 22.859375 0 L 22.859375 -15.28125 C 22.859375 -16.6875 22.410156 -17.914062 21.515625 -18.96875 C 20.617188 -20.019531 19.453125 -20.546875 18.015625 -20.546875 C 16.609375 -20.546875 15.332031 -20 14.1875 -18.90625 C 13.050781 -17.820312 12.484375 -16.613281 12.484375 -15.28125 L 12.484375 0 Z M 3.15625 0 "/></g></g></g><g fill="rgb(9.408569%, 12.159729%, 16.468811%)" fill-opacity="1"><g transform="translate(206.608781, 128.429129)"><g><path d="M 5 -3.34375 C 2.476562 -6.101562 1.21875 -9.484375 1.21875 -13.484375 C 1.21875 -17.492188 2.476562 -20.882812 5 -23.65625 C 7.53125 -26.425781 10.742188 -27.8125 14.640625 -27.8125 C 18.222656 -27.8125 21.175781 -26.691406 23.5 -24.453125 L 23.5 -27.03125 L 32.828125 -27.03125 L 32.828125 0 L 23.609375 0 L 23.609375 -3.0625 L 23.5 -3.0625 C 21.175781 -0.488281 18.222656 0.796875 14.640625 0.796875 C 10.742188 0.796875 7.53125 -0.582031 5 -3.34375 Z M 12.921875 -18.0625 C 11.710938 -16.875 11.109375 -15.347656 11.109375 -13.484375 C 11.109375 -11.628906 11.6875 -10.113281 12.84375 -8.9375 C 14.007812 -7.757812 15.539062 -7.171875 17.4375 -7.171875 C 19.257812 -7.171875 20.757812 -7.765625 21.9375 -8.953125 C 23.113281 -10.148438 23.703125 -11.660156 23.703125 -13.484375 C 23.703125 -15.347656 23.097656 -16.875 21.890625 -18.0625 C 20.679688 -19.257812 19.195312 -19.859375 17.4375 -19.859375 C 15.644531 -19.859375 14.140625 -19.257812 12.921875 -18.0625 Z M 12.921875 -18.0625 "/></g></g></g><g fill="rgb(9.408569%, 12.159729%, 16.468811%)" fill-opacity="1"><g transform="translate(244.64089, 128.429129)"><g><path d="M 3.15625 0 L 3.15625 -45.3125 L 12.484375 -45.3125 L 12.484375 0 Z M 3.15625 0 "/></g></g></g><g fill="rgb(9.408569%, 12.159729%, 16.468811%)" fill-opacity="1"><g transform="translate(262.340172, 128.429129)"><g><path d="M 23.65625 -27.03125 L 34.40625 -27.03125 L 13.171875 13.703125 L 2.421875 13.703125 L 11.75 -4.21875 L -1.046875 -27.03125 L 9.6875 -27.03125 L 17.234375 -13.171875 Z M 23.65625 -27.03125 "/></g></g></g><g fill="rgb(9.408569%, 12.159729%, 16.468811%)" fill-opacity="1"><g transform="translate(297.738498, 128.429129)"><g><path d="M 4.734375 -27.03125 L 4.734375 -37.09375 L 14.0625 -37.09375 L 14.0625 -27.03125 L 19.75 -27.03125 L 19.75 -19.921875 L 14.0625 -19.921875 L 14.0625 -11.328125 C 14.0625 -8.835938 14.765625 -7.59375 16.171875 -7.59375 C 16.523438 -7.59375 16.894531 -7.660156 17.28125 -7.796875 C 17.664062 -7.941406 17.960938 -8.082031 18.171875 -8.21875 L 18.5 -8.4375 L 20.8125 -0.890625 C 18.8125 0.234375 16.53125 0.796875 13.96875 0.796875 C 12.207031 0.796875 10.691406 0.488281 9.421875 -0.125 C 8.160156 -0.738281 7.203125 -1.5625 6.546875 -2.59375 C 5.898438 -3.632812 5.4375 -4.726562 5.15625 -5.875 C 4.875 -7.019531 4.734375 -8.238281 4.734375 -9.53125 L 4.734375 -19.921875 L 0.84375 -19.921875 L 0.84375 -27.03125 Z M 4.734375 -27.03125 "/></g></g></g><g fill="rgb(9.408569%, 12.159729%, 16.468811%)" fill-opacity="1"><g transform="translate(320.599993, 128.429129)"><g><path d="M 4.046875 -42.09375 C 5.140625 -43.1875 6.441406 -43.734375 7.953125 -43.734375 C 9.460938 -43.734375 10.757812 -43.1875 11.84375 -42.09375 C 12.9375 -41.007812 13.484375 -39.710938 13.484375 -38.203125 C 13.484375 -36.691406 12.9375 -35.390625 11.84375 -34.296875 C 10.757812 -33.210938 9.460938 -32.671875 7.953125 -32.671875 C 6.441406 -32.671875 5.140625 -33.210938 4.046875 -34.296875 C 2.960938 -35.390625 2.421875 -36.691406 2.421875 -38.203125 C 2.421875 -39.710938 2.960938 -41.007812 4.046875 -42.09375 Z M 3.15625 -27.03125 L 3.15625 0 L 12.484375 0 L 12.484375 -27.03125 Z M 3.15625 -27.03125 "/></g></g></g><g fill="rgb(9.408569%, 12.159729%, 16.468811%)" fill-opacity="1"><g transform="translate(338.562638, 128.429129)"><g><path d="M 17.546875 -20.171875 C 15.785156 -20.171875 14.269531 -19.519531 13 -18.21875 C 11.738281 -16.925781 11.109375 -15.367188 11.109375 -13.546875 C 11.109375 -11.679688 11.738281 -10.097656 13 -8.796875 C 14.269531 -7.492188 15.785156 -6.84375 17.546875 -6.84375 C 18.390625 -6.84375 19.1875 -6.945312 19.9375 -7.15625 C 20.695312 -7.375 21.253906 -7.585938 21.609375 -7.796875 L 22.078125 -8.109375 L 25.234375 -1.640625 C 24.992188 -1.460938 24.648438 -1.238281 24.203125 -0.96875 C 23.765625 -0.707031 22.765625 -0.347656 21.203125 0.109375 C 19.640625 0.566406 17.960938 0.796875 16.171875 0.796875 C 12.203125 0.796875 8.71875 -0.597656 5.71875 -3.390625 C 2.71875 -6.191406 1.21875 -9.539062 1.21875 -13.4375 C 1.21875 -17.375 2.71875 -20.753906 5.71875 -23.578125 C 8.71875 -26.398438 12.203125 -27.8125 16.171875 -27.8125 C 17.960938 -27.8125 19.613281 -27.597656 21.125 -27.171875 C 22.632812 -26.753906 23.707031 -26.335938 24.34375 -25.921875 L 25.234375 -25.296875 L 22.078125 -18.921875 C 20.921875 -19.753906 19.410156 -20.171875 17.546875 -20.171875 Z M 17.546875 -20.171875 "/></g></g></g><g fill="rgb(9.408569%, 12.159729%, 16.468811%)" fill-opacity="1"><g transform="translate(366.481002, 128.429129)"><g><path d="M 14.90625 -27.8125 C 16.457031 -27.8125 17.988281 -27.632812 19.5 -27.28125 C 21.007812 -26.9375 22.128906 -26.585938 22.859375 -26.234375 L 23.96875 -25.71875 L 20.921875 -19.59375 C 18.804688 -20.71875 16.800781 -21.28125 14.90625 -21.28125 C 13.851562 -21.28125 13.109375 -21.164062 12.671875 -20.9375 C 12.234375 -20.707031 12.015625 -20.28125 12.015625 -19.65625 C 12.015625 -19.507812 12.03125 -19.363281 12.0625 -19.21875 C 12.101562 -19.082031 12.175781 -18.953125 12.28125 -18.828125 C 12.382812 -18.710938 12.476562 -18.609375 12.5625 -18.515625 C 12.65625 -18.429688 12.804688 -18.335938 13.015625 -18.234375 C 13.222656 -18.128906 13.390625 -18.046875 13.515625 -17.984375 C 13.640625 -17.929688 13.84375 -17.851562 14.125 -17.75 C 14.40625 -17.644531 14.613281 -17.566406 14.75 -17.515625 C 14.894531 -17.460938 15.132812 -17.382812 15.46875 -17.28125 C 15.800781 -17.175781 16.054688 -17.109375 16.234375 -17.078125 C 17.316406 -16.753906 18.257812 -16.398438 19.0625 -16.015625 C 19.875 -15.628906 20.726562 -15.101562 21.625 -14.4375 C 22.519531 -13.769531 23.210938 -12.925781 23.703125 -11.90625 C 24.203125 -10.882812 24.453125 -9.726562 24.453125 -8.4375 C 24.453125 -2.28125 20.179688 0.796875 11.640625 0.796875 C 9.710938 0.796875 7.878906 0.5 6.140625 -0.09375 C 4.398438 -0.695312 3.144531 -1.296875 2.375 -1.890625 L 1.21875 -2.84375 L 5 -9.21875 C 5.28125 -8.96875 5.648438 -8.675781 6.109375 -8.34375 C 6.566406 -8.007812 7.390625 -7.550781 8.578125 -6.96875 C 9.773438 -6.394531 10.816406 -6.109375 11.703125 -6.109375 C 13.628906 -6.109375 14.59375 -6.757812 14.59375 -8.0625 C 14.59375 -8.65625 14.347656 -9.117188 13.859375 -9.453125 C 13.367188 -9.785156 12.535156 -10.160156 11.359375 -10.578125 C 10.179688 -11.003906 9.257812 -11.394531 8.59375 -11.75 C 6.90625 -12.625 5.566406 -13.613281 4.578125 -14.71875 C 3.597656 -15.832031 3.109375 -17.300781 3.109375 -19.125 C 3.109375 -21.863281 4.171875 -23.992188 6.296875 -25.515625 C 8.421875 -27.046875 11.289062 -27.8125 14.90625 -27.8125 Z M 14.90625 -27.8125 "/></g></g></g></svg>