<svg width="295" height="215" viewBox="0 0 295 215" fill="none" xmlns="http://www.w3.org/2000/svg">
<path fill-rule="evenodd" clip-rule="evenodd" d="M258.216 59.4435C258.035 59.3125 257.608 59.2658 257.409 59.2266C256.581 59.0634 255.728 58.9925 254.885 58.9925C252.283 58.9962 249.64 59.2516 247.081 59.6937C245.457 59.9741 243.494 60.918 241.878 60.4053C239.063 59.5122 236.218 59.5559 233.548 60.831C231.106 61.997 229.252 64.2118 228.171 66.6044C228.007 66.9658 227.345 68.295 227.158 69.1915C227.078 69.3744 227.001 69.5592 226.931 69.7463C226.735 70.278 226.558 70.819 226.394 71.3611C226.324 71.5922 226.147 72.103 226.357 72.2016C226.022 72.8191 225.725 73.4554 225.478 74.1121C224.76 76.023 223.974 78.1188 223.722 80.1435C223.628 80.8933 223.624 81.6475 223.711 82.3991C223.754 82.7702 223.736 83.5169 223.989 83.7992C224.523 84.3985 224.797 83.5595 224.737 83.16C224.277 80.1155 225.165 77.2563 226.218 74.3944C226.899 72.544 228.018 70.8507 229.271 69.3173C230.285 68.0762 231.373 67.0991 232.763 66.2762C234.463 65.27 236.281 64.4564 238.081 63.6402C239.266 63.1033 240.452 62.581 241.669 62.1183C241.94 62.0153 242.366 61.7513 242.666 61.7506C243.301 61.7483 244.2 62.2165 244.813 62.3905C246.83 62.964 248.873 63.6977 250.957 63.9904C252.294 64.1786 253.546 63.9669 254.797 63.5215C254.924 63.4763 255.138 63.3594 255.401 63.1925C256.329 62.8352 257.207 62.3861 257.972 61.7379C258.413 61.3645 258.812 60.8817 259.177 60.44C259.286 60.3082 259.334 60.1567 259.335 60.0129C259.418 59.9696 259.473 59.9192 259.486 59.8602C259.576 59.4256 258.747 59.4178 258.216 59.4435Z" fill="#89C5CC"/>
<path fill-rule="evenodd" clip-rule="evenodd" d="M254.7 71.5355C253.542 71.285 252.264 71.304 251.084 71.3249C244.76 71.41 238.549 74.3772 234.507 79.1183C231.065 83.1548 230.119 88.1729 229.439 93.2455C229.372 93.7492 229.343 94.2495 229.305 94.7543C229.297 94.8626 229.285 94.9593 229.272 95.0504C229.004 95.2871 228.864 95.5634 229.022 95.8665C228.434 97.1438 227.935 98.4532 227.508 99.8037C226.25 103.779 224.97 107.83 225.758 112.011C225.942 109.71 226.33 107.358 226.793 105.095C226.82 104.965 226.849 104.836 226.878 104.708C226.882 104.695 226.884 104.681 226.888 104.668C227.052 103.975 227.265 103.303 227.524 102.641C227.527 102.634 227.53 102.626 227.532 102.619C227.567 102.532 227.603 102.446 227.639 102.359C227.713 102.18 227.79 102.001 227.87 101.823C227.898 101.762 227.924 101.701 227.949 101.639C228.327 100.722 228.486 99.6895 228.824 98.7408C228.905 98.5249 228.99 98.3102 229.078 98.0963C229.084 98.084 229.089 98.0713 229.094 98.0586C229.334 97.4836 229.598 96.9153 229.878 96.353C230.03 96.2399 230.111 95.9588 230.243 95.7034C230.27 95.6533 230.482 95.3177 230.545 95.1243C230.71 94.8084 230.874 94.4925 231.04 94.1774C231.035 94.1793 231.03 94.1808 231.025 94.1826C231.191 93.8798 231.357 93.5785 231.523 93.2783C231.559 93.2123 231.596 93.1462 231.633 93.0801C231.692 92.9748 231.751 92.8695 231.81 92.7646C232.364 91.7822 232.952 90.8193 233.562 89.8687C233.779 89.5293 234.3 89.0428 234.4 88.6616C234.403 88.6474 234.404 88.6344 234.406 88.6209C235.73 86.7783 237.254 85.0791 239.081 83.7328C238.861 83.9695 238.391 84.7726 238.267 84.9313C237.887 85.4181 237.474 85.8714 237.06 86.3299C236.319 87.1517 235.595 87.9993 234.952 88.8957C233.776 90.5348 232.761 92.2602 231.802 94.0199C231.792 94.0303 231.783 94.04 231.774 94.0508C231.292 94.6397 230.989 95.5298 230.641 96.2033C232.015 95.5731 233.533 95.1624 234.943 94.6027C236.349 94.0445 237.716 93.4232 239.037 92.6936C240.791 91.7236 242.611 90.6289 244.269 89.3897C246.169 88.2218 247.766 86.6144 249.175 84.9279C250.842 82.9319 252.37 80.919 253.315 78.4955C253.779 77.3048 254.145 76.0634 254.361 74.807C254.37 74.7525 254.383 74.6931 254.396 74.6311C254.617 74.1973 254.816 73.7537 254.982 73.3001C255.246 72.5802 255.869 71.7886 254.7 71.5355Z" fill="#57919C"/>
<path fill-rule="evenodd" clip-rule="evenodd" d="M265.201 111.542C264.528 110.013 263.099 108.83 261.697 107.954C256.219 104.531 249.796 103.351 243.45 103.607C239.973 103.748 236.468 104.504 233.165 105.507C231.258 106.086 229.407 106.845 227.748 107.939C226.628 108.677 225.63 109.551 224.715 110.525C223.601 111.712 222.524 112.961 221.567 114.277C221.19 114.796 219.078 117.476 219.947 118.087C219.898 118.154 219.854 118.221 219.822 118.286C215.957 120.126 212.509 122.96 209.265 125.661C206.443 128.013 203.711 130.456 201.235 133.165C197.975 136.733 194.931 140.52 192.145 144.464C191.546 145.312 190.962 146.17 190.383 147.031C189.889 147.766 189.395 148.501 188.902 149.236C188.348 150.06 187.596 150.936 187.207 151.855C186.868 152.656 187.566 152.939 188.046 152.232C188.626 151.377 189.169 150.497 189.754 149.645C190.531 148.515 191.31 147.385 192.093 146.259C197.531 138.434 203.982 131.407 211.48 125.492C214.514 123.098 217.607 120.969 221.02 119.133C224.021 117.519 227.262 116.166 230.438 115.004C233.524 113.876 236.646 112.84 239.908 112.288C242.555 111.84 245.25 111.693 247.941 111.671C251.358 111.642 254.747 111.648 258.142 112.108C259.906 112.347 261.656 112.668 263.416 112.939C263.733 112.987 264.065 113.051 264.383 113.077C265.443 113.163 265.569 112.375 265.201 111.542Z" fill="#C1DEE2"/>
<path fill-rule="evenodd" clip-rule="evenodd" d="M55.7109 80.5341C55.2002 80.9347 54.6991 81.3439 54.2104 81.7696C53.8377 82.094 53.1787 82.4823 53.0451 82.9741C52.9058 83.4848 53.3449 83.9631 53.6914 84.2719C55.5246 85.9058 57.589 87.0102 60.1294 87.1935C64.0408 87.4765 67.4452 86.5091 70.8388 84.6057C73.2227 83.2683 74.8017 81.2905 75.1467 78.6198C77.9858 79.7627 80.7316 81.3376 83.0652 83.2709C84.2163 84.2249 85.2079 85.2819 86.1253 86.4531C86.7126 87.2036 87.2809 87.966 87.8085 88.758C88.0377 89.1018 88.2707 89.7119 88.6489 89.9102C89.0932 90.1428 89.6301 89.778 89.6081 89.2997C89.5898 88.9017 89.1459 88.4398 88.9383 88.1143C88.5937 87.5736 88.2438 87.0367 87.8753 86.511C87.279 85.6601 86.6626 84.8208 85.9905 84.0244C84.4799 82.2352 82.5581 80.757 80.5654 79.4961C76.7433 77.0778 72.5484 75.5545 67.8977 75.4253C65.0381 75.3461 62.6325 76.2922 60.1869 77.7054C58.6643 78.5851 57.0924 79.4502 55.7109 80.5341Z" fill="#C7D1D9"/>
<path fill-rule="evenodd" clip-rule="evenodd" d="M86.4486 80.6505C83.4758 77.5833 80.493 74.5545 77.1719 71.8536C75.2147 70.2619 73.1518 68.8147 71.1319 67.3056C71.3648 67.5102 71.5933 67.7207 71.8166 67.9366C71.186 67.5075 70.3605 67.2652 69.6921 66.868C68.9461 66.4251 68.2334 65.9189 67.5344 65.4081C66.1694 64.4116 64.8253 63.3964 63.4225 62.4521C61.8592 61.4 60.2395 60.4277 58.6497 59.4151C57.3007 58.5556 55.9353 57.6151 54.4919 56.9128C53.7052 56.5297 52.9166 56.0761 52.1269 55.6766C51.8626 55.5429 49.1803 53.8459 49.187 53.8411C49.3353 53.7291 50.685 54.3645 50.8937 54.45C51.5034 54.6995 52.0866 54.9982 52.6728 55.2954C52.3513 54.6595 52.0963 53.9915 51.9578 53.2881C51.9149 53.0712 51.5717 51.4907 51.7476 51.3582C51.835 51.2921 52.6907 54.1192 52.7348 54.391C52.7703 54.6121 52.765 54.9298 52.8371 55.1389C52.9536 55.4768 52.948 55.3749 53.2045 55.5649C53.6746 55.9137 54.2988 56.1317 54.8077 56.4229C55.0822 56.5764 55.932 57.1854 56.4438 57.359C57.9926 58.1124 59.5622 59.2717 61.0337 60.2347C60.6476 59.5073 60.3534 58.7468 60.1391 57.95C60.0883 57.7611 59.5383 56.0638 59.6716 55.9629C59.8217 55.8498 60.8698 58.4417 60.9318 58.6871C61.0471 59.1429 61.071 59.65 61.2155 60.0935C61.3738 60.5804 61.8685 60.7529 62.314 61.0367C63.9538 62.0806 65.5373 63.1895 67.0942 64.3496C68.7931 61.3223 66.8344 57.6666 65.1833 55.1262C63.9934 53.2956 62.3913 51.7259 60.6995 50.356C58.4421 48.5273 55.8591 47.0663 53.2795 45.73C50.2735 44.1727 47.0248 43.2079 43.6473 42.7624C41.8805 42.5291 40.0734 42.5358 38.2891 42.6105C37.4173 42.6471 36.5805 42.7624 35.7453 43.0473C35.3686 43.1761 35.0049 43.3378 34.6502 43.5193C34.381 43.657 33.7291 43.8026 33.5742 44.008C32.2991 45.671 31.6468 47.328 31.7465 49.4174C31.8406 51.3955 32.4641 53.3747 33.3102 55.1393C34.2526 57.104 35.4645 58.8872 37.0495 60.3836C38.2588 61.5258 39.6112 62.5193 40.9542 63.5002C45.7311 66.9886 51.7879 70.0222 57.975 69.243C59.9778 68.9906 61.8827 68.289 63.663 67.3354C64.0823 67.1107 64.4993 66.8833 64.8951 66.6178C65.162 66.439 65.8759 65.6332 66.1444 65.6037C66.5121 65.5638 67.3052 66.3139 67.6505 66.542C70.2746 68.2778 72.8303 70.1073 75.3323 72.0111C77.994 74.0367 80.5255 76.2 82.9823 78.4648C84.0269 79.4285 85.0653 80.394 86.0801 81.3898C86.3161 81.6213 86.8937 82.4745 87.3219 82.5129C87.593 82.5376 87.7756 82.3057 87.7367 82.0548C87.6695 81.618 86.7529 80.9649 86.4486 80.6505Z" fill="#C1DEE2"/>
<path fill-rule="evenodd" clip-rule="evenodd" d="M59.7915 91.1023C59.2968 91.1023 58.8035 91.1124 58.3096 91.1378C57.9328 91.1576 57.3575 91.0795 57.039 91.3144C56.7078 91.5582 56.7306 92.057 56.7825 92.4095C57.0558 94.2733 57.723 95.9259 59.119 97.2465C61.2685 99.2795 63.7324 100.313 66.6481 100.773C68.6964 101.096 70.5871 100.647 72.0948 99.1906C73.1966 101.235 74.0322 103.498 74.4515 105.781C74.6583 106.908 74.7214 108.022 74.6852 109.169C74.6617 109.904 74.6214 110.637 74.5426 111.368C74.5082 111.686 74.3462 112.167 74.4705 112.468C74.6165 112.82 75.109 112.854 75.33 112.554C75.5141 112.303 75.4805 111.812 75.5182 111.516C75.5809 111.023 75.6388 110.531 75.6803 110.037C75.7478 109.237 75.7975 108.434 75.7941 107.631C75.7855 105.826 75.3842 104.015 74.8353 102.302C73.7824 99.0148 72.0742 96.0939 69.4173 93.8021C67.7835 92.393 65.9136 91.8225 63.7925 91.516C62.4715 91.3252 61.1293 91.1023 59.7915 91.1023Z" fill="#89C5CC"/>
<path fill-rule="evenodd" clip-rule="evenodd" d="M67.4198 104.17C62.081 104.17 58.4854 108.473 56.7855 112.945C56.1444 114.631 55.9943 116.482 55.7472 118.252C55.668 118.82 55.6975 119.685 55.4668 120.191C55.3831 120.375 55.1912 120.441 55.2831 120.691C55.3387 120.842 55.4473 120.935 55.6112 120.965C55.9469 121.027 56.4218 120.661 56.7097 120.517C59.0978 119.319 60.6667 117.467 61.9466 115.201C62.7404 113.797 63.5454 112.339 64.0166 110.798C64.3044 109.856 64.4721 108.864 64.5706 107.887C64.6095 107.502 64.6468 107.108 64.6446 106.721C64.6423 106.337 64.4635 106.134 64.335 105.8C66.1164 105.125 68.1274 104.942 69.9319 105.64C71.6008 106.286 72.9871 107.535 73.7634 109.105C73.965 109.512 74.1207 109.943 74.2338 110.382C74.3081 110.669 74.3115 111.042 74.4493 111.302C74.7823 111.932 75.4835 111.511 75.4163 110.924C75.2285 109.288 74.2928 107.646 73.0965 106.509C71.5878 105.074 69.5432 104.17 67.4198 104.17Z" fill="#89C5CC"/>
<path d="M123.586 19.4152H76.1675C74.5179 19.4152 73.1805 20.7525 73.1805 22.4022V117.612C73.1805 119.261 74.5179 120.599 76.1675 120.599H123.586C125.235 120.599 126.572 119.261 126.572 117.612V22.4022C126.572 20.7525 125.235 19.4152 123.586 19.4152Z" fill="#C7D1D9"/>
<path d="M99.6898 114.625C102.783 114.625 105.29 112.117 105.29 109.024C105.29 105.931 102.783 103.424 99.6898 103.424C96.5967 103.424 94.0893 105.931 94.0893 109.024C94.0893 112.117 96.5967 114.625 99.6898 114.625Z" fill="white"/>
<path d="M94.836 26.1359C95.2484 26.1359 95.5828 25.8015 95.5828 25.3891C95.5828 24.9767 95.2484 24.6424 94.836 24.6424C94.4236 24.6424 94.0893 24.9767 94.0893 25.3891C94.0893 25.8015 94.4236 26.1359 94.836 26.1359Z" fill="white"/>
<path d="M104.544 24.6424H98.1964C97.784 24.6424 97.4496 24.9767 97.4496 25.3891C97.4496 25.8015 97.784 26.1359 98.1964 26.1359H104.544C104.956 26.1359 105.29 25.8015 105.29 25.3891C105.29 24.9767 104.956 24.6424 104.544 24.6424Z" fill="white"/>
<path d="M118.732 29.8696H80.648C79.8231 29.8696 79.1545 30.5382 79.1545 31.363V46.2979C79.1545 47.1227 79.8231 47.7913 80.648 47.7913H118.732C119.557 47.7913 120.225 47.1227 120.225 46.2979V31.363C120.225 30.5382 119.557 29.8696 118.732 29.8696Z" fill="white"/>
<path d="M100.81 35.2461H83.6349C83.0163 35.2461 82.5148 35.7476 82.5148 36.3662V36.8143C82.5148 37.4329 83.0163 37.9344 83.6349 37.9344H100.81C101.429 37.9344 101.93 37.4329 101.93 36.8143V36.3662C101.93 35.7476 101.429 35.2461 100.81 35.2461Z" fill="#C7D1D9"/>
<path d="M94.4269 39.7266H83.6349C83.0163 39.7266 82.5148 40.2281 82.5148 40.8467V41.2947C82.5148 41.9133 83.0163 42.4148 83.6349 42.4148H94.4269C95.0455 42.4148 95.547 41.9133 95.547 41.2947V40.8467C95.547 40.2281 95.0455 39.7266 94.4269 39.7266Z" fill="#C7D1D9"/>
<path d="M115.836 41.444C117.279 41.444 118.449 40.2739 118.449 38.8304C118.449 37.387 117.279 36.2169 115.836 36.2169C114.392 36.2169 113.222 37.387 113.222 38.8304C113.222 40.2739 114.392 41.444 115.836 41.444Z" fill="#C7D1D9"/>
<path d="M115.836 39.9505C116.454 39.9505 116.956 39.4491 116.956 38.8304C116.956 38.2118 116.454 37.7103 115.836 37.7103C115.217 37.7103 114.716 38.2118 114.716 38.8304C114.716 39.4491 115.217 39.9505 115.836 39.9505Z" fill="#F2F2F2"/>
<path d="M118.732 50.7783H80.648C79.8231 50.7783 79.1545 51.447 79.1545 52.2718V63.0995C79.1545 63.9244 79.8231 64.593 80.648 64.593H118.732C119.557 64.593 120.225 63.9244 120.225 63.0995V52.2718C120.225 51.447 119.557 50.7783 118.732 50.7783Z" fill="white"/>
<path d="M112.095 54.9227H94.752C94.1798 54.9227 93.7159 55.3866 93.7159 55.9588C93.7159 56.5311 94.1798 56.9949 94.752 56.9949H112.095C112.667 56.9949 113.131 56.5311 113.131 55.9588C113.131 55.3866 112.667 54.9227 112.095 54.9227Z" fill="#C7D1D9"/>
<path d="M105.712 58.3764H94.752C94.1798 58.3764 93.7159 58.8403 93.7159 59.4125C93.7159 59.9847 94.1798 60.4486 94.752 60.4486H105.712C106.284 60.4486 106.748 59.9847 106.748 59.4125C106.748 58.8403 106.284 58.3764 105.712 58.3764Z" fill="#C7D1D9"/>
<path d="M86.9953 62.1661C89.4698 62.1661 91.4757 60.1601 91.4757 57.6856C91.4757 55.2112 89.4698 53.2052 86.9953 53.2052C84.5208 53.2052 82.5148 55.2112 82.5148 57.6856C82.5148 60.1601 84.5208 62.1661 86.9953 62.1661Z" fill="#C5CFD6"/>
<path d="M118.732 67.58H80.648C79.8231 67.58 79.1545 68.2486 79.1545 69.0734V79.9012C79.1545 80.726 79.8231 81.3947 80.648 81.3947H118.732C119.557 81.3947 120.225 80.726 120.225 79.9012V69.0734C120.225 68.2486 119.557 67.58 118.732 67.58Z" fill="white"/>
<path d="M100.894 71.7244H83.5509C82.9787 71.7244 82.5148 72.1882 82.5148 72.7605C82.5148 73.3327 82.9787 73.7966 83.5509 73.7966H100.894C101.466 73.7966 101.93 73.3327 101.93 72.7605C101.93 72.1882 101.466 71.7244 100.894 71.7244Z" fill="#C7D1D9"/>
<path d="M94.5109 75.178H83.5509C82.9787 75.178 82.5148 75.6419 82.5148 76.2141C82.5148 76.7864 82.9787 77.2502 83.5509 77.2502H94.5109C95.0831 77.2502 95.547 76.7864 95.547 76.2141C95.547 75.6419 95.0831 75.178 94.5109 75.178Z" fill="#C7D1D9"/>
<path d="M115.836 77.1009C117.279 77.1009 118.449 75.9308 118.449 74.4873C118.449 73.0439 117.279 71.8737 115.836 71.8737C114.392 71.8737 113.222 73.0439 113.222 74.4873C113.222 75.9308 114.392 77.1009 115.836 77.1009Z" fill="#C7D1D9"/>
<path d="M115.836 75.6074C116.454 75.6074 116.956 75.1059 116.956 74.4873C116.956 73.8687 116.454 73.3672 115.836 73.3672C115.217 73.3672 114.716 73.8687 114.716 74.4873C114.716 75.1059 115.217 75.6074 115.836 75.6074Z" fill="#F2F2F2"/>
<path d="M118.732 84.3816H80.648C79.8231 84.3816 79.1545 85.0502 79.1545 85.8751V96.7028C79.1545 97.5276 79.8231 98.1963 80.648 98.1963H118.732C119.557 98.1963 120.225 97.5276 120.225 96.7028V85.8751C120.225 85.0502 119.557 84.3816 118.732 84.3816Z" fill="white"/>
<path d="M112.095 88.526H94.752C94.1798 88.526 93.7159 88.9899 93.7159 89.5621C93.7159 90.1343 94.1798 90.5982 94.752 90.5982H112.095C112.667 90.5982 113.131 90.1343 113.131 89.5621C113.131 88.9899 112.667 88.526 112.095 88.526Z" fill="#C7D1D9"/>
<path d="M105.712 91.9797H94.752C94.1798 91.9797 93.7159 92.4436 93.7159 93.0158C93.7159 93.588 94.1798 94.0519 94.752 94.0519H105.712C106.284 94.0519 106.748 93.588 106.748 93.0158C106.748 92.4436 106.284 91.9797 105.712 91.9797Z" fill="#C7D1D9"/>
<path d="M86.9953 95.7694C89.4698 95.7694 91.4757 93.7634 91.4757 91.2889C91.4757 88.8144 89.4698 86.8085 86.9953 86.8085C84.5208 86.8085 82.5148 88.8144 82.5148 91.2889C82.5148 93.7634 84.5208 95.7694 86.9953 95.7694Z" fill="#C5CFD6"/>
<path d="M225.516 36.5903H118.732C117.082 36.5903 115.745 37.9276 115.745 39.5772V149.721C115.745 151.371 117.082 152.708 118.732 152.708H225.516C227.165 152.708 228.503 151.371 228.503 149.721V39.5772C228.503 37.9276 227.165 36.5903 225.516 36.5903Z" fill="#F2F2F2"/>
<path d="M220.288 51.1517H202.74C201.09 51.1517 199.753 52.489 199.753 54.1387V75.4208C199.753 77.0704 201.09 78.4078 202.74 78.4078H220.288C221.938 78.4078 223.275 77.0704 223.275 75.4208V54.1387C223.275 52.489 221.938 51.1517 220.288 51.1517Z" fill="white"/>
<path d="M211.514 66.8047C214.484 66.8047 216.891 64.3873 216.891 61.4052C216.891 58.4232 214.484 56.0057 211.514 56.0057C208.545 56.0057 206.138 58.4232 206.138 61.4052C206.138 64.3873 208.545 66.8047 211.514 66.8047Z" fill="#C7D1D9"/>
<path d="M218.903 68.1547H204.126C203.567 68.1547 203.113 68.6079 203.113 69.1671C203.113 69.7262 203.567 70.1795 204.126 70.1795H218.903C219.462 70.1795 219.915 69.7262 219.915 69.1671C219.915 68.6079 219.462 68.1547 218.903 68.1547Z" fill="#C7D1D9"/>
<path d="M216.214 71.5292H206.814C206.255 71.5292 205.802 71.9824 205.802 72.5416C205.802 73.1007 206.255 73.554 206.814 73.554H216.214C216.773 73.554 217.227 73.1007 217.227 72.5416C217.227 71.9824 216.773 71.5292 216.214 71.5292Z" fill="#C7D1D9"/>
<path d="M115.745 39.5772C115.745 37.9277 117.082 36.5903 118.732 36.5903H225.516C227.165 36.5903 228.503 37.9277 228.503 39.5772V45.5512H115.745V39.5772Z" fill="#C5CFD6"/>
<path d="M120.599 43.3109C121.423 43.3109 122.092 42.6423 122.092 41.8175C122.092 40.9926 121.423 40.324 120.599 40.324C119.774 40.324 119.105 40.9926 119.105 41.8175C119.105 42.6423 119.774 43.3109 120.599 43.3109Z" fill="#F2F2F2"/>
<path d="M125.079 43.3109C125.904 43.3109 126.572 42.6423 126.572 41.8175C126.572 40.9926 125.904 40.324 125.079 40.324C124.254 40.324 123.586 40.9926 123.586 41.8175C123.586 42.6423 124.254 43.3109 125.079 43.3109Z" fill="#F2F2F2"/>
<path d="M129.559 43.3109C130.384 43.3109 131.053 42.6423 131.053 41.8175C131.053 40.9926 130.384 40.324 129.559 40.324C128.735 40.324 128.066 40.9926 128.066 41.8175C128.066 42.6423 128.735 43.3109 129.559 43.3109Z" fill="#F2F2F2"/>
<path d="M220.288 81.0213H202.74C201.09 81.0213 199.753 82.3586 199.753 84.0083V143.001C199.753 144.65 201.09 145.988 202.74 145.988H220.288C221.938 145.988 223.275 144.65 223.275 143.001V84.0083C223.275 82.3586 221.938 81.0213 220.288 81.0213Z" fill="white"/>
<path d="M215.061 87.7419H207.967C207.142 87.7419 206.474 88.4106 206.474 89.2354V94.836C206.474 95.6608 207.142 96.3295 207.967 96.3295H215.061C215.886 96.3295 216.555 95.6608 216.555 94.836V89.2354C216.555 88.4106 215.886 87.7419 215.061 87.7419Z" fill="#C7D1D9"/>
<path d="M215.061 99.3164H207.967C207.142 99.3164 206.474 99.9851 206.474 100.81V106.037C206.474 106.862 207.142 107.531 207.967 107.531H215.061C215.886 107.531 216.555 106.862 216.555 106.037V100.81C216.555 99.9851 215.886 99.3164 215.061 99.3164Z" fill="#AFB9C5"/>
<path d="M215.061 110.518H207.967C207.142 110.518 206.474 111.186 206.474 112.011V117.238C206.474 118.063 207.142 118.732 207.967 118.732H215.061C215.886 118.732 216.555 118.063 216.555 117.238V112.011C216.555 111.186 215.886 110.518 215.061 110.518Z" fill="#C7D1D9"/>
<path d="M215.061 132.92H207.967C207.142 132.92 206.474 133.588 206.474 134.413V139.64C206.474 140.465 207.142 141.134 207.967 141.134H215.061C215.886 141.134 216.555 140.465 216.555 139.64V134.413C216.555 133.588 215.886 132.92 215.061 132.92Z" fill="#C7D1D9"/>
<path d="M215.061 121.719H207.967C207.142 121.719 206.474 122.387 206.474 123.212V128.439C206.474 129.264 207.142 129.933 207.967 129.933H215.061C215.886 129.933 216.555 129.264 216.555 128.439V123.212C216.555 122.387 215.886 121.719 215.061 121.719Z" fill="#C5CFD6"/>
<path d="M191.912 53.0186H123.212C122.387 53.0186 121.719 53.6872 121.719 54.512V67.2066C121.719 68.0315 122.387 68.7001 123.212 68.7001H191.912C192.737 68.7001 193.406 68.0315 193.406 67.2066V54.512C193.406 53.6872 192.737 53.0186 191.912 53.0186Z" fill="white"/>
<path d="M173.991 57.723H126.199C125.581 57.723 125.079 58.2245 125.079 58.8431V58.9551C125.079 59.5738 125.581 60.0753 126.199 60.0753H173.991C174.609 60.0753 175.111 59.5738 175.111 58.9551V58.8431C175.111 58.2245 174.609 57.723 173.991 57.723Z" fill="#C7D1D9"/>
<path d="M157.542 61.6434H126.199C125.581 61.6434 125.079 62.1449 125.079 62.7635V62.8755C125.079 63.4942 125.581 63.9957 126.199 63.9957H157.542C158.16 63.9957 158.662 63.4942 158.662 62.8755V62.7635C158.662 62.1449 158.16 61.6434 157.542 61.6434Z" fill="#C7D1D9"/>
<path d="M185.745 63.4729C187.188 63.4729 188.358 62.3028 188.358 60.8593C188.358 59.4159 187.188 58.2457 185.745 58.2457C184.301 58.2457 183.131 59.4159 183.131 60.8593C183.131 62.3028 184.301 63.4729 185.745 63.4729Z" fill="#C7D1D9"/>
<path d="M185.745 61.9794C186.363 61.9794 186.865 61.4779 186.865 60.8593C186.865 60.2407 186.363 59.7392 185.745 59.7392C185.126 59.7392 184.624 60.2407 184.624 60.8593C184.624 61.4779 185.126 61.9794 185.745 61.9794Z" fill="#F2F2F2"/>
<path d="M191.912 71.6871H123.212C122.387 71.6871 121.719 72.3557 121.719 73.1806V82.8882C121.719 83.713 122.387 84.3817 123.212 84.3817H191.912C192.737 84.3817 193.406 83.713 193.406 82.8882V73.1806C193.406 72.3557 192.737 71.6871 191.912 71.6871Z" fill="white"/>
<path d="M174.159 75.4955H126.031C125.505 75.4955 125.079 75.9217 125.079 76.4476C125.079 76.9734 125.505 77.3997 126.031 77.3997H174.159C174.684 77.3997 175.111 76.9734 175.111 76.4476C175.111 75.9217 174.684 75.4955 174.159 75.4955Z" fill="#C7D1D9"/>
<path d="M157.71 78.6691H126.031C125.505 78.6691 125.079 79.0954 125.079 79.6212C125.079 80.147 125.505 80.5733 126.031 80.5733H157.71C158.236 80.5733 158.662 80.147 158.662 79.6212C158.662 79.0954 158.236 78.6691 157.71 78.6691Z" fill="#C7D1D9"/>
<path d="M185.745 80.648C187.188 80.648 188.358 79.4778 188.358 78.0344C188.358 76.5909 187.188 75.4208 185.745 75.4208C184.301 75.4208 183.131 76.5909 183.131 78.0344C183.131 79.4778 184.301 80.648 185.745 80.648Z" fill="#C7D1D9"/>
<path d="M185.745 79.1545C186.363 79.1545 186.865 78.653 186.865 78.0344C186.865 77.4157 186.363 76.9142 185.745 76.9142C185.126 76.9142 184.624 77.4157 184.624 78.0344C184.624 78.653 185.126 79.1545 185.745 79.1545Z" fill="#F2F2F2"/>
<path d="M191.912 87.3686H123.212C122.387 87.3686 121.719 88.0372 121.719 88.8621V98.5697C121.719 99.3945 122.387 100.063 123.212 100.063H191.912C192.737 100.063 193.406 99.3945 193.406 98.5697V88.8621C193.406 88.0372 192.737 87.3686 191.912 87.3686Z" fill="white"/>
<path d="M174.159 91.1769H126.031C125.505 91.1769 125.079 91.6032 125.079 92.129C125.079 92.6549 125.505 93.0811 126.031 93.0811H174.159C174.684 93.0811 175.111 92.6549 175.111 92.129C175.111 91.6032 174.684 91.1769 174.159 91.1769Z" fill="#C7D1D9"/>
<path d="M157.71 94.3506H126.031C125.505 94.3506 125.079 94.7768 125.079 95.3027C125.079 95.8285 125.505 96.2548 126.031 96.2548H157.71C158.236 96.2548 158.662 95.8285 158.662 95.3027C158.662 94.7768 158.236 94.3506 157.71 94.3506Z" fill="#C7D1D9"/>
<path d="M185.745 96.3295C187.188 96.3295 188.358 95.1593 188.358 93.7159C188.358 92.2724 187.188 91.1023 185.745 91.1023C184.301 91.1023 183.131 92.2724 183.131 93.7159C183.131 95.1593 184.301 96.3295 185.745 96.3295Z" fill="#C7D1D9"/>
<path d="M185.745 94.836C186.363 94.836 186.865 94.3345 186.865 93.7159C186.865 93.0973 186.363 92.5958 185.745 92.5958C185.126 92.5958 184.624 93.0973 184.624 93.7159C184.624 94.3345 185.126 94.836 185.745 94.836Z" fill="#AFB9C5"/>
<path d="M191.912 134.413H123.212C122.387 134.413 121.719 135.082 121.719 135.907V145.614C121.719 146.439 122.387 147.108 123.212 147.108H191.912C192.737 147.108 193.406 146.439 193.406 145.614V135.907C193.406 135.082 192.737 134.413 191.912 134.413Z" fill="white"/>
<path d="M174.159 138.222H126.031C125.505 138.222 125.079 138.648 125.079 139.174C125.079 139.7 125.505 140.126 126.031 140.126H174.159C174.684 140.126 175.111 139.7 175.111 139.174C175.111 138.648 174.684 138.222 174.159 138.222Z" fill="#C7D1D9"/>
<path d="M157.71 141.395H126.031C125.505 141.395 125.079 141.822 125.079 142.347C125.079 142.873 125.505 143.3 126.031 143.3H157.71C158.236 143.3 158.662 142.873 158.662 142.347C158.662 141.822 158.236 141.395 157.71 141.395Z" fill="#C7D1D9"/>
<path d="M185.745 143.374C187.188 143.374 188.358 142.204 188.358 140.761C188.358 139.317 187.188 138.147 185.745 138.147C184.301 138.147 183.131 139.317 183.131 140.761C183.131 142.204 184.301 143.374 185.745 143.374Z" fill="#C7D1D9"/>
<path d="M185.745 141.881C186.363 141.881 186.865 141.379 186.865 140.761C186.865 140.142 186.363 139.64 185.745 139.64C185.126 139.64 184.624 140.142 184.624 140.761C184.624 141.379 185.126 141.881 185.745 141.881Z" fill="#F2F2F2"/>
<path d="M191.912 118.732H123.212C122.387 118.732 121.719 119.4 121.719 120.225V129.933C121.719 130.758 122.387 131.426 123.212 131.426H191.912C192.737 131.426 193.406 130.758 193.406 129.933V120.225C193.406 119.4 192.737 118.732 191.912 118.732Z" fill="white"/>
<path d="M174.159 122.54H126.031C125.505 122.54 125.079 122.966 125.079 123.492C125.079 124.018 125.505 124.444 126.031 124.444H174.159C174.684 124.444 175.111 124.018 175.111 123.492C175.111 122.966 174.684 122.54 174.159 122.54Z" fill="#C7D1D9"/>
<path d="M157.71 125.714H126.031C125.505 125.714 125.079 126.14 125.079 126.666C125.079 127.192 125.505 127.618 126.031 127.618H157.71C158.236 127.618 158.662 127.192 158.662 126.666C158.662 126.14 158.236 125.714 157.71 125.714Z" fill="#C7D1D9"/>
<path d="M185.745 127.693C187.188 127.693 188.358 126.522 188.358 125.079C188.358 123.636 187.188 122.465 185.745 122.465C184.301 122.465 183.131 123.636 183.131 125.079C183.131 126.522 184.301 127.693 185.745 127.693Z" fill="#C7D1D9"/>
<path d="M185.745 126.199C186.363 126.199 186.865 125.698 186.865 125.079C186.865 124.46 186.363 123.959 185.745 123.959C185.126 123.959 184.624 124.46 184.624 125.079C184.624 125.698 185.126 126.199 185.745 126.199Z" fill="#F2F2F2"/>
<path d="M191.912 103.05H123.212C122.387 103.05 121.719 103.719 121.719 104.544V114.251C121.719 115.076 122.387 115.745 123.212 115.745H191.912C192.737 115.745 193.406 115.076 193.406 114.251V104.544C193.406 103.719 192.737 103.05 191.912 103.05Z" fill="white"/>
<path d="M174.159 106.859H126.031C125.505 106.859 125.079 107.285 125.079 107.811C125.079 108.336 125.505 108.763 126.031 108.763H174.159C174.684 108.763 175.111 108.336 175.111 107.811C175.111 107.285 174.684 106.859 174.159 106.859Z" fill="#C7D1D9"/>
<path d="M157.71 110.032H126.031C125.505 110.032 125.079 110.458 125.079 110.984C125.079 111.51 125.505 111.936 126.031 111.936H157.71C158.236 111.936 158.662 111.51 158.662 110.984C158.662 110.458 158.236 110.032 157.71 110.032Z" fill="#C7D1D9"/>
<path d="M185.745 112.011C187.188 112.011 188.358 110.841 188.358 109.397C188.358 107.954 187.188 106.784 185.745 106.784C184.301 106.784 183.131 107.954 183.131 109.397C183.131 110.841 184.301 112.011 185.745 112.011Z" fill="#C7D1D9"/>
<path d="M185.745 110.518C186.363 110.518 186.865 110.016 186.865 109.397C186.865 108.779 186.363 108.277 185.745 108.277C185.126 108.277 184.624 108.779 184.624 109.397C184.624 110.016 185.126 110.518 185.745 110.518Z" fill="#F2F2F2"/>
<path fill-rule="evenodd" clip-rule="evenodd" d="M17.5166 122.921C23.7687 133.462 31.0502 143.669 35.4231 155.195C35.2469 153.836 35.0602 152.479 34.8511 151.124C33.7414 143.94 32.3626 136.809 30.9132 129.686C30.1754 126.059 29.395 122.446 28.5945 118.833C28.1637 116.893 27.7384 114.951 27.2993 113.012C27.1929 112.542 27.1014 111.722 26.9681 110.891C31.2178 124.907 35.3159 138.933 38.3137 153.286C38.7069 155.169 39.0418 157.05 39.3162 158.927C39.41 158.499 39.5022 158.07 39.6034 157.643C40.8161 152.524 42.6355 147.446 44.8022 142.66C45.8375 140.37 47.0271 138.132 48.428 136.045C49.3013 134.745 51.3612 133.199 52.1576 131.867C47.8003 139.9 46.2269 149.95 43.7108 158.682C43.097 160.813 42.4791 162.941 41.8734 165.072C45.6676 157.424 51.5546 151.141 59.7392 148.418C49.8318 154.998 43.8893 166.519 39.8849 178.303C39.8718 178.442 39.8561 178.582 39.8427 178.722C41.021 176.475 42.5052 174.442 44.5169 173.017C48.8226 169.969 53.5988 170.858 57.7757 173.472C54.4975 171.378 48.5732 173.285 45.8151 175.413C43.8407 176.937 42.1535 178.981 40.688 180.976C40.337 181.453 39.858 182.011 39.3517 182.606C38.6423 187.235 37.486 191.832 35.8491 196.393C36.1194 195.084 35.9238 192.99 35.9988 192.014C36.0071 191.909 36.0138 191.803 36.0216 191.698C35.773 192.696 35.5325 193.684 35.301 194.655C35.761 192.801 36.0112 190.866 36.2064 188.912C36.2568 188.072 36.3058 187.232 36.3577 186.392C36.3412 184.797 36.2759 183.197 36.1654 181.593C35.7733 180.035 35.3346 178.566 34.9728 177.344C33.6675 172.934 31.7536 168.709 29.3977 164.768C27.2485 161.171 24.6756 157.913 21.7055 154.966C20.1045 153.378 18.4288 151.866 16.7766 150.333C16.1792 149.778 15.1114 148.415 14.188 147.705C20.9136 151.431 27.8362 155.463 32.7427 161.467C32.1673 159.248 31.5427 157.059 30.8818 154.914C27.5289 144.033 23.2953 132.755 17.5166 122.921Z" fill="#C7D1D9"/>
<path d="M38.0837 204.607C45.7134 204.607 51.8984 199.676 51.8984 193.592C51.8984 187.509 45.7134 182.578 38.0837 182.578C30.4541 182.578 24.269 187.509 24.269 193.592C24.269 199.676 30.4541 204.607 38.0837 204.607Z" fill="#C5CFD6"/>
<path d="M259.866 25.9492C259.866 25.4337 259.448 25.0158 258.932 25.0158C258.417 25.0158 257.999 25.4337 257.999 25.9492V32.2965C257.999 32.812 258.417 33.23 258.932 33.23C259.448 33.23 259.866 32.812 259.866 32.2965V25.9492Z" fill="#C7D1D9"/>
<path d="M264.719 20.3486C264.719 19.8331 264.301 19.4152 263.786 19.4152C263.27 19.4152 262.853 19.8331 262.853 20.3486V32.2965C262.853 32.812 263.27 33.2299 263.786 33.2299C264.301 33.2299 264.719 32.812 264.719 32.2965V20.3486Z" fill="#C7D1D9"/>
<path d="M269.573 17.7351C269.573 17.2195 269.155 16.8016 268.64 16.8016C268.124 16.8016 267.706 17.2195 267.706 17.7351V32.2965C267.706 32.812 268.124 33.2299 268.64 33.2299C269.155 33.2299 269.573 32.812 269.573 32.2965V17.7351Z" fill="#C7D1D9"/>
<path d="M274.054 20.3486C274.054 19.8331 273.636 19.4152 273.12 19.4152C272.605 19.4152 272.187 19.8331 272.187 20.3486V32.2965C272.187 32.812 272.605 33.2299 273.12 33.2299C273.636 33.2299 274.054 32.812 274.054 32.2965V20.3486Z" fill="#C7D1D9"/>
<path d="M278.908 15.1215C278.908 14.606 278.49 14.188 277.974 14.188C277.459 14.188 277.041 14.606 277.041 15.1215V32.2965C277.041 32.812 277.459 33.2299 277.974 33.2299C278.49 33.2299 278.908 32.812 278.908 32.2965V15.1215Z" fill="#C5CFD6"/>
<path fill-rule="evenodd" clip-rule="evenodd" d="M0 105.642C0 101.958 3.02505 98.9431 6.72066 98.9431V105.642L2.12784 110.518C0.821413 109.325 0 107.577 0 105.642Z" fill="#F2F2F2"/>
<path fill-rule="evenodd" clip-rule="evenodd" d="M6.56569 105.29H13.4413C13.4413 107.045 12.7162 108.689 11.57 109.883C10.3095 111.19 8.51431 112.011 6.56569 112.011C4.7709 112.011 3.12769 111.302 1.86682 110.182L6.56569 105.29Z" fill="#AFB9C5"/>
<path fill-rule="evenodd" clip-rule="evenodd" d="M13.4413 105.664C13.4413 101.968 10.4163 98.9431 6.72066 98.9431V105.664H13.4413ZM3.36033 98.9431L6.0486 104.992L0 102.303C0.598139 100.736 1.94115 99.5413 3.36033 98.9431Z" fill="#C5CFD6"/>
<path fill-rule="evenodd" clip-rule="evenodd" d="M287.546 122.406C286.897 123.079 285.978 123.502 284.957 123.502C282.993 123.502 281.402 121.951 281.402 120.039C281.402 118.126 282.993 116.576 284.957 116.576V110.144C279.372 110.144 274.801 114.598 274.801 120.039C274.801 125.479 279.372 129.933 284.957 129.933C287.891 129.933 290.542 128.724 292.349 126.8L287.546 122.406Z" fill="#F2F2F2"/>
<path fill-rule="evenodd" clip-rule="evenodd" d="M284.881 110.144V116.697C286.83 116.697 288.41 118.277 288.41 120.225H294.962C294.962 114.682 290.425 110.144 284.881 110.144Z" fill="#AFB9C5"/>
<path fill-rule="evenodd" clip-rule="evenodd" d="M288.151 120.225C288.151 121.338 287.602 122.328 286.748 122.967L290.945 128.066C293.388 126.24 294.963 123.41 294.963 120.225H288.151Z" fill="#C5CFD6"/>
<path fill-rule="evenodd" clip-rule="evenodd" d="M237.789 18.4467C237.279 18.9672 236.555 19.2939 235.751 19.2939C234.206 19.2939 232.953 18.0946 232.953 16.615C232.953 15.1353 234.206 13.936 235.751 13.936V8.96088C231.354 8.96088 227.756 12.406 227.756 16.615C227.756 20.824 231.354 24.2691 235.751 24.2691C238.061 24.2691 240.148 23.3338 241.571 21.8459L237.789 18.4467Z" fill="#F2F2F2"/>
<path fill-rule="evenodd" clip-rule="evenodd" d="M235.597 8.96088V14.0574C237.112 14.0574 238.341 15.2861 238.341 16.8017H243.437C243.437 12.49 239.908 8.96088 235.597 8.96088Z" fill="#AFB9C5"/>
<path fill-rule="evenodd" clip-rule="evenodd" d="M238.483 16.8016C238.483 17.6496 238.084 18.4034 237.464 18.8903L240.516 22.7756C242.292 21.3848 243.437 19.2285 243.437 16.8016H238.483Z" fill="#C5CFD6"/>
<path fill-rule="evenodd" clip-rule="evenodd" d="M28.3788 17.5432C28.3773 17.5469 28.3758 17.5506 28.3735 17.5551C28.3758 17.5514 28.3788 17.5364 28.3788 17.5432Z" fill="#C5CFD6"/>
<path fill-rule="evenodd" clip-rule="evenodd" d="M28.3754 17.5488C28.3754 17.5495 28.3746 17.551 28.3746 17.5525C28.3746 17.5488 28.3814 17.5376 28.3754 17.5488Z" fill="#C5CFD6"/>
<path fill-rule="evenodd" clip-rule="evenodd" d="M28.4012 17.4857C28.3959 17.5006 28.3892 17.5148 28.3832 17.5297C28.3862 17.5222 28.3892 17.5163 28.3922 17.5088C28.3145 17.703 28.3638 17.5768 28.4012 17.4857Z" fill="#C5CFD6"/>
<path fill-rule="evenodd" clip-rule="evenodd" d="M28.3844 17.5309C28.3814 17.5376 28.3784 17.5451 28.3754 17.5518C28.3538 17.5936 28.3844 17.5309 28.3844 17.5309Z" fill="#C5CFD6"/>
<path fill-rule="evenodd" clip-rule="evenodd" d="M28.3758 17.5492C28.3758 17.5484 28.3758 17.5484 28.3765 17.5477C28.3758 17.5484 28.3758 17.5484 28.3758 17.5492Z" fill="#C5CFD6"/>
<path fill-rule="evenodd" clip-rule="evenodd" d="M28.3724 17.5544C28.3679 17.5633 28.3933 17.52 28.3724 17.5544V17.5544Z" fill="#C5CFD6"/>
<path fill-rule="evenodd" clip-rule="evenodd" d="M28.3754 17.5492L28.3769 17.5477C28.3762 17.5484 28.3762 17.5492 28.3754 17.5492Z" fill="#C5CFD6"/>
<path d="M42.9376 0H13.8147C12.9899 0 12.3212 0.668654 12.3212 1.49348V19.7886C12.3212 20.6134 12.9899 21.2821 13.8147 21.2821H42.9376C43.7624 21.2821 44.4311 20.6134 44.4311 19.7886V1.49348C44.4311 0.668654 43.7624 0 42.9376 0Z" fill="#C7D1D9"/>
<path fill-rule="evenodd" clip-rule="evenodd" d="M24.3437 5.97394L14.9348 21.2821H33.7527L24.3437 5.97394Z" fill="#AFB9C5"/>
<path fill-rule="evenodd" clip-rule="evenodd" d="M33.5847 10.0561L25.3519 21.2821H41.8175L33.5847 10.0561Z" fill="#C5CFD6"/>
<path d="M37.3371 10.081C38.9867 10.081 40.324 8.74367 40.324 7.09402C40.324 5.44436 38.9867 4.10706 37.3371 4.10706C35.6874 4.10706 34.3501 5.44436 34.3501 7.09402C34.3501 8.74367 35.6874 10.081 37.3371 10.081Z" fill="white"/>
<path fill-rule="evenodd" clip-rule="evenodd" d="M244.555 160.544C244.556 160.548 244.558 160.551 244.56 160.556C244.558 160.552 244.555 160.537 244.555 160.544Z" fill="#C5CFD6"/>
<path fill-rule="evenodd" clip-rule="evenodd" d="M244.558 160.55C244.558 160.55 244.559 160.552 244.559 160.553C244.559 160.55 244.552 160.538 244.558 160.55Z" fill="#C5CFD6"/>
<path fill-rule="evenodd" clip-rule="evenodd" d="M244.532 160.486C244.538 160.501 244.544 160.516 244.55 160.531C244.547 160.523 244.544 160.517 244.541 160.51C244.619 160.704 244.57 160.578 244.532 160.486Z" fill="#C5CFD6"/>
<path fill-rule="evenodd" clip-rule="evenodd" d="M244.549 160.532C244.552 160.538 244.555 160.546 244.558 160.553C244.58 160.594 244.549 160.532 244.549 160.532Z" fill="#C5CFD6"/>
<path fill-rule="evenodd" clip-rule="evenodd" d="M244.558 160.55C244.558 160.549 244.558 160.549 244.557 160.548C244.558 160.549 244.558 160.549 244.558 160.55Z" fill="#C5CFD6"/>
<path fill-rule="evenodd" clip-rule="evenodd" d="M244.561 160.555C244.566 160.564 244.54 160.521 244.561 160.555V160.555Z" fill="#C5CFD6"/>
<path fill-rule="evenodd" clip-rule="evenodd" d="M244.558 160.55L244.557 160.548C244.558 160.549 244.558 160.55 244.558 160.55Z" fill="#C5CFD6"/>
<path d="M219.542 131.8H269.573C270.398 131.8 271.067 132.468 271.067 133.293V165.403C271.067 166.228 270.398 166.896 269.573 166.896H219.542C218.717 166.896 218.048 166.228 218.048 165.403V133.293C218.048 132.468 218.717 131.8 219.542 131.8Z" fill="#C7D1D9"/>
<path fill-rule="evenodd" clip-rule="evenodd" d="M251.38 141.881L266.709 166.896H236.052L251.38 141.881Z" fill="#AFB9C5"/>
<path fill-rule="evenodd" clip-rule="evenodd" d="M235.576 148.582L249.127 166.896H222.024L235.576 148.582Z" fill="#C5CFD6"/>
<path d="M229.809 148.601C227.026 148.601 224.769 146.345 224.769 143.561C224.769 140.777 227.026 138.52 229.809 138.52C232.593 138.52 234.85 140.777 234.85 143.561C234.85 146.345 232.593 148.601 229.809 148.601Z" fill="white"/>
<path d="M201.465 84.2722C194.281 84.2722 188.458 78.8639 188.458 72.1924C188.458 65.5209 194.281 60.1126 201.465 60.1126C208.648 60.1126 214.471 65.5209 214.471 72.1924C214.471 78.8639 208.648 84.2722 201.465 84.2722Z" fill="#B58144"/>
<path fill-rule="evenodd" clip-rule="evenodd" d="M197.91 83.3528C195.492 84.8101 193.117 85.5142 192.002 85.2268C189.205 84.506 188.948 74.2764 191.112 70.2436C193.276 66.2108 204.398 64.453 204.959 72.4433C205.154 75.2165 203.989 77.6914 202.269 79.7108L205.354 94.0893H196.393L197.91 83.3528Z" fill="#915B3C"/>
<path fill-rule="evenodd" clip-rule="evenodd" d="M204.377 66.8332C211.24 73.5539 204.35 80.6972 202.462 80.6972C202.341 79.7275 201.969 78.7842 201.424 77.8865C201.713 77.5118 201.885 77.0459 201.885 76.5409C201.885 75.3036 200.856 74.3007 199.586 74.3007C199.19 74.3007 198.817 74.3985 198.491 74.5707C195.739 72.2239 192.288 70.5879 190.574 70.2662C187.594 69.7067 197.513 60.1126 204.377 66.8332Z" fill="#B58144"/>
<path fill-rule="evenodd" clip-rule="evenodd" d="M208.341 125.079L194.664 172.208L188.231 207.594H181.774L188.219 125.079H208.341Z" fill="#915B3C"/>
<path fill-rule="evenodd" clip-rule="evenodd" d="M208.341 125.079L194.664 172.208L188.231 207.594H181.774L188.219 125.079H208.341Z" fill="black" fill-opacity="0.1"/>
<path fill-rule="evenodd" clip-rule="evenodd" d="M214.487 125.079C213.533 149.562 213.909 162.916 214.123 165.141C214.336 167.365 215.549 182.263 223.812 208.341H217.096C206.153 183.324 202.333 168.426 201.079 165.141C199.823 161.856 196.117 148.502 190.705 125.079H214.487Z" fill="#915B3C"/>
<path fill-rule="evenodd" clip-rule="evenodd" d="M208.634 125.079C205.077 141.296 198.923 167.183 190.175 202.74H180.731C180.034 166.245 183.001 142.224 188.139 125.079H208.634Z" fill="#191847"/>
<path fill-rule="evenodd" clip-rule="evenodd" d="M214.535 125.079C213.6 149.562 216.022 173.683 223.525 203.121H213.449C202.486 178.478 194.629 154.476 189.259 125.079H214.535Z" fill="#393F82"/>
<path fill-rule="evenodd" clip-rule="evenodd" d="M224.769 213.194L224.427 207.687C224.412 207.448 224.18 207.284 223.946 207.334C220.71 208.022 216.246 206.474 216.246 206.474C211.754 209.656 205.279 211.116 202.998 211.553C202.557 211.638 202.274 212.083 202.396 212.515L202.907 214.315H216.246H224.028L224.769 213.194Z" fill="#191847"/>
<path fill-rule="evenodd" clip-rule="evenodd" d="M189.672 213.194L189.33 207.687C189.315 207.448 189.083 207.284 188.849 207.334C185.613 208.022 181.149 206.474 181.149 206.474C176.657 209.656 170.182 211.116 167.902 211.553C167.46 211.638 167.177 212.083 167.3 212.515L167.81 214.315H181.149H188.931L189.672 213.194Z" fill="#191847"/>
<path fill-rule="evenodd" clip-rule="evenodd" d="M238.947 137.475C237.484 135.479 228.675 114.018 228.675 114.018L222.099 115.209C222.099 115.209 233.547 137.925 234.362 139.23C235.421 140.927 234.637 143.801 234.105 145.749C234.023 146.051 233.947 146.33 233.884 146.58C235.155 146.899 235.608 146.162 236.086 145.386C236.626 144.508 237.197 143.58 239.013 144.065C239.714 144.252 240.391 144.501 241.051 144.743C243.334 145.582 245.43 146.351 247.736 144.299C248.101 143.974 248.383 142.941 247.166 142.388C244.133 141.01 239.662 138.451 238.947 137.475ZM162.869 126.406L174.778 117.661L177.411 124.169L165.617 129.06C162.282 132.978 160.417 134.611 160.022 133.96C159.689 133.41 159.949 132.896 160.189 132.423C160.376 132.054 160.55 131.709 160.421 131.392C160.129 130.668 157.888 130.745 155.765 130.908C153.642 131.071 154.26 130.126 154.772 129.66C156.94 128.362 159.638 127.278 162.869 126.406Z" fill="#915B3C"/>
<path fill-rule="evenodd" clip-rule="evenodd" d="M196.294 86.6375L200.287 88.2751C200.245 89.3181 200.25 90.8017 200.254 92.5015C200.269 97.8365 200.29 105.3 198.911 107.949C194.136 117.127 184.332 121.907 173.411 127.232C171.948 127.945 170.464 128.669 168.969 129.414L165.965 123.28C166.313 123.033 166.658 122.785 167 122.536C166.528 122.37 166.134 121.997 165.962 121.486C165.666 120.607 166.138 119.654 167.018 119.358C168.805 118.755 170.472 118.502 172.004 118.612C183.194 109.182 190.727 98.1435 196.294 86.6375Z" fill="#C5CFD6"/>
<path fill-rule="evenodd" clip-rule="evenodd" d="M214.314 128.406C214.314 128.406 196.707 130.34 186.597 128.406C185.762 128.246 185.798 124.646 186.186 123.663C192.217 108.353 196.184 97.145 196.184 86.5109C197.843 87.3779 201.993 86.7708 201.993 86.7708C209.429 97.7296 212.846 110.304 214.314 128.406Z" fill="#191847"/>
<path fill-rule="evenodd" clip-rule="evenodd" d="M236.645 128.591C226.269 98.9356 204.989 85.8752 204.989 85.8752H204.408H202.973H200.743C201.224 92.2358 198.964 101.492 196.343 112.229C192.15 129.402 187.032 150.363 190.721 169.33C195.257 170.343 200.587 169.652 206.357 168.903C214.685 167.822 223.929 166.623 233.027 170.257C232.676 162.659 228.24 154.248 223.824 145.875C221.024 140.568 218.233 135.276 216.495 130.216C216.894 129.841 217.102 129.278 217 128.699L216.805 127.596C216.673 126.848 216.066 126.304 215.349 126.219C215.224 125.659 215.116 125.103 215.027 124.55C214.571 121.728 214.862 118.939 215.15 116.181L215.15 116.181C215.308 114.667 215.465 113.163 215.497 111.667C220.497 116.122 226.55 123.889 231.658 137.352L238.71 135.277C238.44 134.275 238.158 133.29 237.863 132.321C238.68 131.871 239.642 129.735 238.954 129.379C238.228 129.002 237.457 128.741 236.645 128.591Z" fill="#F2F2F2"/>
<path fill-rule="evenodd" clip-rule="evenodd" d="M203.447 86.2485L205.373 92.1722L201.494 96.6129L205 100.103L196.519 114.625L206.89 100.132L203.447 96.6129L206.89 92.6886L203.447 86.2485Z" fill="black" fill-opacity="0.1"/>
<path fill-rule="evenodd" clip-rule="evenodd" d="M197.513 118.732C197.513 119.557 198.182 120.225 199.006 120.225C199.831 120.225 200.5 119.557 200.5 118.732C200.5 117.907 199.831 117.238 199.006 117.238C198.182 117.238 197.513 117.907 197.513 118.732ZM195.646 127.319C195.646 128.144 196.315 128.813 197.139 128.813C197.964 128.813 198.633 128.144 198.633 127.319C198.633 126.495 197.964 125.826 197.139 125.826C196.315 125.826 195.646 126.495 195.646 127.319ZM196.766 137.4C195.941 137.4 195.273 136.732 195.273 135.907C195.273 135.082 195.941 134.413 196.766 134.413C197.591 134.413 198.26 135.082 198.26 135.907C198.26 136.732 197.591 137.4 196.766 137.4Z" fill="black" fill-opacity="0.4"/>
<path fill-rule="evenodd" clip-rule="evenodd" d="M106.76 83.3528C109.178 84.8101 111.553 85.5142 112.668 85.2268C115.465 84.506 115.722 74.2764 113.558 70.2436C111.394 66.2108 100.272 64.453 99.711 72.4433C99.5164 75.2165 100.681 77.6914 102.401 79.7108L99.3165 94.0893H108.277L106.76 83.3528Z" fill="#B28B67"/>
<path fill-rule="evenodd" clip-rule="evenodd" d="M116.306 65.826C116.063 65.9769 115.667 66.0505 115.121 66.0582C114.581 66.0657 113.926 66.0094 113.188 65.9278C112.882 65.8941 112.563 65.856 112.233 65.8168C110.976 65.667 109.563 65.4987 108.162 65.4779C106.392 65.4516 104.61 65.6591 103.15 66.4524C101.763 67.2055 100.684 68.4771 100.171 70.5274C98.1132 74.707 99.9239 78.9448 102.333 80.4281C102.989 79.6315 103.562 78.8592 104.074 78.1192C103.672 77.7143 103.424 77.1566 103.424 76.5409C103.424 75.3036 104.427 74.3006 105.664 74.3006C105.924 74.3006 106.174 74.345 106.406 74.4265C107.22 73.0812 107.921 71.978 108.754 71.2109C108.84 71.1871 108.924 71.1627 109.007 71.1378C112.094 71.4962 114.128 71.051 115.327 70.0707C116.542 69.0772 116.853 67.5754 116.589 65.9544L116.543 65.678L116.306 65.826ZM109.272 70.7914C112.193 71.0986 114.035 70.6448 115.091 69.7817C116.108 68.9499 116.437 67.7021 116.256 66.2634C115.947 66.3804 115.559 66.4254 115.126 66.4315C114.561 66.4394 113.886 66.3806 113.147 66.2989C112.835 66.2645 112.512 66.226 112.179 66.1864L112.179 66.1864C110.974 66.0429 109.648 65.8849 108.323 65.8544C110.353 66.2976 111.894 67.8153 111.894 70.0127C110.82 70.0127 109.988 70.2884 109.272 70.7914ZM104.09 66.4316C103.827 66.532 103.572 66.6477 103.328 66.7805C102.489 67.2359 101.766 67.8957 101.228 68.8403C101.297 68.7503 101.368 68.6605 101.442 68.5709C102.238 67.5995 103.148 66.8964 104.09 66.4316Z" fill="#B58144"/>
<path fill-rule="evenodd" clip-rule="evenodd" d="M92.0895 125.079C92.7627 134.268 136.133 161.32 136.386 162.079C136.555 162.585 122.887 194.07 122.887 194.07L126.678 195.543C126.678 195.543 147.643 162.198 146.566 158.645C145.024 153.558 112.915 125.177 112.915 125.177L92.0895 125.079Z" fill="#B28B67"/>
<path fill-rule="evenodd" clip-rule="evenodd" d="M92.0895 125.079C92.7627 134.268 136.133 161.32 136.386 162.079C136.555 162.585 122.887 194.07 122.887 194.07L126.678 195.543C126.678 195.543 147.643 162.198 146.566 158.645C145.024 153.558 112.915 125.177 112.915 125.177L92.0895 125.079Z" fill="black" fill-opacity="0.1"/>
<path fill-rule="evenodd" clip-rule="evenodd" d="M123.884 189.329L130.074 191.583C143.126 176.856 148.242 164.705 147.309 158.514C146.377 152.323 113.775 125.102 113.775 125.102L91.6456 125.102C92.4005 146.381 132.6 162.16 133.137 163.067C133.675 163.973 128.384 172.854 123.884 189.329Z" fill="#191847"/>
<path fill-rule="evenodd" clip-rule="evenodd" d="M122.607 193.308C122.291 193.005 121.783 193.01 121.502 193.345C120.991 193.957 120.264 194.888 120.047 195.484C119.701 196.433 119.355 198.369 119.355 198.369C120.456 198.769 139.144 205.571 139.144 205.571C139.144 205.571 140.843 203.302 139.255 202.493C137.668 201.685 136.628 201.121 136.628 201.121L128.922 193.673C128.771 193.527 128.529 193.535 128.387 193.69L127.274 194.909C127.274 194.909 125.474 195.067 124.513 194.717C123.927 194.503 123.136 193.814 122.607 193.308Z" fill="#E4E4E4"/>
<path fill-rule="evenodd" clip-rule="evenodd" d="M97.0763 125.079L77.7558 171.462L58.7669 210.674H63.247L112.263 125.079H97.0763Z" fill="#B28B67"/>
<path fill-rule="evenodd" clip-rule="evenodd" d="M59.5337 208.447C59.1336 208.271 58.6581 208.449 58.509 208.86C58.2372 209.609 57.8724 210.734 57.8724 211.367C57.8724 212.377 58.2089 214.315 58.2089 214.315C59.3805 214.315 79.2676 214.315 79.2676 214.315C79.2676 214.315 80.0885 211.601 78.3199 211.384C76.5514 211.168 75.3816 210.994 75.3816 210.994L65.5937 206.63C65.4015 206.544 65.1766 206.634 65.0965 206.829L64.4673 208.355C64.4673 208.355 62.8301 209.119 61.8065 209.119C61.1833 209.119 60.2043 208.742 59.5337 208.447Z" fill="#E4E4E4"/>
<path fill-rule="evenodd" clip-rule="evenodd" d="M60.4817 202.528L70.4366 204.395C78.1336 193.079 110.346 146.679 113.878 125.079H91.7162C79.9217 140.694 67.8186 191.025 60.4817 202.528Z" fill="#393F82"/>
<path fill-rule="evenodd" clip-rule="evenodd" d="M67.3426 138.626C68.7351 136.58 76.7899 114.825 76.7899 114.825L83.403 115.785C83.403 115.785 72.7552 138.887 71.9862 140.221C70.9872 141.953 71.8708 144.797 72.47 146.726C72.5627 147.025 72.6486 147.301 72.7196 147.548C71.461 147.912 70.9822 147.191 70.4774 146.432C69.9072 145.574 69.3039 144.666 67.5064 145.214C66.812 145.426 66.1448 145.698 65.4929 145.963C63.2413 146.881 61.1728 147.723 58.797 145.753C58.4203 145.44 58.103 144.419 59.3002 143.823C62.2828 142.34 66.6619 139.627 67.3426 138.626ZM139.097 128.515L127.827 118.96L124.746 125.268L136.17 130.97C139.224 135.111 140.971 136.87 141.41 136.248C141.781 135.723 141.557 135.193 141.351 134.703C141.19 134.322 141.041 133.966 141.191 133.659C141.533 132.957 143.763 133.189 145.87 133.5C147.976 133.811 147.425 132.826 146.947 132.325C144.875 130.88 142.259 129.61 139.097 128.515Z" fill="#B28B67"/>
<path fill-rule="evenodd" clip-rule="evenodd" d="M104.43 87.866L108.527 86.5109C114.086 100.397 122.376 113.832 136.227 125.18L132.802 131.089C120.629 123.919 109.106 118.348 104.43 107.588C102.86 103.977 104.302 92.184 104.43 87.866Z" fill="#78D692"/>
<path fill-rule="evenodd" clip-rule="evenodd" d="M90.3556 126.946C90.3556 126.946 107.963 128.813 118.073 126.946C118.908 126.792 119.04 125.393 118.653 124.445C112.622 109.668 108.486 96.7744 108.486 86.5109C106.827 87.3477 102.677 86.7617 102.677 86.7617C95.2415 97.3386 91.8239 109.474 90.3556 126.946Z" fill="#181F31"/>
<path fill-rule="evenodd" clip-rule="evenodd" d="M100.546 85.8752C100.738 85.7459 100.839 85.6815 100.839 85.6815L100.828 85.8752H103.927C104.083 86.7909 104.311 90.185 104.643 95.134C105.852 113.118 108.44 151.636 113.949 166.376H75.938C76.74 149.618 82.9187 129.577 89.3192 112.56C84.5962 117.259 79.0803 125.136 74.6225 138.249L67.5026 136.421C74.7584 105.155 96.0166 89.0308 100.142 86.1529C100.182 86.0598 100.222 85.9673 100.262 85.8752H100.546Z" fill="#A8E5BA"/>
</svg>
